<svg width="20" height="20" viewBox="0 0 20 20" fill="none" xmlns="http://www.w3.org/2000/svg">
<g clip-path="url(#clip0_40452_536)">
<path fill-rule="evenodd" clip-rule="evenodd" d="M10.0007 2.4987C5.85851 2.4987 2.50065 5.85656 2.50065 9.9987C2.50065 14.1408 5.85851 17.4987 10.0007 17.4987C14.1428 17.4987 17.5006 14.1408 17.5006 9.9987C17.5006 5.85656 14.1428 2.4987 10.0007 2.4987ZM0.833984 9.9987C0.833984 4.93609 4.93804 0.832031 10.0007 0.832031C15.0633 0.832031 19.1673 4.93609 19.1673 9.9987C19.1673 15.0613 15.0633 19.1654 10.0007 19.1654C4.93804 19.1654 0.833984 15.0613 0.833984 9.9987Z" fill="white"/>
<path fill-rule="evenodd" clip-rule="evenodd" d="M9.99935 5.83203C10.4596 5.83203 10.8327 6.20513 10.8327 6.66536V9.9987C10.8327 10.4589 10.4596 10.832 9.99935 10.832C9.53911 10.832 9.16602 10.4589 9.16602 9.9987V6.66536C9.16602 6.20513 9.53911 5.83203 9.99935 5.83203Z" fill="white"/>
<path fill-rule="evenodd" clip-rule="evenodd" d="M9.16602 13.3333C9.16602 12.8731 9.53911 12.5 9.99935 12.5H10.0077C10.4679 12.5 10.841 12.8731 10.841 13.3333C10.841 13.7936 10.4679 14.1667 10.0077 14.1667H9.99935C9.53911 14.1667 9.16602 13.7936 9.16602 13.3333Z" fill="white"/>
</g>
<defs>
<clipPath id="clip0_40452_536">
<rect width="20" height="20" fill="white"/>
</clipPath>
</defs>
</svg>
