<svg width="18" height="18" viewBox="0 0 18 18" fill="none" xmlns="http://www.w3.org/2000/svg">
<path d="M12.6152 1.43359H5.38523C3.79523 1.43359 2.49023 2.73859 2.49023 4.32859V14.8961C2.49023 16.2461 3.45773 16.8161 4.64273 16.1636L8.30273 14.1311C8.69273 13.9136 9.32273 13.9136 9.70523 14.1311L13.3652 16.1636C14.5502 16.8236 15.5177 16.2536 15.5177 14.8961V4.32859C15.5102 2.73859 14.2127 1.43359 12.6152 1.43359ZM11.7152 6.77359L8.71523 9.77359C8.60273 9.88609 8.46023 9.93859 8.31773 9.93859C8.17523 9.93859 8.03273 9.88609 7.92023 9.77359L6.79523 8.64859C6.57773 8.43109 6.57773 8.07109 6.79523 7.85359C7.01273 7.63609 7.37273 7.63609 7.59023 7.85359L8.31773 8.58109L10.9202 5.97859C11.1377 5.76109 11.4977 5.76109 11.7152 5.97859C11.9327 6.19609 11.9327 6.55609 11.7152 6.77359Z" fill="white"/>
</svg>
