<?xml version="1.0" encoding="UTF-8" standalone="no"?>
<svg
   width="24"
   height="24"
   viewBox="0 0 24 24"
   fill="none"
   version="1.1"
   id="svg2"
   sodipodi:docname="arrow-right.svg"
   inkscape:version="1.3.2 (091e20e, 2023-11-25, custom)"
   xmlns:inkscape="http://www.inkscape.org/namespaces/inkscape"
   xmlns:sodipodi="http://sodipodi.sourceforge.net/DTD/sodipodi-0.dtd"
   xmlns="http://www.w3.org/2000/svg"
   xmlns:svg="http://www.w3.org/2000/svg">
  <defs
     id="defs2" />
  <sodipodi:namedview
     id="namedview2"
     pagecolor="#ffffff"
     bordercolor="#cccccc"
     borderopacity="1"
     inkscape:showpageshadow="0"
     inkscape:pageopacity="1"
     inkscape:pagecheckerboard="0"
     inkscape:deskcolor="#d1d1d1"
     inkscape:zoom="49.208333"
     inkscape:cx="11.989839"
     inkscape:cy="12"
     inkscape:window-width="3440"
     inkscape:window-height="1377"
     inkscape:window-x="-8"
     inkscape:window-y="-8"
     inkscape:window-maximized="1"
     inkscape:current-layer="svg2" />
  <path
     fill-rule="evenodd"
     clip-rule="evenodd"
     d="m 20,12 c 0,-0.5523 -0.4477,-1 -1,-1 H 5 c -0.55229,0 -1,0.4477 -1,1 0,0.5523 0.44771,1 1,1 h 14 c 0.5523,0 1,-0.4477 1,-1 z"
     fill="#ffffff"
     id="path1"
     style="opacity:0.33" />
  <path
     fill-rule="evenodd"
     clip-rule="evenodd"
     d="m 12.7071,4.29289 c -0.3905,-0.39052 -1.0237,-0.39052 -1.4142,0 L 4.29289,11.2929 c -0.39052,0.3905 -0.39052,1.0237 0,1.4142 l 7.00001,7 c 0.3905,0.3905 1.0237,0.3905 1.4142,0 0.3905,-0.3905 0.3905,-1.0237 0,-1.4142 L 6.41421,12 12.7071,5.70711 c 0.3905,-0.39053 0.3905,-1.02369 0,-1.41422 z"
     fill="#ffffff"
     id="path2"
     style="opacity:0.33" />
</svg>
