<svg width="16" height="16" viewBox="0 0 16 16" fill="none" xmlns="http://www.w3.org/2000/svg">
<path d="M12.8273 3.72036H12.5607L10.3073 1.46703C10.1273 1.28703 9.83398 1.28703 9.64732 1.46703C9.46732 1.64703 9.46732 1.94036 9.64732 2.12703L11.2407 3.72036H4.76065L6.35398 2.12703C6.53398 1.94703 6.53398 1.6537 6.35398 1.46703C6.17398 1.28703 5.88065 1.28703 5.69398 1.46703L3.44732 3.72036H3.18065C2.58065 3.72036 1.33398 3.72037 1.33398 5.42703C1.33398 6.0737 1.46732 6.50036 1.74732 6.78036C1.90732 6.94703 2.10065 7.0337 2.30732 7.08036C2.50065 7.12703 2.70732 7.1337 2.90732 7.1337H13.094C13.3007 7.1337 13.494 7.12036 13.6807 7.08036C14.2407 6.94703 14.6673 6.54703 14.6673 5.42703C14.6673 3.72037 13.4207 3.72036 12.8273 3.72036Z" fill="white"/>
<path d="M12.7004 8H3.2471C2.83376 8 2.52043 8.36667 2.5871 8.77333L3.1471 12.2C3.33376 13.3467 3.83376 14.6667 6.05376 14.6667H9.79376C12.0404 14.6667 12.4404 13.54 12.6804 12.28L13.3538 8.79333C13.4338 8.38 13.1204 8 12.7004 8ZM7.07376 12.3C7.07376 12.56 6.8671 12.7667 6.61376 12.7667C6.35376 12.7667 6.1471 12.56 6.1471 12.3V10.1C6.1471 9.84667 6.35376 9.63333 6.61376 9.63333C6.8671 9.63333 7.07376 9.84667 7.07376 10.1V12.3ZM9.9271 12.3C9.9271 12.56 9.72043 12.7667 9.46043 12.7667C9.2071 12.7667 8.99376 12.56 8.99376 12.3V10.1C8.99376 9.84667 9.2071 9.63333 9.46043 9.63333C9.72043 9.63333 9.9271 9.84667 9.9271 10.1V12.3Z" fill="white"/>
</svg>
