<svg width="24" height="26" viewBox="0 0 24 26" fill="none" xmlns="http://www.w3.org/2000/svg">
<path fill-rule="evenodd" clip-rule="evenodd" d="M21.3879 5.3125L13.9629 1.025C12.7504 0.325 11.2504 0.325 10.0254 1.025L2.61289 5.3125C1.40039 6.0125 0.650391 7.3125 0.650391 8.725V17.275C0.650391 18.675 1.40039 19.975 2.61289 20.6875L10.0379 24.975C11.2504 25.675 12.7504 25.675 13.9754 24.975L21.4004 20.6875C22.6129 19.9875 23.3629 18.6875 23.3629 17.275V8.725C23.3504 7.3125 22.6004 6.025 21.3879 5.3125ZM8.18894 17.5483C8.51215 17.7465 8.85215 17.9308 8.9445 17.958C9.19356 18.0313 9.5026 18.0074 9.74751 17.896C10.1805 17.6991 10.4803 17.3429 10.7729 16.6778C11.0341 16.0838 11.4788 15.2451 11.7734 14.7906C11.9163 14.5702 12.043 14.3898 12.0551 14.3898C12.0671 14.3898 12.103 14.5126 12.1349 14.6627C12.1766 14.8588 12.1993 15.1816 12.2155 15.809C12.2397 16.7399 12.256 16.8321 12.4275 17.0016C12.4957 17.0691 12.5017 17.0698 12.5638 17.0176C12.5995 16.9876 12.6606 16.9069 12.6995 16.8383C12.765 16.7229 12.7722 16.6447 12.7946 15.7934C12.8177 14.9145 12.8653 14.494 12.9505 14.4149C12.9869 14.3811 13.516 15.2272 13.7708 15.7267C13.8814 15.9435 14.0694 16.338 14.1886 16.6034C14.3078 16.8688 14.4601 17.1696 14.527 17.272C14.6941 17.5274 14.9905 17.794 15.2276 17.9021C15.4035 17.9824 15.459 17.9921 15.7277 17.9897C16.0952 17.9864 16.1904 17.951 16.7024 17.6272C16.9051 17.499 17.2258 17.3123 17.415 17.2122C17.6043 17.112 17.8419 16.9616 17.943 16.8779C18.3727 16.5221 18.5366 15.8426 18.3419 15.2231C18.1748 14.691 17.7403 14.2737 16.8527 13.7926C16.7141 13.7176 16.6008 13.6352 16.6008 13.6097C16.6008 13.534 16.8354 13.536 17.1873 13.6145C17.648 13.7173 17.9535 13.7108 18.212 13.5927C18.4799 13.4702 18.7676 13.1995 18.8948 12.9503C18.9606 12.8213 19.0445 12.5401 19.1355 12.144C19.5029 10.5437 19.8101 9.91721 20.639 9.07722C20.9693 8.74249 21.0359 8.62789 20.9844 8.48302C20.8691 8.15838 20.2963 7.96718 19.5568 8.00649C17.6215 8.10938 15.0319 9.54489 13.3093 11.4698C13.0281 11.7839 13.0098 11.7982 12.9516 11.7493C12.9178 11.7209 12.8902 11.6793 12.8902 11.6568C12.8902 11.6343 12.8446 11.5677 12.7889 11.5088L12.6876 11.4016L12.9289 10.9853C13.3453 10.2669 13.5165 10.0406 14.0021 9.56775C14.3212 9.25702 14.417 9.11832 14.3875 9.0094C14.3469 8.85909 14.1815 8.88684 13.9822 9.07737C13.7444 9.30481 13.1771 10.2467 12.7684 11.0928C12.6065 11.4279 12.6051 11.4295 12.496 11.4203C12.3891 11.4113 12.3794 11.3974 12.1069 10.8652C11.6739 10.0199 11.232 9.31052 10.9855 9.06542C10.8142 8.8951 10.6067 8.88716 10.6067 9.05092C10.6067 9.15424 10.6732 9.24451 10.9436 9.50838C11.3561 9.91095 11.6407 10.2859 12.0458 10.9604L12.3162 11.4106L12.2317 11.4925C12.1853 11.5376 12.1217 11.6219 12.0906 11.6799C12.0594 11.7379 12.0179 11.7853 11.9984 11.7853C11.9789 11.7853 11.8662 11.6801 11.7481 11.5514C10.5399 10.2356 9.28357 9.3136 7.76919 8.6313C6.8591 8.22126 6.14894 8.03364 5.40177 8.00585C5.05296 7.99288 4.89601 8.00047 4.72106 8.03879C4.22093 8.14832 3.95621 8.35742 4.00594 8.60364C4.01873 8.66698 4.11124 8.79502 4.25237 8.94471C4.92471 9.65786 5.0978 9.89429 5.35158 10.4462C5.54126 10.8587 5.69975 11.3714 5.87039 12.1245C6.02574 12.8101 6.11722 13.0166 6.38435 13.2846C6.77427 13.6758 7.07815 13.7406 7.84189 13.5955C8.18711 13.5298 8.29931 13.519 8.35399 13.5462C8.45622 13.597 8.44107 13.6334 8.28128 13.7208L7.83967 13.9617C7.30899 14.251 6.87873 14.6834 6.71368 15.0931C6.61806 15.3305 6.5785 15.6809 6.61402 15.9758C6.66978 16.4387 6.87711 16.7436 7.32161 17.0164L8.18894 17.5483Z" fill="#C8EA80"/>
</svg>
