<svg width="17" height="10" viewBox="0 0 17 10" fill="none" xmlns="http://www.w3.org/2000/svg">
<path d="M4.9445 9.95801C4.85215 9.93084 4.51215 9.74648 4.18894 9.54832C3.86573 9.35015 3.47543 9.11078 3.32161 9.01639C2.87711 8.74361 2.66978 8.43869 2.61402 7.97579C2.5785 7.68088 2.61806 7.33051 2.71368 7.09311C2.87873 6.68336 3.30899 6.25104 3.83967 5.96172C4.00406 5.8721 4.20279 5.76367 4.28128 5.72076C4.44107 5.63342 4.45622 5.59705 4.35399 5.54622C4.29931 5.51904 4.18711 5.52983 3.84189 5.59545C3.07815 5.74063 2.77427 5.67583 2.38435 5.28463C2.11722 5.01663 2.02574 4.81013 1.87039 4.1245C1.69975 3.37138 1.54126 2.85866 1.35158 2.44617C1.0978 1.89429 0.924708 1.65786 0.252367 0.944707C0.111241 0.795015 0.0187302 0.666978 0.00593843 0.603643C-0.0437923 0.357415 0.220926 0.14832 0.721058 0.038788C0.896014 0.000471424 1.05296 -0.00712267 1.40177 0.00585195C2.14894 0.0336437 2.8591 0.221261 3.76918 0.631297C5.28357 1.3136 6.53992 2.23562 7.7481 3.5514C7.86624 3.68007 7.97887 3.78534 7.99839 3.78534C8.01791 3.78534 8.05938 3.73789 8.09055 3.67991C8.12172 3.62192 8.18525 3.53761 8.23173 3.49254L8.31625 3.4106L8.04583 2.96039C7.64072 2.28592 7.35607 1.91095 6.94357 1.50838C6.67319 1.24451 6.60672 1.15424 6.60672 1.05092C6.60672 0.88716 6.81418 0.895101 6.98547 1.06542C7.23197 1.31052 7.67395 2.01988 8.10686 2.8652C8.3794 3.39738 8.38915 3.41127 8.49603 3.42028C8.60512 3.42948 8.60645 3.42788 8.76835 3.09278C9.1771 2.24673 9.74442 1.30481 9.98223 1.07737C10.1815 0.886837 10.3469 0.859089 10.3875 1.0094C10.417 1.11832 10.3212 1.25702 10.0021 1.56775C9.51654 2.04064 9.34525 2.26688 8.92891 2.98526L8.6876 3.40164L8.78889 3.5088C8.8446 3.56774 8.89018 3.63435 8.89018 3.65682C8.89018 3.6793 8.9178 3.72091 8.95156 3.74929C9.00979 3.79824 9.02812 3.78391 9.30928 3.46976C11.0319 1.54489 13.6215 0.109384 15.5568 0.00648876C16.2963 -0.0328247 16.8691 0.158377 16.9844 0.483024C17.0359 0.627894 16.9693 0.742493 16.639 1.07722C15.8101 1.91721 15.5029 2.54374 15.1355 4.14404C15.0445 4.54015 14.9606 4.82132 14.8948 4.95026C14.7676 5.19949 14.4799 5.4702 14.212 5.59265C13.9535 5.71081 13.648 5.71733 13.1873 5.61452C12.8354 5.53598 12.6008 5.53405 12.6008 5.60969C12.6008 5.63523 12.7141 5.71756 12.8527 5.79263C13.7403 6.27371 14.1748 6.69101 14.3419 7.22313C14.5366 7.84257 14.3727 8.52215 13.943 8.87789C13.8419 8.96162 13.6043 9.11204 13.415 9.21215C13.2258 9.31226 12.9051 9.49904 12.7024 9.6272C12.1904 9.95101 12.0952 9.9864 11.7277 9.98969C11.459 9.99209 11.4035 9.98237 11.2276 9.90213C10.9905 9.79399 10.6941 9.52737 10.527 9.27197C10.4601 9.16962 10.3078 8.86876 10.1886 8.6034C10.0694 8.33804 9.88135 7.94351 9.77076 7.72667C9.51602 7.22723 8.98691 6.38105 8.9505 6.41488C8.8653 6.49402 8.81774 6.91454 8.79459 7.79341C8.77216 8.64468 8.76505 8.72289 8.69952 8.83832C8.66056 8.90694 8.59947 8.98763 8.56376 9.01762C8.50165 9.06979 8.49573 9.06909 8.42747 9.0016C8.25605 8.83212 8.23966 8.73987 8.21553 7.80901C8.19926 7.18162 8.17656 6.85879 8.13491 6.66273C8.10303 6.51262 8.0671 6.38981 8.05506 6.38981C8.04303 6.38981 7.91628 6.57018 7.77339 6.79063C7.4788 7.24513 7.03415 8.08384 6.77288 8.67782C6.48033 9.34292 6.18054 9.6991 5.74751 9.89605C5.5026 10.0074 5.19356 10.0313 4.9445 9.95801Z" fill="white"/>
</svg>
