<svg width="12" height="12" viewBox="0 0 12 12" fill="none" xmlns="http://www.w3.org/2000/svg">
<g clip-path="url(#clip0_40443_151)">
<path fill-rule="evenodd" clip-rule="evenodd" d="M6 1.5C3.51472 1.5 1.5 3.51472 1.5 6C1.5 8.48528 3.51472 10.5 6 10.5C8.48528 10.5 10.5 8.48528 10.5 6C10.5 3.51472 8.48528 1.5 6 1.5ZM0.5 6C0.5 2.96243 2.96243 0.5 6 0.5C9.03757 0.5 11.5 2.96243 11.5 6C11.5 9.03757 9.03757 11.5 6 11.5C2.96243 11.5 0.5 9.03757 0.5 6Z" fill="#696368"/>
<path fill-rule="evenodd" clip-rule="evenodd" d="M6.00011 2.5C6.27625 2.5 6.50011 2.72386 6.50011 3V6C6.50011 6.18939 6.39311 6.36252 6.22372 6.44721L4.22372 7.44721C3.97673 7.57071 3.67639 7.4706 3.5529 7.22361C3.4294 6.97662 3.52951 6.67628 3.7765 6.55279L5.50011 5.69098V3C5.50011 2.72386 5.72397 2.5 6.00011 2.5Z" fill="#696368"/>
</g>
<defs>
<clipPath id="clip0_40443_151">
<rect width="12" height="12" fill="white"/>
</clipPath>
</defs>
</svg>
