<svg width="18" height="18" viewBox="0 0 18 18" fill="none" xmlns="http://www.w3.org/2000/svg">
<path d="M9.5625 12H11.625C13.725 12 14.25 11.475 14.25 9.375V6.225C14.25 4.125 13.725 3.6 11.625 3.6H10.05C9.525 3.6 9.4125 3.4425 9.21 3.18L8.4225 2.13C8.1225 1.7325 7.95 1.5 7.1625 1.5H6.375C4.275 1.5 3.75 2.025 3.75 4.125V9.375C3.75 11.475 4.275 12 6.375 12H8.4375V14.25C8.4375 14.2875 8.4525 14.3175 8.46 14.355C8.07 14.505 7.755 14.82 7.605 15.21C7.5675 15.2025 7.5375 15.1875 7.5 15.1875H4.5C4.1925 15.1875 3.9375 15.4425 3.9375 15.75C3.9375 16.0575 4.1925 16.3125 4.5 16.3125H7.5C7.5375 16.3125 7.5675 16.2975 7.605 16.29C7.8225 16.8525 8.3625 17.25 9 17.25C9.6375 17.25 10.1775 16.8525 10.395 16.29C10.4325 16.2975 10.4625 16.3125 10.5 16.3125H13.5C13.8075 16.3125 14.0625 16.0575 14.0625 15.75C14.0625 15.4425 13.8075 15.1875 13.5 15.1875H10.5C10.4625 15.1875 10.4325 15.2025 10.395 15.21C10.245 14.82 9.93 14.505 9.54 14.355C9.5475 14.3175 9.5625 14.2875 9.5625 14.25V12Z" fill="white"/>
</svg>
