<svg width="17" height="17" viewBox="0 0 17 17" fill="none" xmlns="http://www.w3.org/2000/svg">
<g clip-path="url(#clip0_40443_408)">
<path fill-rule="evenodd" clip-rule="evenodd" d="M7.79102 7.08464C7.39981 7.08464 7.08268 7.40177 7.08268 7.79297V14.168C7.08268 14.5592 7.39981 14.8763 7.79102 14.8763H14.166C14.5572 14.8763 14.8743 14.5592 14.8743 14.168V7.79297C14.8743 7.40177 14.5572 7.08464 14.166 7.08464H7.79102ZM5.66602 7.79297C5.66602 6.61936 6.61741 5.66797 7.79102 5.66797H14.166C15.3396 5.66797 16.291 6.61936 16.291 7.79297V14.168C16.291 15.3416 15.3396 16.293 14.166 16.293H7.79102C6.61741 16.293 5.66602 15.3416 5.66602 14.168V7.79297Z" fill="#5068EE"/>
<path fill-rule="evenodd" clip-rule="evenodd" d="M2.83398 2.1237C2.64612 2.1237 2.46596 2.19833 2.33312 2.33116C2.20028 2.464 2.12565 2.64417 2.12565 2.83203V9.20703C2.12565 9.39489 2.20028 9.57506 2.33312 9.7079C2.46596 9.84074 2.64612 9.91536 2.83398 9.91536H3.54232C3.93352 9.91536 4.25065 10.2325 4.25065 10.6237C4.25065 11.0149 3.93352 11.332 3.54232 11.332H2.83398C2.2704 11.332 1.7299 11.1081 1.33138 10.7096C0.932868 10.3111 0.708984 9.77062 0.708984 9.20703V2.83203C0.708984 2.26845 0.932868 1.72794 1.33138 1.32943C1.7299 0.930914 2.2704 0.707031 2.83398 0.707031H9.20898C9.77257 0.707031 10.3131 0.930915 10.7116 1.32943C11.1101 1.72794 11.334 2.26845 11.334 2.83203V3.54036C11.334 3.93157 11.0169 4.2487 10.6257 4.2487C10.2344 4.2487 9.91732 3.93157 9.91732 3.54036V2.83203C9.91732 2.64417 9.84269 2.464 9.70985 2.33116C9.57701 2.19833 9.39685 2.1237 9.20898 2.1237H2.83398Z" fill="#5068EE"/>
</g>
<defs>
<clipPath id="clip0_40443_408">
<rect width="17" height="17" fill="white"/>
</clipPath>
</defs>
</svg>
