<svg width="17" height="17" viewBox="0 0 17 17" fill="none" xmlns="http://www.w3.org/2000/svg">
<path fill-rule="evenodd" clip-rule="evenodd" d="M3.66128 1.73339C3.79265 1.53633 4.01382 1.41797 4.25065 1.41797H12.7507C12.9875 1.41797 13.2087 1.53633 13.34 1.73339L16.1734 5.98339C16.3417 6.23591 16.3305 6.56762 16.1454 6.80818L9.06209 16.0165C8.92801 16.1908 8.72057 16.293 8.50065 16.293C8.28074 16.293 8.0733 16.1908 7.93921 16.0165L0.855877 6.80818C0.670833 6.56762 0.659601 6.23591 0.82795 5.98339L3.66128 1.73339ZM4.62974 2.83464L2.28829 6.34681L8.50065 14.4229L14.713 6.34681L12.3716 2.83464H4.62974Z" fill="#C8EA80"/>
<path fill-rule="evenodd" clip-rule="evenodd" d="M8.89109 1.4929C9.241 1.31795 9.66647 1.45978 9.84142 1.80968L11.9664 6.05968C12.0479 6.22261 12.0635 6.41066 12.0099 6.58477L9.17655 15.7931C9.0615 16.167 8.66513 16.3768 8.29123 16.2618C7.91732 16.1468 7.70748 15.7504 7.82253 15.3765L10.5724 6.4394L8.57432 2.44323C8.39937 2.09333 8.54119 1.66786 8.89109 1.4929Z" fill="#C8EA80"/>
<path fill-rule="evenodd" clip-rule="evenodd" d="M8.10909 1.4929C8.459 1.66786 8.60082 2.09333 8.42587 2.44323L6.42779 6.4394L9.17766 15.3765C9.29271 15.7504 9.08287 16.1468 8.70896 16.2618C8.33506 16.3768 7.93869 16.167 7.82364 15.7931L4.99031 6.58477C4.93674 6.41066 4.9523 6.22261 5.03377 6.05968L7.15877 1.80968C7.33372 1.45978 7.75919 1.31795 8.10909 1.4929Z" fill="#C8EA80"/>
<path fill-rule="evenodd" clip-rule="evenodd" d="M0.708984 6.3763C0.708984 5.9851 1.02612 5.66797 1.41732 5.66797H15.584C15.9752 5.66797 16.2923 5.9851 16.2923 6.3763C16.2923 6.7675 15.9752 7.08464 15.584 7.08464H1.41732C1.02612 7.08464 0.708984 6.7675 0.708984 6.3763Z" fill="#C8EA80"/>
</svg>
