<svg width="16" height="16" viewBox="0 0 16 16" fill="none" xmlns="http://www.w3.org/2000/svg">
<path d="M5.09906 13.9412C5.07906 13.9412 5.0524 13.9545 5.0324 13.9545C3.73906 13.3145 2.68573 12.2545 2.03906 10.9612C2.03906 10.9412 2.0524 10.9145 2.0524 10.8945C2.86573 11.1345 3.70573 11.3145 4.53906 11.4545C4.68573 12.2945 4.85906 13.1279 5.09906 13.9412Z" fill="#60595E"/>
<path d="M13.9594 10.9679C13.2994 12.2945 12.1994 13.3679 10.8594 14.0145C11.1127 13.1679 11.326 12.3145 11.466 11.4545C12.306 11.3145 13.1327 11.1345 13.946 10.8945C13.9394 10.9212 13.9594 10.9479 13.9594 10.9679Z" fill="#60595E"/>
<path d="M14.0127 5.14161C13.1727 4.88828 12.326 4.68161 11.466 4.53495C11.326 3.67495 11.1194 2.82161 10.8594 1.98828C12.2394 2.64828 13.3527 3.76161 14.0127 5.14161Z" fill="#60595E"/>
<path d="M5.09966 2.05906C4.85966 2.8724 4.68633 3.69906 4.54633 4.53906C3.68633 4.6724 2.83299 4.88573 1.98633 5.13906C2.63299 3.79906 3.70633 2.69906 5.03299 2.03906C5.05299 2.03906 5.07966 2.05906 5.09966 2.05906Z" fill="#60595E"/>
<path d="M10.3272 4.39203C8.78049 4.2187 7.22049 4.2187 5.67383 4.39203C5.84049 3.4787 6.05383 2.56536 6.35383 1.68536C6.36716 1.63203 6.36049 1.59203 6.36716 1.5387C6.89383 1.41203 7.43383 1.33203 8.00049 1.33203C8.56049 1.33203 9.10716 1.41203 9.62716 1.5387C9.63383 1.59203 9.63383 1.63203 9.64716 1.68536C9.94716 2.57203 10.1605 3.4787 10.3272 4.39203Z" fill="#60595E"/>
<path d="M4.39398 10.3252C3.47398 10.1585 2.56732 9.94521 1.68732 9.64521C1.63398 9.63188 1.59398 9.63854 1.54065 9.63187C1.41398 9.10521 1.33398 8.56521 1.33398 7.99854C1.33398 7.43854 1.41398 6.89188 1.54065 6.37188C1.59398 6.36521 1.63398 6.36521 1.68732 6.35187C2.57398 6.05854 3.47398 5.83854 4.39398 5.67188C4.22732 7.21854 4.22732 8.77854 4.39398 10.3252Z" fill="#60595E"/>
<path d="M14.6674 7.99854C14.6674 8.56521 14.5874 9.10521 14.4608 9.63187C14.4074 9.63854 14.3674 9.63188 14.3141 9.64521C13.4274 9.93854 12.5208 10.1585 11.6074 10.3252C11.7808 8.77854 11.7808 7.21854 11.6074 5.67188C12.5208 5.83854 13.4341 6.05187 14.3141 6.35187C14.3674 6.36521 14.4074 6.37188 14.4608 6.37188C14.5874 6.89854 14.6674 7.43854 14.6674 7.99854Z" fill="#60595E"/>
<path d="M10.3272 11.6055C10.1605 12.5255 9.94716 13.4321 9.64716 14.3121C9.63383 14.3655 9.63383 14.4055 9.62716 14.4588C9.10716 14.5855 8.56049 14.6655 8.00049 14.6655C7.43383 14.6655 6.89383 14.5855 6.36716 14.4588C6.36049 14.4055 6.36716 14.3655 6.35383 14.3121C6.06049 13.4255 5.84049 12.5255 5.67383 11.6055C6.44716 11.6921 7.22049 11.7521 8.00049 11.7521C8.78049 11.7521 9.56049 11.6921 10.3272 11.6055Z" fill="#60595E"/>
<path d="M10.5095 10.5076C8.84214 10.718 7.15916 10.718 5.49176 10.5076C5.28139 8.84019 5.28139 7.15721 5.49176 5.48981C7.15916 5.27944 8.84214 5.27944 10.5095 5.48981C10.7199 7.15721 10.7199 8.84019 10.5095 10.5076Z" fill="#60595E"/>
</svg>
