<svg width="13" height="13" viewBox="0 0 13 13" fill="none" xmlns="http://www.w3.org/2000/svg">
<path d="M4.33385 6.5C4.33385 5.30343 5.30364 4.33316 6.50026 4.33316C7.69688 4.33316 8.66719 5.30343 8.66719 6.5C8.66719 7.69657 7.69688 8.66684 6.50026 8.66684C5.30364 8.66684 4.33385 7.69657 4.33385 6.5ZM3.16245 6.5C3.16245 8.3434 4.65679 9.83767 6.50026 9.83767C8.34373 9.83767 9.83807 8.3434 9.83807 6.5C9.83807 4.6566 8.34373 3.16233 6.50026 3.16233C4.65679 3.16233 3.16245 4.6566 3.16245 6.5ZM9.19017 3.02999C9.19011 3.18426 9.2358 3.33508 9.32146 3.46339C9.40712 3.59169 9.5289 3.69171 9.67141 3.75081C9.81392 3.8099 9.97075 3.82541 10.1221 3.79537C10.2734 3.76534 10.4124 3.6911 10.5215 3.58206C10.6307 3.47302 10.705 3.33407 10.7352 3.18278C10.7653 3.03148 10.75 2.87464 10.691 2.7321C10.632 2.58955 10.5321 2.46769 10.4038 2.38193C10.2756 2.29617 10.1248 2.25036 9.97052 2.2503H9.9702C9.76341 2.2504 9.56511 2.33256 9.41885 2.47875C9.2726 2.62494 9.19035 2.8232 9.19017 3.02999ZM3.87416 11.7908C3.24041 11.762 2.89594 11.6564 2.66703 11.5672C2.36355 11.4491 2.14701 11.3084 1.91934 11.081C1.69168 10.8537 1.55075 10.6374 1.43313 10.3339C1.34389 10.1051 1.23833 9.76056 1.20952 9.12683C1.178 8.44168 1.17171 8.23586 1.17171 6.50005C1.17171 4.76424 1.17852 4.559 1.20952 3.87327C1.23838 3.23955 1.34472 2.89567 1.43313 2.6662C1.55127 2.36272 1.69199 2.1462 1.91934 1.91854C2.1467 1.69088 2.36303 1.54996 2.66703 1.43234C2.89584 1.34311 3.24041 1.23755 3.87416 1.20874C4.55933 1.17723 4.76516 1.17094 6.50026 1.17094C8.23536 1.17094 8.44139 1.17775 9.12715 1.20874C9.76089 1.2376 10.1048 1.34394 10.3343 1.43234C10.6378 1.54996 10.8543 1.6912 11.082 1.91854C11.3096 2.14588 11.45 2.36272 11.5682 2.6662C11.6574 2.895 11.763 3.23955 11.7918 3.87327C11.8233 4.559 11.8296 4.76424 11.8296 6.50005C11.8296 8.23586 11.8233 8.44111 11.7918 9.12683C11.7629 9.76056 11.6568 10.105 11.5682 10.3339C11.45 10.6374 11.3093 10.8539 11.082 11.081C10.8546 11.3082 10.6378 11.4491 10.3343 11.5672C10.1055 11.6565 9.76089 11.762 9.12715 11.7908C8.44197 11.8224 8.23614 11.8286 6.50026 11.8286C4.76438 11.8286 4.55913 11.8224 3.87416 11.7908ZM3.82033 0.039364C3.12834 0.070876 2.65549 0.180596 2.24254 0.341276C1.81487 0.507208 1.45283 0.72982 1.09106 1.09101C0.729277 1.4522 0.507228 1.8148 0.34129 2.24245C0.180603 2.65564 0.0708788 3.12822 0.0393656 3.82018C0.0073323 4.51324 0 4.73481 0 6.5C0 8.26519 0.0073323 8.48676 0.0393656 9.17982C0.0708788 9.87184 0.180603 10.3444 0.34129 10.7576C0.507228 11.1849 0.729329 11.548 1.09106 11.909C1.45278 12.27 1.81487 12.4923 2.24254 12.6587C2.65627 12.8194 3.12834 12.9291 3.82033 12.9606C4.51378 12.9921 4.735 13 6.50026 13C8.26552 13 8.4871 12.9927 9.18019 12.9606C9.87223 12.9291 10.3448 12.8194 10.758 12.6587C11.1854 12.4923 11.5477 12.2702 11.9095 11.909C12.2712 11.5478 12.4928 11.1849 12.6592 10.7576C12.8199 10.3444 12.9302 9.87178 12.9612 9.17982C12.9927 8.48624 13 8.26519 13 6.5C13 4.73481 12.9927 4.51324 12.9612 3.82018C12.9296 3.12816 12.8199 2.65538 12.6592 2.24245C12.4928 1.81506 12.2707 1.45278 11.9095 1.09101C11.5483 0.729248 11.1854 0.507208 10.7585 0.341276C10.3448 0.180596 9.87218 0.070356 9.18071 0.039364C8.48762 0.007852 8.26604 0 6.50078 0C4.73552 0 4.51378 0.007332 3.82033 0.039364Z" fill="white"/>
</svg>
