<svg width="18" height="18" viewBox="0 0 18 18" fill="none" xmlns="http://www.w3.org/2000/svg">
<path d="M14.8425 3.16328C12.6225 0.950781 9.02249 0.950781 6.81749 3.16328C5.26499 4.70078 4.79999 6.91328 5.39999 8.86328L1.87499 12.3883C1.62749 12.6433 1.45499 13.1458 1.50749 13.5058L1.73249 15.1408C1.81499 15.6808 2.31749 16.1908 2.85749 16.2658L4.49249 16.4908C4.85249 16.5433 5.35499 16.3783 5.60999 16.1158L6.22499 15.5008C6.37499 15.3583 6.37499 15.1183 6.22499 14.9683L4.76999 13.5133C4.55249 13.2958 4.55249 12.9358 4.76999 12.7183C4.98749 12.5008 5.34749 12.5008 5.56499 12.7183L7.02749 14.1808C7.16999 14.3233 7.40999 14.3233 7.55249 14.1808L9.14249 12.5983C11.085 13.2058 13.2975 12.7333 14.8425 11.1958C17.055 8.98328 17.055 5.37578 14.8425 3.16328ZM10.875 8.99828C9.83999 8.99828 8.99999 8.15828 8.99999 7.12328C8.99999 6.08828 9.83999 5.24828 10.875 5.24828C11.91 5.24828 12.75 6.08828 12.75 7.12328C12.75 8.15828 11.91 8.99828 10.875 8.99828Z" fill="white"/>
</svg>
