<svg width="18" height="18" viewBox="0 0 18 18" fill="none" xmlns="http://www.w3.org/2000/svg">
<path d="M7.2 8.99844C7.2 8.00432 8.00589 7.19844 9 7.19844C9.99411 7.19844 10.8 8.00432 10.8 8.99844C10.8 9.99255 9.99411 10.7984 9 10.7984C8.00589 10.7984 7.2 9.99255 7.2 8.99844Z" fill="#5068EE"/>
<path fill-rule="evenodd" clip-rule="evenodd" d="M0 4.19844C0 3.20433 0.805887 2.39844 1.8 2.39844H16.2C17.1941 2.39844 18 3.20432 18 4.19844V13.7984C18 14.7925 17.1941 15.5984 16.2 15.5984H1.8C0.805888 15.5984 0 14.7926 0 13.7984V4.19844ZM4.8 4.79844H2.4V7.19844H3.6V5.99844H4.8V4.79844ZM14.4 5.99844H13.2V4.79844H15.6V7.19844H14.4V5.99844ZM9 5.99844C7.34315 5.99844 6 7.34158 6 8.99844C6 10.6553 7.34315 11.9984 9 11.9984C10.6569 11.9984 12 10.6553 12 8.99844C12 7.34158 10.6569 5.99844 9 5.99844ZM13.2 11.9984V13.1984H15.6V10.7984H14.4V11.9984H13.2ZM2.4 10.7984H3.6V11.9984H4.8V13.1984H2.4V10.7984Z" fill="#5068EE"/>
</svg>
