<svg width="18" height="18" viewBox="0 0 18 18" fill="none" xmlns="http://www.w3.org/2000/svg">
<path fill-rule="evenodd" clip-rule="evenodd" d="M5.25 6C4.45435 6 3.69129 6.31607 3.12868 6.87868C2.56607 7.44129 2.25 8.20435 2.25 9C2.25 9.79565 2.56607 10.5587 3.12868 11.1213C3.69129 11.6839 4.45435 12 5.25 12H6.75C7.16421 12 7.5 12.3358 7.5 12.75C7.5 13.1642 7.16421 13.5 6.75 13.5H5.25C4.05653 13.5 2.91193 13.0259 2.06802 12.182C1.22411 11.3381 0.75 10.1935 0.75 9C0.75 7.80653 1.22411 6.66193 2.06802 5.81802C2.91193 4.97411 4.05653 4.5 5.25 4.5H6.75C7.16421 4.5 7.5 4.83579 7.5 5.25C7.5 5.66421 7.16421 6 6.75 6H5.25ZM10.5 5.25C10.5 4.83579 10.8358 4.5 11.25 4.5H12.75C13.9435 4.5 15.0881 4.97411 15.932 5.81802C16.7759 6.66193 17.25 7.80653 17.25 9C17.25 10.1935 16.7759 11.3381 15.932 12.182C15.0881 13.0259 13.9435 13.5 12.75 13.5H11.25C10.8358 13.5 10.5 13.1642 10.5 12.75C10.5 12.3358 10.8358 12 11.25 12H12.75C13.5456 12 14.3087 11.6839 14.8713 11.1213C15.4339 10.5587 15.75 9.79565 15.75 9C15.75 8.20435 15.4339 7.44129 14.8713 6.87868C14.3087 6.31607 13.5456 6 12.75 6H11.25C10.8358 6 10.5 5.66421 10.5 5.25Z" fill="#5068EE"/>
<path fill-rule="evenodd" clip-rule="evenodd" d="M5.25 9C5.25 8.58579 5.58579 8.25 6 8.25H12C12.4142 8.25 12.75 8.58579 12.75 9C12.75 9.41421 12.4142 9.75 12 9.75H6C5.58579 9.75 5.25 9.41421 5.25 9Z" fill="#5068EE"/>
</svg>
