<?xml version="1.0" encoding="UTF-8" standalone="no"?>
<svg
   width="14"
   height="14"
   viewBox="0 0 14 14"
   fill="none"
   version="1.1"
   id="svg2"
   sodipodi:docname="search.svg"
   inkscape:version="1.3.2 (091e20e, 2023-11-25, custom)"
   xmlns:inkscape="http://www.inkscape.org/namespaces/inkscape"
   xmlns:sodipodi="http://sodipodi.sourceforge.net/DTD/sodipodi-0.dtd"
   xmlns="http://www.w3.org/2000/svg"
   xmlns:svg="http://www.w3.org/2000/svg">
  <defs
     id="defs2" />
  <sodipodi:namedview
     id="namedview2"
     pagecolor="#ffffff"
     bordercolor="#cccccc"
     borderopacity="1"
     inkscape:showpageshadow="0"
     inkscape:pageopacity="1"
     inkscape:pagecheckerboard="0"
     inkscape:deskcolor="#d1d1d1"
     inkscape:zoom="84.357143"
     inkscape:cx="6.9940728"
     inkscape:cy="7"
     inkscape:window-width="3440"
     inkscape:window-height="1377"
     inkscape:window-x="-8"
     inkscape:window-y="-8"
     inkscape:window-maximized="1"
     inkscape:current-layer="svg2" />
  <path
     style="color:#000000;fill:#bab7b9;stroke-linecap:round;stroke-linejoin:round;-inkscape-stroke:none"
     d="m 6.2285156,1.3359375 c -3.2472879,0 -5.89648435,2.6491964 -5.89648435,5.8964844 0,3.2472621 2.64919115,5.8945311 5.89648435,5.8945311 3.2473018,0 5.8945314,-2.647269 5.8945314,-5.8945311 0,-3.247288 -2.6472349,-5.8964844 -5.8945314,-5.8964844 z m 0,1.5 c 2.4366378,0 4.3945314,1.959858 4.3945314,4.3964844 0,2.4365921 -1.9578988,4.3945311 -4.3945314,4.3945311 -2.4366211,0 -4.3964844,-1.957939 -4.3964844,-4.3945311 0,-2.4366264 1.959858,-4.3964844 4.3964844,-4.3964844 z"
     id="path1" />
  <path
     style="color:#000000;fill:#bab7b9;stroke-linecap:round;stroke-linejoin:round;-inkscape-stroke:none"
     d="m 10.832031,11.085938 a 0.75,0.75 0 0 0 -0.53125,0.21875 0.75,0.75 0 0 0 0,1.0625 l 1.083985,1.082031 a 0.75,0.75 0 0 0 1.060547,0 0.75,0.75 0 0 0 0,-1.060547 l -1.082032,-1.083984 a 0.75,0.75 0 0 0 -0.53125,-0.21875 z"
     id="path2" />
</svg>
