<svg width="16" height="16" viewBox="0 0 16 16" fill="none" xmlns="http://www.w3.org/2000/svg">
<path d="M10.8327 15.0013C11.477 15.0013 11.9993 14.479 11.9993 13.8346C11.9993 13.1903 11.477 12.668 10.8327 12.668C10.1884 12.668 9.66602 13.1903 9.66602 13.8346C9.66602 14.479 10.1884 15.0013 10.8327 15.0013Z" fill="#60595E"/>
<path d="M5.50065 15.0013C6.14498 15.0013 6.66732 14.479 6.66732 13.8346C6.66732 13.1903 6.14498 12.668 5.50065 12.668C4.85632 12.668 4.33398 13.1903 4.33398 13.8346C4.33398 14.479 4.85632 15.0013 5.50065 15.0013Z" fill="#60595E"/>
<path d="M3.22732 2.62536L3.09398 4.2587C3.06732 4.57203 3.31398 4.83203 3.62732 4.83203H13.834C14.114 4.83203 14.3473 4.6187 14.3673 4.3387C14.454 3.1587 13.554 2.1987 12.374 2.1987H4.18065C4.11398 1.90536 3.98065 1.62536 3.77398 1.39203C3.44065 1.0387 2.97398 0.832031 2.49398 0.832031H1.33398C1.06065 0.832031 0.833984 1.0587 0.833984 1.33203C0.833984 1.60536 1.06065 1.83203 1.33398 1.83203H2.49398C2.70065 1.83203 2.89398 1.9187 3.03398 2.06536C3.17398 2.2187 3.24065 2.4187 3.22732 2.62536Z" fill="#60595E"/>
<path d="M13.6727 5.83203H3.44605C3.16605 5.83203 2.93938 6.04536 2.91272 6.3187L2.67272 9.2187C2.57938 10.3587 3.47272 11.332 4.61272 11.332H12.0261C13.0261 11.332 13.9061 10.512 13.9794 9.51203L14.1994 6.3987C14.2261 6.09203 13.9861 5.83203 13.6727 5.83203Z" fill="#60595E"/>
</svg>
