<svg width="13" height="13" viewBox="0 0 13 13" fill="none" xmlns="http://www.w3.org/2000/svg">
<path d="M7.13408 1.30101C7.01876 1.05532 6.77181 0.898438 6.50041 0.898438C6.229 0.898438 5.98206 1.05532 5.86674 1.30101L4.51121 4.18892L1.49475 4.64949C1.23538 4.6891 1.01993 4.87042 0.936627 5.11923C0.853322 5.36803 0.91615 5.64253 1.09938 5.83033L3.30265 8.08846L2.78102 11.2857C2.73786 11.5503 2.84958 11.8163 3.06872 11.9707C3.28787 12.1251 3.57594 12.1408 3.81055 12.0111L6.50041 10.5241L9.19027 12.0111C9.42488 12.1408 9.71295 12.1251 9.93209 11.9707C10.1512 11.8163 10.263 11.5503 10.2198 11.2857L9.69816 8.08846L11.9014 5.83033C12.0847 5.64253 12.1475 5.36803 12.0642 5.11923C11.9809 4.87042 11.7654 4.6891 11.5061 4.64949L8.48961 4.18892L7.13408 1.30101Z" fill="#5068EE"/>
</svg>
