<?xml version="1.0" encoding="UTF-8" standalone="no"?>
<svg
   width="13"
   height="13"
   viewBox="0 0 13 13"
   fill="none"
   version="1.1"
   id="svg1"
   sodipodi:docname="star.svg"
   inkscape:version="1.3.2 (091e20e, 2023-11-25, custom)"
   xmlns:inkscape="http://www.inkscape.org/namespaces/inkscape"
   xmlns:sodipodi="http://sodipodi.sourceforge.net/DTD/sodipodi-0.dtd"
   xmlns="http://www.w3.org/2000/svg"
   xmlns:svg="http://www.w3.org/2000/svg">
  <defs
     id="defs1" />
  <sodipodi:namedview
     id="namedview1"
     pagecolor="#ffffff"
     bordercolor="#cccccc"
     borderopacity="1"
     inkscape:showpageshadow="0"
     inkscape:pageopacity="1"
     inkscape:pagecheckerboard="0"
     inkscape:deskcolor="#d1d1d1"
     inkscape:zoom="90.846154"
     inkscape:cx="6.4944962"
     inkscape:cy="6.5"
     inkscape:window-width="3440"
     inkscape:window-height="1377"
     inkscape:window-x="-8"
     inkscape:window-y="-8"
     inkscape:window-maximized="1"
     inkscape:current-layer="svg1" />
  <path
     style="color:#000000;fill:#5068ee;stroke-linecap:round;stroke-linejoin:round;-inkscape-stroke:none"
     d="m 6.5,0.3984375 c -0.4640848,0 -0.8887502,0.26934425 -1.0859375,0.6894531 L 4.171875,3.734375 1.4199219,4.1542969 C 0.97629494,4.2220459 0.60537718,4.5353576 0.46289063,4.9609375 0.32039894,5.3865054 0.42878288,5.8584662 0.7421875,6.1796875 l 2.0253906,2.078125 -0.4804687,2.9472655 c -0.073801,0.452453 0.119376,0.909779 0.4941406,1.173828 0.3747511,0.264027 0.8702536,0.292126 1.2714844,0.07031 L 6.5,11.095703 8.9492188,12.449219 c 0.4012307,0.221813 0.8967355,0.193725 1.2714842,-0.07031 0.374679,-0.264024 0.566079,-0.721243 0.492188,-1.173828 L 10.232422,8.2578125 12.259766,6.1796875 C 12.5733,5.8584559 12.681534,5.3864703 12.539063,4.9609375 12.39656,4.5352961 12.025614,4.2220574 11.582031,4.1542969 L 8.828125,3.734375 7.5859375,1.0878906 C 7.3887454,0.66777168 6.9640819,0.3984375 6.5,0.3984375 Z m 0,1 c 0.078717,0 0.1481929,0.043974 0.1816406,0.1152344 l 1.3554688,2.8886718 a 0.50005,0.50005 0 0 0 0.3769531,0.28125 l 3.0156255,0.4609375 c 0.07502,0.011459 0.136058,0.060834 0.160156,0.1328125 0.02413,0.072067 0.0062,0.148757 -0.04687,0.203125 L 9.3398438,7.7402344 A 0.50005,0.50005 0 0 0 9.2050781,8.1699219 l 0.5214844,3.1972661 c 0.012508,0.07661 -0.018491,0.150537 -0.082031,0.195312 -0.063531,0.04476 -0.1449019,0.04931 -0.2128907,0.01172 L 6.7421875,10.085938 a 0.50005,0.50005 0 0 0 -0.484375,0 l -2.6894531,1.488281 c -0.067989,0.03759 -0.147389,0.03305 -0.2109375,-0.01172 -0.063515,-0.04475 -0.09455,-0.120519 -0.082031,-0.197266 L 3.796875,8.1699219 A 0.50005,0.50005 0 0 0 3.6601563,7.7402344 L 1.4570312,5.4804687 C 1.4039762,5.4260905 1.3860381,5.3493754 1.4101562,5.2773437 1.4342755,5.2053041 1.4952,5.1560022 1.5703125,5.1445312 l 3.015625,-0.4609375 a 0.50005,0.50005 0 0 0 0.3769531,-0.28125 L 6.3203125,1.5136719 C 6.3537649,1.4424012 6.4212654,1.3984375 6.5,1.3984375 Z"
     id="path1" />
</svg>
