<svg width="16" height="16" viewBox="0 0 16 16" fill="none" xmlns="http://www.w3.org/2000/svg">
<path d="M6.00065 1.33203C4.25398 1.33203 2.83398 2.75203 2.83398 4.4987C2.83398 6.21203 4.17398 7.5987 5.92065 7.6587C5.97398 7.65203 6.02732 7.65203 6.06732 7.6587C6.08065 7.6587 6.08732 7.6587 6.10065 7.6587C6.10732 7.6587 6.10732 7.6587 6.11398 7.6587C7.82065 7.5987 9.16065 6.21203 9.16732 4.4987C9.16732 2.75203 7.74732 1.33203 6.00065 1.33203Z" fill="#60595E"/>
<path d="M9.38664 9.43391C7.52664 8.19391 4.49331 8.19391 2.61997 9.43391C1.77331 10.0006 1.30664 10.7672 1.30664 11.5872C1.30664 12.4072 1.77331 13.1672 2.61331 13.7272C3.54664 14.3539 4.77331 14.6672 5.99997 14.6672C7.22664 14.6672 8.45331 14.3539 9.38664 13.7272C10.2266 13.1606 10.6933 12.4006 10.6933 11.5739C10.6866 10.7539 10.2266 9.99391 9.38664 9.43391Z" fill="#60595E"/>
<path d="M13.3263 4.8921C13.4329 6.18543 12.5129 7.31876 11.2396 7.4721C11.2329 7.4721 11.2329 7.4721 11.2263 7.4721H11.2062C11.1662 7.4721 11.1262 7.4721 11.0929 7.48543C10.4462 7.51876 9.85292 7.3121 9.40625 6.9321C10.0929 6.31876 10.4863 5.39876 10.4062 4.39876C10.3596 3.85876 10.1729 3.36543 9.89292 2.94543C10.1463 2.81876 10.4396 2.73876 10.7396 2.7121C12.0463 2.59876 13.2129 3.5721 13.3263 4.8921Z" fill="#60595E"/>
<path d="M14.6595 11.059C14.6062 11.7056 14.1928 12.2656 13.4995 12.6456C12.8328 13.0123 11.9928 13.1856 11.1595 13.1656C11.6395 12.7323 11.9195 12.1923 11.9728 11.619C12.0395 10.7923 11.6462 9.99896 10.8595 9.36563C10.4128 9.0123 9.89284 8.7323 9.32617 8.52563C10.7995 8.09896 12.6528 8.38563 13.7928 9.30563C14.4062 9.79896 14.7195 10.419 14.6595 11.059Z" fill="#60595E"/>
</svg>
