<svg width="17" height="18" viewBox="0 0 17 18" fill="none" xmlns="http://www.w3.org/2000/svg">
<path d="M8.49935 1.91797C6.64352 1.91797 5.13477 3.42672 5.13477 5.28255C5.13477 7.10297 6.55852 8.5763 8.41435 8.64005C8.47102 8.63297 8.52768 8.63297 8.57018 8.64005C8.58435 8.64005 8.59143 8.64005 8.6056 8.64005C8.61268 8.64005 8.61268 8.64005 8.61977 8.64005C10.4331 8.5763 11.8568 7.10297 11.8639 5.28255C11.8639 3.42672 10.3552 1.91797 8.49935 1.91797Z" fill="white"/>
<path d="M12.0987 10.5233C10.1224 9.20578 6.89951 9.20578 4.90909 10.5233C4.00951 11.1254 3.51367 11.9399 3.51367 12.8112C3.51367 13.6824 4.00951 14.4899 4.90201 15.0849C5.89367 15.7508 7.19701 16.0837 8.50034 16.0837C9.80367 16.0837 11.107 15.7508 12.0987 15.0849C12.9912 14.4829 13.487 13.6754 13.487 12.797C13.4799 11.9258 12.9912 11.1183 12.0987 10.5233Z" fill="white"/>
</svg>
