<svg width="16" height="16" viewBox="0 0 16 16" fill="none" xmlns="http://www.w3.org/2000/svg">
<path d="M14.331 10.8781C14.1617 12.7624 12.7996 13.9974 10.8236 13.9974H4.472C2.52419 13.9974 0.943359 12.4166 0.943359 10.4688V5.52865C0.943359 3.60906 2.10076 2.26818 3.90036 2.04234C4.08385 2.01411 4.2744 2 4.472 2H10.8236C11.0071 2 11.1835 2.00706 11.3529 2.03529C13.0396 2.23289 14.1828 3.41146 14.331 5.11932C14.3522 5.32398 14.1828 5.49336 13.9782 5.49336H12.8843C12.2068 5.49336 11.5787 5.75448 11.127 6.22026C10.5907 6.7425 10.3225 7.47646 10.386 8.21042C10.4989 9.49484 11.6281 10.504 12.969 10.504H13.9782C14.1828 10.504 14.3522 10.6734 14.331 10.8781Z" fill="#60595E"/>
<path d="M15.0573 7.27453V8.72833C15.0573 9.11648 14.7468 9.43406 14.3515 9.44818H12.9683C12.2061 9.44818 11.5075 8.89065 11.4439 8.12846C11.4016 7.68385 11.571 7.26747 11.8674 6.97813C12.1285 6.70995 12.4884 6.55469 12.8836 6.55469H14.3515C14.7468 6.5688 15.0573 6.88638 15.0573 7.27453Z" fill="#60595E"/>
</svg>
