<svg width="111" height="31" viewBox="0 0 111 31" fill="none" xmlns="http://www.w3.org/2000/svg">
<g id="mercado-pago-logo-vector-2023 1">
<path id="Vector" d="M23.2813 3.15491C13.2767 3.15491 5.16162 8.35123 5.16162 14.7454C5.16162 21.1396 13.2767 26.842 23.2813 26.842C33.2859 26.842 41.4009 21.1564 41.4009 14.7454C41.4009 8.33435 33.2859 3.15491 23.2813 3.15491Z" fill="#BDBDBD"/>
<path id="Vector_2" d="M17.3762 11.1686C17.3594 11.1855 17.1907 11.3711 17.3088 11.5229C17.5956 11.8772 18.456 12.0797 19.3333 11.8941C19.8563 11.776 20.5143 11.253 21.1723 10.73C21.8808 10.1732 22.5726 9.61648 23.2643 9.39716C24.0066 9.16096 24.479 9.26219 24.7996 9.36341C25.137 9.46464 25.5419 9.70083 26.1999 10.1732C27.4146 11.0843 32.2904 15.3527 33.1508 16.0781C33.8256 15.7745 37.0649 14.4585 41.1646 13.5643C40.8103 11.3711 39.4943 9.29593 37.4698 7.65942C34.6523 8.84041 30.9913 9.549 27.617 7.91249C27.6002 7.91249 25.7781 7.05206 23.9897 7.08581C21.3241 7.15329 20.16 8.30053 18.9453 9.53213L17.3762 11.1686Z" fill="white"/>
<path id="Vector_3" d="M32.9316 16.5337C32.881 16.4831 27.1954 11.5061 25.8963 10.5444C25.154 9.98767 24.7322 9.83583 24.2935 9.78521C24.0742 9.75147 23.7537 9.80208 23.5343 9.8527C22.927 10.0214 22.1509 10.5444 21.4592 11.0843C20.7337 11.6579 20.0589 12.1978 19.4346 12.3328C18.6248 12.5183 17.6463 12.299 17.1908 11.9953C17.0052 11.8772 16.8871 11.7254 16.8196 11.5904C16.6509 11.2024 16.9546 10.8987 17.0052 10.8481L18.5742 9.14411C18.7598 8.95853 18.9454 8.77294 19.131 8.60423C18.6248 8.67172 18.1524 8.80668 17.6969 8.92478C17.1233 9.07662 16.5834 9.22847 16.0267 9.22847C15.7905 9.22847 14.5589 9.02601 14.3227 8.95853C12.9055 8.57049 11.2859 8.19932 9.43004 7.32202C7.20305 8.9754 5.75213 11.0168 5.31348 13.3113C5.63403 13.3956 6.47759 13.5812 6.69691 13.6318C11.7414 14.7622 13.3104 15.9094 13.5972 16.1456C13.9009 15.8082 14.3564 15.5889 14.8457 15.5889C15.4024 15.5889 15.9086 15.8757 16.2122 16.2975C16.4991 16.0613 16.904 15.8757 17.4101 15.8757C17.6463 15.8757 17.8825 15.9263 18.1356 15.9938C18.7092 16.1963 18.996 16.5674 19.1478 16.9048C19.3334 16.8205 19.5696 16.753 19.8564 16.753C20.1264 16.753 20.4132 16.8205 20.7 16.9386C21.6279 17.3435 21.7797 18.2545 21.6954 18.9463C21.7629 18.9463 21.8303 18.9294 21.8978 18.9294C22.9945 18.9294 23.9055 19.8236 23.9055 20.9371C23.9055 21.2745 23.8211 21.595 23.6693 21.8818C23.973 22.0506 24.7322 22.4386 25.407 22.3542C25.9469 22.2867 26.1494 22.1012 26.2169 21.9999C26.2675 21.9325 26.3181 21.8481 26.2675 21.7806L24.8503 20.1947C24.8503 20.1947 24.6141 19.9754 24.6984 19.891C24.7828 19.8067 24.9178 19.9248 25.019 20.0091C25.7445 20.6165 26.6218 21.5275 26.6218 21.5275C26.6386 21.5444 26.6892 21.6456 27.0267 21.7131C27.3135 21.7637 27.8027 21.73 28.157 21.4432C28.2414 21.3757 28.3257 21.2745 28.4101 21.1901L28.3932 21.207C28.7644 20.7346 28.3595 20.2622 28.3595 20.2622L26.6892 18.3895C26.6892 18.3895 26.453 18.1702 26.5374 18.0858C26.6049 18.0015 26.7567 18.1196 26.8748 18.2039C27.3978 18.6426 28.1402 19.3849 28.8656 20.0935C29.0006 20.1947 29.6248 20.5828 30.4684 20.0429C30.9745 19.7055 31.0757 19.3006 31.0589 18.9969C31.0251 18.592 30.7046 18.3052 30.7046 18.3052L28.427 16.0275C28.427 16.0275 28.1908 15.8251 28.2751 15.7239C28.3426 15.6395 28.4945 15.7576 28.5957 15.842C29.3211 16.4493 31.2782 18.2377 31.2782 18.2377C31.3119 18.2545 31.9868 18.7438 32.8135 18.2039C33.1172 18.0183 33.3027 17.7315 33.3196 17.3941C33.3365 16.8711 32.9316 16.5337 32.9316 16.5337Z" fill="white"/>
<path id="Vector_4" d="M21.9146 19.4186C21.5603 19.4186 21.1722 19.6211 21.1216 19.5874C21.0879 19.5705 21.1385 19.4355 21.1722 19.3512C21.206 19.2668 21.6615 17.8834 20.548 17.3941C19.6876 17.0229 19.1477 17.4447 18.979 17.6303C18.9284 17.6809 18.9115 17.6809 18.9115 17.6134C18.8946 17.3604 18.7765 16.6855 18.0342 16.4493C16.9713 16.1288 16.2796 16.8711 16.1109 17.141C16.0265 16.5337 15.5204 16.0613 14.8962 16.0613C14.2045 16.0613 13.6646 16.618 13.6477 17.2929C13.6477 17.9846 14.2045 18.5245 14.8793 18.5245C15.2167 18.5245 15.5204 18.3895 15.7397 18.187C15.7397 18.187 15.7566 18.2039 15.7397 18.2208C15.6891 18.5245 15.5879 19.638 16.752 20.0935C17.2244 20.2791 17.6124 20.1441 17.9499 19.9079C18.0511 19.8404 18.0679 19.8742 18.0511 19.9585C18.0005 20.2453 18.0679 20.8527 18.9284 21.207C19.5864 21.4769 19.9744 21.207 20.2275 20.9708C20.3456 20.8696 20.3624 20.8864 20.3793 21.0383C20.413 21.865 21.1048 22.5229 21.9314 22.5229C22.7919 22.5229 23.4836 21.8312 23.4836 20.9708C23.4667 20.1272 22.775 19.4355 21.9146 19.4186Z" fill="white"/>
<path id="Vector_5" d="M23.2813 2.6825C13.0911 2.6825 4.82422 8.09814 4.82422 14.7623C4.82422 14.931 4.82422 15.4034 4.82422 15.4708C4.82422 22.523 12.0451 28.2423 23.2813 28.2423C34.5175 28.2423 41.7383 22.523 41.7383 15.4708V14.7623C41.7383 8.09814 33.4715 2.6825 23.2813 2.6825ZM40.8948 13.4126C36.8794 14.3067 33.8932 15.6058 33.134 15.9264C31.3794 14.3911 27.3304 10.8819 26.2337 10.0552C25.6095 9.5828 25.1877 9.32974 24.7997 9.22851C24.631 9.1779 24.3948 9.12728 24.0911 9.12728C23.8043 9.12728 23.5175 9.1779 23.1969 9.27912C22.4883 9.49845 21.7797 10.0721 21.1049 10.6119V10.6288C20.4638 11.135 19.8058 11.658 19.3166 11.7761C19.0972 11.8267 18.8779 11.8435 18.6586 11.8435C18.1018 11.8435 17.5957 11.6748 17.4101 11.4386C17.3764 11.4049 17.3932 11.3374 17.4776 11.2362L17.4945 11.2193L19.0297 9.56593C20.2445 8.35121 21.3748 7.22084 24.0067 7.15335C24.0573 7.15335 24.0911 7.15335 24.1417 7.15335C25.7782 7.15335 27.4147 7.87882 27.5834 7.96317C29.1187 8.7055 30.6877 9.09354 32.2905 9.09354C33.9439 9.09354 35.6478 8.68863 37.4362 7.86195C39.2751 9.44783 40.5236 11.3543 40.8948 13.4126ZM23.2813 3.39109C28.6969 3.39109 33.5389 4.94323 36.7951 7.38955C35.2261 8.0644 33.7245 8.41869 32.2736 8.41869C30.7889 8.41869 29.3043 8.0644 27.8702 7.35581C27.8027 7.32207 25.9975 6.46164 24.108 6.46164C24.0573 6.46164 24.0067 6.46164 23.9561 6.46164C21.746 6.51225 20.5144 7.28832 19.6708 7.98004C18.861 7.99691 18.1524 8.19937 17.5282 8.36808C16.9715 8.51992 16.4991 8.65489 16.0267 8.65489C15.8411 8.65489 15.4868 8.63802 15.4531 8.63802C14.9132 8.62115 12.2138 7.96317 10.0543 7.15335C13.3273 4.842 18.0343 3.39109 23.2813 3.39109ZM9.44692 7.62575C11.6908 8.55366 14.4239 9.26225 15.3012 9.31287C15.5374 9.32974 15.7905 9.36348 16.0604 9.36348C16.634 9.36348 17.2077 9.19477 17.7644 9.04293C18.085 8.95857 18.4561 8.85734 18.8273 8.77299C18.7261 8.87421 18.6248 8.97544 18.5236 9.07667L16.9546 10.7638C16.8365 10.8819 16.5666 11.2193 16.7353 11.6242C16.8027 11.7929 16.9546 11.9448 17.1402 12.0797C17.5113 12.3328 18.1862 12.5015 18.7935 12.5015C19.0297 12.5015 19.2491 12.4846 19.4515 12.434C20.1095 12.2822 20.8012 11.7423 21.5267 11.1518C22.1003 10.6963 22.927 10.1058 23.5681 9.9371C23.7537 9.88648 23.9561 9.85274 24.1417 9.85274C24.1923 9.85274 24.2429 9.85274 24.2935 9.86961C24.7153 9.92023 25.1202 10.0721 25.8288 10.6119C27.111 11.5736 32.7966 16.5506 32.8472 16.6012C32.8472 16.6012 33.2184 16.9218 33.1847 17.4448C33.1678 17.7316 33.0159 17.9846 32.7291 18.1702C32.4929 18.3221 32.2399 18.4064 31.9868 18.4064C31.5988 18.4064 31.3457 18.2208 31.3288 18.2208C31.312 18.204 29.3549 16.4156 28.6463 15.8083C28.5282 15.707 28.427 15.6227 28.3089 15.6227C28.2414 15.6227 28.1908 15.6564 28.157 15.6902C28.0389 15.8251 28.1739 16.0276 28.3258 16.1457L30.6034 18.4402C30.6034 18.4402 30.8902 18.7101 30.9239 19.0644C30.9408 19.4356 30.7552 19.7561 30.384 20.0092C30.1141 20.1948 29.8442 20.2791 29.5742 20.2791C29.2199 20.2791 28.9837 20.1273 28.9331 20.0767L28.6126 19.7561C28.0221 19.1656 27.3978 18.5583 26.9423 18.1871C26.8242 18.1027 26.723 18.0184 26.6049 18.0184C26.5543 18.0184 26.5037 18.0353 26.4531 18.0859C26.4024 18.1365 26.3687 18.2377 26.4868 18.4233C26.5374 18.4908 26.6049 18.5583 26.6049 18.5583L28.2583 20.431C28.2751 20.4478 28.5957 20.8359 28.292 21.2239L28.2245 21.2914C28.1739 21.342 28.1233 21.3926 28.0727 21.4432C27.7859 21.6794 27.4147 21.6963 27.2629 21.6963C27.1785 21.6963 27.111 21.6963 27.0435 21.6794C26.8748 21.6457 26.7736 21.6119 26.723 21.5445L26.7061 21.5276C26.6218 21.4264 25.7782 20.5828 25.0865 20.0092C25.0021 19.9248 24.884 19.8405 24.7659 19.8405C24.7153 19.8405 24.6647 19.8573 24.6141 19.908C24.4791 20.0598 24.6816 20.2791 24.7659 20.3635L26.1831 21.9325C26.1831 21.9494 26.1662 21.9831 26.1325 22.0337C26.0819 22.1012 25.9132 22.2699 25.3902 22.3374C25.3227 22.3374 25.2721 22.3543 25.2046 22.3543C24.6816 22.3543 24.108 22.1012 23.8212 21.9494C23.9561 21.6626 24.0236 21.3589 24.0236 21.0552C24.0236 19.8911 23.0788 18.9463 21.9147 18.9463C21.8978 18.9463 21.8641 18.9463 21.8472 18.9463C21.881 18.4064 21.8135 17.411 20.7675 16.9555C20.4638 16.8205 20.177 16.753 19.8902 16.753C19.6708 16.753 19.4515 16.7868 19.2491 16.8711C19.0297 16.4494 18.6754 16.1457 18.2199 15.9938C17.9669 15.9095 17.7138 15.8589 17.4607 15.8589C17.0221 15.8589 16.634 15.9938 16.2797 16.23C15.9423 15.8083 15.4362 15.5552 14.8963 15.5552C14.4239 15.5552 13.9684 15.7408 13.631 16.0782C13.1923 15.7408 11.4377 14.6273 6.7644 13.5644C6.54508 13.5138 6.03894 13.3619 5.71839 13.2776C6.1233 11.135 7.45612 9.21164 9.44692 7.62575ZM18.1187 19.8236L18.0681 19.773H18.0175C17.9837 19.773 17.9331 19.7899 17.8825 19.8236C17.6463 19.9923 17.4101 20.0767 17.1908 20.0767C17.0558 20.0767 16.9377 20.0429 16.8027 20.0092C15.723 19.5874 15.8073 18.5583 15.858 18.2546C15.858 18.1871 15.858 18.1365 15.8073 18.1027L15.723 18.0353L15.6555 18.1027C15.4362 18.3052 15.1662 18.4233 14.8794 18.4233C14.2552 18.4233 13.7491 17.9172 13.7491 17.2929C13.7491 16.6687 14.2552 16.1626 14.8794 16.1626C15.4362 16.1626 15.9254 16.5843 15.9929 17.1411L16.0267 17.4448L16.1954 17.1917C16.2123 17.158 16.6678 16.4662 17.5113 16.4662C17.6632 16.4662 17.8319 16.5 18.0006 16.5506C18.6754 16.753 18.7767 17.3604 18.7935 17.6135C18.8104 17.7653 18.9116 17.7653 18.9285 17.7653C18.9791 17.7653 19.0297 17.7316 19.0635 17.6978C19.1816 17.5629 19.4684 17.3435 19.8902 17.3435C20.0926 17.3435 20.2951 17.3942 20.5144 17.4785C21.5773 17.934 21.088 19.2837 21.088 19.3006C21.0037 19.5199 20.9868 19.6211 21.0712 19.6718L21.1049 19.6886H21.1386C21.1892 19.6886 21.2399 19.6718 21.3411 19.638C21.4929 19.5874 21.6954 19.5199 21.9147 19.5199C22.7077 19.5368 23.3656 20.1779 23.3656 20.9708C23.3656 21.7638 22.7077 22.4218 21.9147 22.4218C21.1386 22.4218 20.4975 21.8144 20.4638 21.0383C20.4638 20.9708 20.4469 20.8021 20.3119 20.8021C20.2445 20.8021 20.1939 20.8359 20.1432 20.8865C19.9745 21.0383 19.7552 21.207 19.4346 21.207C19.2828 21.207 19.131 21.1733 18.9623 21.1058C18.1356 20.7684 18.1187 20.2116 18.1524 19.9754C18.1524 19.9248 18.1693 19.8742 18.1187 19.8236ZM23.2813 26.0997C13.4791 26.0997 5.53281 21.0215 5.53281 14.7454C5.53281 14.4923 5.54968 14.2392 5.58342 13.9862C5.66778 14.003 6.44385 14.1886 6.59569 14.2224C11.3702 15.2853 12.9561 16.3819 13.2261 16.6012C13.1417 16.8205 13.0911 17.0567 13.0911 17.2929C13.0911 18.2883 13.9009 19.0813 14.8794 19.0813C14.9975 19.0813 15.0988 19.0644 15.2169 19.0475C15.3687 19.773 15.8411 20.3297 16.5666 20.6165C16.7859 20.7009 16.9883 20.7346 17.2077 20.7346C17.3426 20.7346 17.4776 20.7178 17.6126 20.684C17.7475 21.0215 18.0512 21.4432 18.7261 21.73C18.9623 21.8313 19.1985 21.8819 19.4346 21.8819C19.6202 21.8819 19.8058 21.8481 19.9745 21.7807C20.2951 22.5736 21.0712 23.0966 21.9316 23.0966C22.5052 23.0966 23.0451 22.8604 23.45 22.4555C23.7874 22.6411 24.5129 22.9954 25.2383 22.9954C25.3396 22.9954 25.4239 22.9954 25.5083 22.9785C26.2337 22.8942 26.5712 22.6073 26.723 22.388C26.7567 22.3543 26.7736 22.3037 26.7905 22.2699C26.9592 22.3205 27.1448 22.3543 27.3641 22.3543C27.7521 22.3543 28.1402 22.2193 28.5282 21.9494C28.8994 21.6794 29.1693 21.2914 29.2031 20.954V20.9371C29.338 20.9708 29.4561 20.9708 29.5911 20.9708C29.996 20.9708 30.4009 20.8527 30.7721 20.5997C31.5144 20.1104 31.6325 19.4862 31.6325 19.0813C31.7675 19.115 31.8856 19.115 32.0205 19.115C32.4086 19.115 32.7797 18.9969 33.134 18.7776C33.5896 18.4908 33.8595 18.0353 33.9101 17.5122C33.9439 17.158 33.8426 16.8037 33.657 16.5C34.8886 15.977 37.7061 14.9478 41.0129 14.1886C41.0297 14.3742 41.0297 14.5598 41.0297 14.7623C41.0297 21.0215 33.0834 26.0997 23.2813 26.0997Z" fill="#535353"/>
<path id="Vector_6" d="M105.022 6.39409C104.347 5.55053 103.335 5.12875 101.968 5.12875C100.602 5.12875 99.5895 5.55053 98.9146 6.39409C98.2398 7.23765 97.9023 8.23305 97.9023 9.36342C97.9023 10.5107 98.2398 11.5229 98.9146 12.3496C99.5895 13.1763 100.602 13.5981 101.968 13.5981C103.335 13.5981 104.347 13.1763 105.022 12.3496C105.697 11.5229 106.034 10.5275 106.034 9.36342C106.034 8.19931 105.697 7.23765 105.022 6.39409ZM103.369 11.2192C103.048 11.6579 102.576 11.8603 101.968 11.8603C101.361 11.8603 100.889 11.641 100.568 11.2192C100.247 10.7806 100.079 10.1732 100.079 9.38029C100.079 8.58734 100.247 7.97998 100.568 7.54133C100.889 7.11955 101.361 6.90023 101.968 6.90023C102.576 6.90023 103.048 7.11955 103.369 7.54133C103.689 7.96311 103.858 8.58734 103.858 9.38029C103.858 10.1732 103.689 10.7806 103.369 11.2192ZM87.8977 5.68551C87.2229 5.34808 86.4468 5.1625 85.5695 5.1625C84.2198 5.1625 83.275 5.51679 82.7183 6.20851C82.364 6.66403 82.1784 7.23765 82.1278 7.92937H84.1355C84.1861 7.62569 84.2873 7.37262 84.4391 7.20391C84.6416 6.96771 84.9959 6.83274 85.502 6.83274C85.9407 6.83274 86.2781 6.90023 86.5143 7.01833C86.7505 7.13642 86.8517 7.37262 86.8517 7.69317C86.8517 7.96311 86.6999 8.16557 86.3962 8.28366C86.2275 8.35115 85.9575 8.41863 85.5695 8.46925L84.8609 8.5536C84.0511 8.65483 83.4437 8.82354 83.022 9.05974C82.2628 9.49839 81.8747 10.207 81.8747 11.1855C81.8747 11.9447 82.1109 12.5183 82.5833 12.9401C83.0557 13.345 83.6631 13.5306 84.3885 13.5643C88.9437 13.7668 88.8931 11.1686 88.9269 10.6288V7.64256C88.91 6.69777 88.5726 6.0398 87.8977 5.68551ZM86.8348 10.2238C86.818 10.9156 86.6155 11.4048 86.2444 11.6579C85.8563 11.9278 85.4345 12.0459 84.979 12.0459C84.6922 12.0459 84.4391 11.9616 84.2536 11.8097C84.0511 11.6579 83.9499 11.388 83.9499 11.0337C83.9499 10.6288 84.1186 10.3419 84.4391 10.1564C84.6416 10.0383 84.9453 9.95391 85.4008 9.86955L85.8732 9.7852C86.1094 9.73458 86.295 9.68397 86.4299 9.63336C86.5649 9.58274 86.6999 9.51526 86.8348 9.4309V10.2238ZM77.522 6.95084C78.045 6.95084 78.4161 7.11955 78.6692 7.44011C78.8379 7.6763 78.9391 7.94624 78.9898 8.24992H81.2336C81.1155 7.11955 80.7106 6.32661 80.0526 5.88796C79.3778 5.44931 78.5174 5.21311 77.4713 5.21311C76.2398 5.21311 75.2612 5.58428 74.5695 6.34348C73.8609 7.10268 73.5235 8.16556 73.5235 9.53213C73.5235 10.73 73.844 11.7254 74.4852 12.4846C75.1263 13.2438 76.1048 13.615 77.4545 13.615C78.8042 13.615 79.8164 13.1594 80.5082 12.2484C80.9468 11.6916 81.183 11.0843 81.2336 10.46H78.9729C78.9223 10.8818 78.8042 11.2192 78.5848 11.4892C78.3655 11.7423 78.0112 11.8772 77.4882 11.8772C76.7628 11.8772 76.2735 11.5398 76.0036 10.8818C75.8517 10.5275 75.7842 10.0551 75.7842 9.48152C75.7842 8.9079 75.8517 8.38489 76.0036 8.01372C76.2735 7.30514 76.7796 6.95084 77.522 6.95084ZM72.8993 5.19624C68.2934 5.19624 68.5634 9.27906 68.5634 9.27906V13.4294H70.6554V9.549C70.6554 8.9079 70.7398 8.4355 70.8916 8.13182C71.1784 7.59195 71.7352 7.32201 72.5787 7.32201C72.6462 7.32201 72.7306 7.32201 72.8318 7.33888C72.933 7.33888 73.0511 7.35575 73.1861 7.37262V5.24685C73.1017 5.24685 73.0342 5.22998 73.0005 5.22998C72.9667 5.19624 72.933 5.19624 72.8993 5.19624ZM66.8931 6.74839C66.5388 6.20851 66.0664 5.82047 65.5266 5.5674C64.9698 5.31434 64.3456 5.19624 63.6539 5.19624C62.4898 5.19624 61.545 5.5674 60.8195 6.29286C60.094 7.03519 59.7229 8.08121 59.7229 9.46464C59.7229 10.9324 60.1278 11.9953 60.9376 12.6533C61.7474 13.3113 62.6753 13.6318 63.7382 13.6318C65.0204 13.6318 66.0158 13.2438 66.7244 12.4677C67.1125 12.0628 67.3487 11.6579 67.4499 11.2699H65.2229C65.1385 11.388 65.0373 11.5061 64.9361 11.5904C64.6324 11.8266 64.2444 11.911 63.772 11.911C63.3333 11.911 62.979 11.8435 62.6585 11.641C62.1355 11.3205 61.8486 10.7806 61.8149 9.98765H67.6017C67.6017 9.29593 67.5848 8.77292 67.5342 8.40176C67.433 7.76065 67.2137 7.22078 66.8931 6.74839ZM61.8486 8.58734C61.9161 8.06434 62.1017 7.65943 62.4054 7.35575C62.6922 7.05207 63.114 6.90023 63.6539 6.90023C64.1431 6.90023 64.548 7.0352 64.8855 7.32201C65.2229 7.60882 65.3916 8.03059 65.4422 8.57047H61.8486V8.58734ZM55.5557 5.1625C54.5772 5.1625 53.7505 5.58428 53.1769 6.276C52.637 5.60115 51.8103 5.1625 50.798 5.1625C48.7566 5.1625 47.4407 6.66403 47.4407 8.65483V13.4125H49.3471V8.60421C49.3471 7.72691 49.9376 7.11955 50.798 7.11955C52.0634 7.11955 52.1815 8.16556 52.1815 8.60421V13.4125H54.0879V8.60421C54.0879 7.72691 54.6953 7.11955 55.5388 7.11955C56.8042 7.11955 56.9391 8.16556 56.9391 8.60421V13.4125H58.8456V8.65483C58.8793 6.61341 57.6477 5.1625 55.5557 5.1625ZM95.1861 4.15023V6.39409C94.9499 6.02293 94.6462 5.71925 94.275 5.51679C93.9039 5.31434 93.4821 5.19624 92.9928 5.19624C91.9468 5.19624 91.1201 5.58428 90.4959 6.36035C89.8717 7.13643 89.5511 8.26679 89.5511 9.61648C89.5511 10.7975 89.8717 11.7591 90.4959 12.5015C91.137 13.2438 92.3686 13.5812 93.4821 13.5812C97.3287 13.5812 97.295 10.2745 97.295 10.2745V2.68243C97.295 2.68243 95.1861 2.46311 95.1861 4.15023ZM94.7812 11.2361C94.4775 11.6748 94.022 11.8941 93.4483 11.8941C92.8747 11.8941 92.4192 11.6748 92.1324 11.2361C91.8456 10.7975 91.6937 10.1564 91.6937 9.41403C91.6937 8.73918 91.8287 8.16557 92.1155 7.71004C92.4023 7.25452 92.841 7.01833 93.4483 7.01833C93.8532 7.01833 94.1907 7.13642 94.4944 7.38949C94.9836 7.81127 95.2367 8.5536 95.2367 9.53213C95.2536 10.2238 95.0848 10.7975 94.7812 11.2361ZM51.8609 16.618C50.1401 16.5337 49.2628 16.9554 48.706 17.3772C47.9299 17.9677 47.4407 18.8619 47.4407 20.2791V27.5505H48.4529C48.7229 27.5505 48.9928 27.4493 49.1953 27.2806C49.4146 27.0781 49.5327 26.8251 49.5327 26.5214V23.7883C49.7858 24.21 50.1063 24.5306 50.5112 24.7331C50.8993 24.9186 51.3548 25.003 51.8609 25.003C52.8226 25.003 53.6155 24.615 54.2229 23.8557C54.8302 23.0628 55.1508 22.0337 55.1508 20.7683C55.1508 19.4861 54.864 18.5919 54.1554 17.7315C53.6155 17.0398 52.7551 16.6518 51.8609 16.618ZM52.5864 22.5735C52.2827 22.9953 51.8609 23.2146 51.321 23.2146C50.7474 23.2146 50.3088 23.0122 50.0051 22.5735C49.7014 22.1855 49.5496 21.6119 49.5496 20.8527C49.5496 20.026 49.6845 19.4186 49.9713 19.0306C50.275 18.6088 50.7137 18.3895 51.2704 18.3895C51.8272 18.3895 52.2827 18.6088 52.5864 19.0306C52.8901 19.4524 53.0419 20.0597 53.0419 20.8527C53.0419 21.5781 52.8901 22.1518 52.5864 22.5735ZM69.8287 17.3603C69.1201 16.8205 68.3947 16.5337 67.1462 16.5674C65.8809 16.6011 64.9529 16.9554 64.3793 17.7315C63.8057 18.5076 63.5189 19.5199 63.5189 20.7683C63.5189 21.8312 63.7382 22.7085 64.16 23.3665C64.5986 24.0245 65.1048 24.48 65.7121 24.7162C66.3195 24.9524 66.9269 25.003 67.5342 24.868C68.1416 24.733 68.6309 24.3788 69.002 23.8051V24.3113C68.9683 24.9524 68.7996 25.4416 68.5296 25.7622C68.2597 26.0827 67.956 26.2852 67.6186 26.3527C67.2812 26.4202 66.9606 26.3864 66.6232 26.2346C66.2858 26.0827 66.0496 25.8634 65.8809 25.5766H63.6707C64.2444 27.2975 65.2735 28.0567 67.1125 28.1748C70.0818 28.3941 71.0434 25.8634 71.0434 24.5137V20.2453C71.0772 18.8619 70.6048 17.9508 69.8287 17.3603ZM68.9514 21.5613C68.8671 22.0337 68.749 22.388 68.5634 22.6073C68.1753 23.1303 67.5848 23.3159 66.7919 23.164C65.9821 23.0122 65.5772 22.2361 65.5772 20.8527C65.5772 20.2116 65.6953 19.638 65.9315 19.1318C66.1677 18.6257 66.6401 18.3726 67.3149 18.3726C67.821 18.3726 68.2091 18.5582 68.4621 18.9125C68.7321 19.2837 68.8839 19.6886 68.9683 20.161C69.0358 20.6165 69.0358 21.0889 68.9514 21.5613ZM61.7305 17.1579C61.0557 16.8205 60.2796 16.6349 59.4023 16.6349C58.0526 16.6349 57.1079 16.9892 56.5511 17.6809C56.1968 18.1364 56.0112 18.71 55.9606 19.4018H57.9683C58.0189 19.0981 58.1201 18.845 58.272 18.6763C58.4744 18.4401 58.8287 18.3051 59.3348 18.3051C59.7735 18.3051 60.1109 18.3726 60.3471 18.4907C60.5833 18.6088 60.6845 18.845 60.6845 19.1656C60.6845 19.4355 60.5327 19.638 60.229 19.7561C60.0603 19.8235 59.7904 19.891 59.4023 19.9416L58.6937 20.026C57.8839 20.1272 57.2597 20.2959 56.8548 20.5321C56.0956 20.9708 55.7075 21.6794 55.7075 22.6579C55.7075 23.4171 55.9437 23.9907 56.4161 24.4125C56.8885 24.8174 57.4959 25.003 58.2213 25.0367C62.7597 25.2392 62.7091 22.641 62.7597 22.1011V19.1149C62.7597 18.1533 62.4223 17.4953 61.7305 17.1579ZM60.6677 21.6962C60.6508 22.388 60.4483 22.8772 60.0772 23.1303C59.6891 23.4002 59.2674 23.5183 58.8118 23.5183C58.525 23.5183 58.2888 23.434 58.0864 23.2821C57.8839 23.1303 57.7827 22.8603 57.7827 22.5061C57.7827 22.1011 57.9514 21.8143 58.272 21.6288C58.4744 21.5107 58.7781 21.4263 59.2336 21.3419L59.706 21.2576C59.9422 21.207 60.1278 21.1732 60.2628 21.1057C60.3977 21.0551 60.5327 20.9876 60.6677 20.9033V21.6962ZM78.9729 17.8159C78.298 16.9723 77.2858 16.5505 75.9192 16.5505C74.5526 16.5505 73.5404 16.9723 72.8655 17.8159C72.1907 18.6594 71.8532 19.6548 71.8532 20.7852C71.8532 21.9156 72.1907 22.9447 72.8655 23.7714C73.5404 24.5981 74.5526 25.003 75.9192 25.003C77.2858 25.003 78.298 24.5812 78.9729 23.7714C79.6477 22.9447 79.9852 21.9493 79.9852 20.7852C79.9852 19.6211 79.6477 18.6594 78.9729 17.8159ZM77.3195 22.6242C76.999 23.0628 76.5266 23.2653 75.9192 23.2653C75.3118 23.2653 74.8394 23.0459 74.5189 22.6242C74.1815 22.1855 74.0296 21.5781 74.0296 20.7852C74.0296 19.9923 74.1983 19.3849 74.5189 18.9462C74.8394 18.5245 75.3118 18.3051 75.9192 18.3051C76.5266 18.3051 76.999 18.5245 77.3195 18.9462C77.6401 19.368 77.8088 19.9923 77.8088 20.7852C77.8088 21.595 77.6401 22.2024 77.3195 22.6242Z" fill="#535353"/>
</g>
</svg>
