<svg width="101" height="14" viewBox="0 0 101 14" fill="none" xmlns="http://www.w3.org/2000/svg">
<g id="Group" opacity="0.5">
<g id="Layer 1">
<path id="Union" fill-rule="evenodd" clip-rule="evenodd" d="M27.895 2.60431C27.227 1.45972 26.1337 0.892071 24.7782 0.822631C22.5734 0.703461 19.6735 1.89504 16.7784 4.06437L16.7626 4.07624C16.5134 3.68079 16.2527 3.3201 15.8999 2.95767C11.7647 -1.05531 6.04248 0.637281 2.31683 4.9821C1.90041 5.44761 1.52274 5.94642 1.18762 6.47351C1.08066 6.63391 0.976287 6.79681 0.874609 6.96211C0.891244 6.94221 0.911033 6.91874 0.933925 6.89201C0.887103 6.97311 0.841256 7.05481 0.796399 7.13711C0.739233 7.24429 0.683497 7.35148 0.62919 7.45866C0.580959 7.61908 0.541188 7.78139 0.509886 7.94496C0.541697 7.77523 0.582618 7.60682 0.632638 7.44046C-0.0104742 8.74383 -0.190546 10.0322 0.218902 11.1341C1.29076 14.0452 6.0798 14.5361 10.9031 12.2295C12.2526 11.5857 13.4613 10.7872 14.4795 9.90969L14.5362 9.86193L14.5937 9.81025C14.6699 9.74316 14.745 9.67564 14.819 9.60771L15.2032 9.26249C15.8579 9.8069 16.6157 10.3266 17.5203 10.7874C21.006 12.5666 26.2088 11.752 28.331 9.08525L28.3289 9.08768C29.5816 7.51896 29.7647 5.30705 27.895 2.60431ZM8.66252 3.54591C5.38059 3.13454 2.87539 4.98285 1.6481 6.14969C1.07079 7.14681 0.62122 8.29857 0.61204 9.28081C0.616842 9.96919 0.784628 10.6459 1.1007 11.2557C1.1262 11.2963 1.1524 11.3365 1.17928 11.3763L1.19497 11.4028C1.20916 11.4269 1.22366 11.4515 1.23931 11.4749C2.62628 13.5436 7.17309 12.3881 11.3919 8.90247C11.9917 8.40876 12.5635 7.88267 13.105 7.32665C13.1357 7.29367 13.1653 7.26144 13.1938 7.23001C12.9595 6.95343 12.7376 6.6811 12.5226 6.4173C11.3321 4.95629 10.3547 3.7569 8.66252 3.54591ZM28.2345 3.67361C26.9373 2.09781 23.7197 2.88805 20.4489 5.1328L20.4528 5.13934C20.0418 5.40617 19.3371 5.95717 18.6159 6.54273C18.5521 6.59725 18.4884 6.65228 18.4249 6.7078C18.587 6.93051 18.7652 7.16552 18.9632 7.41443C19.2257 7.7015 19.5031 7.95837 19.7916 8.18608C19.5978 8.02657 19.4093 7.85353 19.2273 7.66665C22.8438 11.2247 28.8728 9.49374 28.4802 4.89306C28.4453 4.5063 28.3652 4.09934 28.2345 3.67361ZM45.6288 1.16689C45.5698 1.1428 45.5089 1.12414 45.4465 1.11116C44.9535 0.984679 43.7316 0.943947 43.3371 1.2655L43.3157 1.2848C43.2505 1.34578 43.1974 1.4185 43.1592 1.49917C42.0135 3.01978 40.9543 4.60362 39.9865 6.24319L37.0346 1.50774L37.0239 1.48416C36.9848 1.40295 36.9301 1.33013 36.8631 1.26979L36.8417 1.25264C36.4987 0.967528 35.4719 0.976104 34.9124 1.07257C34.7796 1.08653 34.6492 1.11751 34.5244 1.16475C34.416 1.21104 34.3233 1.28767 34.2575 1.38542C34.1917 1.48317 34.1556 1.59787 34.1535 1.71568V11.7075C34.1535 11.9069 34.2457 12.2563 34.8631 12.3506C35.0684 12.3783 35.2754 12.3912 35.4826 12.3892C35.9113 12.3892 36.8138 12.3892 36.8138 11.7075V5.94522C37.0068 6.24962 37.3733 6.84557 37.7785 7.59373C38.3416 8.63557 38.7196 9.31655 38.9125 9.63668L39.0261 9.85105C39.1275 10.0052 39.257 10.139 39.4077 10.2455C39.7303 10.4368 40.1141 10.4967 40.4796 10.4127C40.57 10.3884 40.6546 10.3461 40.7282 10.2884C40.8932 10.1779 41.0382 10.0402 41.157 9.88106L41.4142 9.43088C41.5386 9.21223 41.8301 8.6713 42.2889 7.8081C42.7476 6.9449 43.097 6.31536 43.3371 5.91949V7.06423V11.7139C43.3371 12.3956 44.2354 12.3956 44.6662 12.3956C45.0971 12.3956 45.9975 12.3956 45.9975 11.7139V1.71783C45.9956 1.60025 45.9597 1.48573 45.8943 1.388C45.8289 1.29028 45.7367 1.2135 45.6288 1.16689ZM48.8606 12.513C48.4319 12.513 47.5294 12.513 47.5294 11.8313V5.45166C47.5294 4.76996 48.4276 4.76996 48.8606 4.76996C49.2937 4.76996 50.1897 4.76996 50.1897 5.45166V11.8313C50.1897 12.513 49.2915 12.513 48.8606 12.513ZM53.1017 12.5117C52.673 12.5117 51.7769 12.5117 51.7769 11.83V1.83609C51.7769 1.19637 52.5129 1.1739 53.0038 1.15891L53.0117 1.15867H58.5853C58.9862 1.15867 59.4556 1.48666 59.4556 2.4106C59.4556 3.33454 58.9862 3.66252 58.5853 3.66252H54.4244V5.56399H58.0322C58.4331 5.56399 58.9026 5.89198 58.9026 6.81592C58.9026 7.73986 58.4331 8.06784 58.0322 8.06784H54.4244V11.83C54.4244 12.5117 53.5304 12.5117 53.1017 12.5117ZM73.0796 12.5117C72.2457 12.5117 72.0077 12.3102 71.8984 12.1602L68.0118 6.41719V11.8172C68.0118 12.5096 67.1179 12.5096 66.6892 12.5096C66.2604 12.5096 65.3644 12.5096 65.3644 11.8172V1.84895C65.3661 1.7243 65.4059 1.60315 65.4782 1.50165C65.5506 1.40015 65.6522 1.32313 65.7695 1.28087C66.0439 1.16725 67.4416 1.02791 67.8403 1.4245L67.9068 1.50596L71.7869 7.2468V1.84895C71.7869 1.15867 72.7151 1.15867 73.1117 1.15867C73.5083 1.15867 74.4344 1.15867 74.4344 1.84895V11.8172C74.4297 11.9568 74.3797 12.0911 74.2919 12.1998C74.2041 12.3085 74.0833 12.3856 73.9478 12.4196C73.6634 12.487 73.3717 12.518 73.0796 12.5117ZM77.564 12.5104C77.1353 12.5104 76.2349 12.5104 76.2349 11.8287V1.83473C76.2349 1.15303 77.1331 1.15303 77.564 1.15303C77.9949 1.15303 78.8952 1.15303 78.8952 1.83473V11.8287C78.8952 12.5104 77.997 12.5104 77.564 12.5104ZM62.185 12.5104C61.7562 12.5104 60.8559 12.5104 60.8559 11.8287V1.83473C60.8559 1.15303 61.7541 1.15303 62.185 1.15303C62.6159 1.15303 63.5141 1.15303 63.5141 1.83473V11.8287C63.5098 12.5104 62.6159 12.5104 62.185 12.5104ZM84.909 12.5117C84.4803 12.5117 83.5863 12.5117 83.5863 11.83V3.80615H81.0139C80.3301 3.80615 80.3301 2.91008 80.3301 2.48134C80.3301 2.0526 80.3301 1.15867 81.0139 1.15867H88.8041C89.4858 1.15867 89.4858 2.0526 89.4858 2.48134C89.4858 2.91008 89.4858 3.80615 88.8041 3.80615H86.2317V11.83C86.2317 12.5117 85.3399 12.5117 84.909 12.5117ZM95.542 12.5213C95.2119 12.5213 94.2129 12.5213 94.2129 11.7945V7.72151L90.5686 2.03854V1.8799C90.5714 1.73755 90.6212 1.60012 90.7105 1.48916C90.7997 1.37821 90.9232 1.3 91.0617 1.2668C91.4133 1.1489 93.0017 1.02456 93.4048 1.56264L93.4198 1.58407L95.5442 4.87895L97.6879 1.54977C98.1166 1.02028 99.7158 1.15533 100.046 1.27324C100.18 1.30934 100.299 1.38797 100.385 1.49734C100.471 1.60671 100.519 1.74093 100.522 1.8799V2.04068L96.8776 7.72365V11.7967C96.8711 12.5213 95.8807 12.5213 95.542 12.5213ZM48.4549 1.24896H49.1687C49.7453 1.24896 50.2127 1.71637 50.2127 2.29294V3.02609C50.2127 3.60267 49.7453 4.07008 49.1687 4.07008H48.4549C47.8783 4.07008 47.4109 3.60267 47.4109 3.02609V2.29294C47.4109 1.71637 47.8783 1.24896 48.4549 1.24896Z" fill="white"/>
</g>
</g>
</svg>
