<svg width="623" height="623" viewBox="0 0 623 623" fill="none" xmlns="http://www.w3.org/2000/svg">
<g filter="url(#filter0_ii_2372_4220)">
<path d="M598.522 192.047C630.097 268.276 630.097 353.925 598.522 430.154L311.102 311.1L598.522 192.047Z" fill="url(#paint0_linear_2372_4220)"/>
</g>
<path d="M486.53 320V312.86H467.39V306.11L481.22 276.8H489.47L475.64 306.11H486.53V294.86H493.85V306.11H497.9V312.86H493.85V320H486.53ZM521.234 320.9C518.174 320.9 515.474 320.25 513.134 318.95C510.794 317.63 508.964 315.8 507.644 313.46C506.344 311.12 505.694 308.42 505.694 305.36V291.44C505.694 288.38 506.344 285.68 507.644 283.34C508.964 281 510.794 279.18 513.134 277.88C515.474 276.56 518.174 275.9 521.234 275.9C524.294 275.9 526.984 276.56 529.304 277.88C531.644 279.18 533.474 281 534.794 283.34C536.114 285.68 536.774 288.38 536.774 291.44V305.36C536.774 308.42 536.114 311.12 534.794 313.46C533.474 315.8 531.644 317.63 529.304 318.95C526.984 320.25 524.294 320.9 521.234 320.9ZM521.234 314.03C522.754 314.03 524.134 313.67 525.374 312.95C526.614 312.21 527.594 311.23 528.314 310.01C529.034 308.77 529.394 307.39 529.394 305.87V290.9C529.394 289.36 529.034 287.98 528.314 286.76C527.594 285.52 526.614 284.54 525.374 283.82C524.134 283.08 522.754 282.71 521.234 282.71C519.714 282.71 518.334 283.08 517.094 283.82C515.854 284.54 514.874 285.52 514.154 286.76C513.434 287.98 513.074 289.36 513.074 290.9V305.87C513.074 307.39 513.434 308.77 514.154 310.01C514.874 311.23 515.854 312.21 517.094 312.95C518.334 313.67 519.714 314.03 521.234 314.03ZM551.786 320L546.986 315.2L585.416 276.8L590.216 281.63L551.786 320ZM581.216 320.9C579.236 320.9 577.426 320.42 575.786 319.46C574.166 318.48 572.866 317.18 571.886 315.56C570.906 313.92 570.416 312.1 570.416 310.1C570.416 308.14 570.916 306.34 571.916 304.7C572.916 303.06 574.236 301.75 575.876 300.77C577.516 299.79 579.296 299.3 581.216 299.3C583.196 299.3 585.006 299.79 586.646 300.77C588.286 301.73 589.586 303.03 590.546 304.67C591.526 306.29 592.016 308.1 592.016 310.1C592.016 312.1 591.526 313.92 590.546 315.56C589.586 317.18 588.286 318.48 586.646 319.46C585.006 320.42 583.196 320.9 581.216 320.9ZM581.216 314.72C582.036 314.72 582.796 314.51 583.496 314.09C584.216 313.67 584.786 313.11 585.206 312.41C585.626 311.71 585.836 310.94 585.836 310.1C585.836 309.26 585.626 308.49 585.206 307.79C584.786 307.09 584.216 306.53 583.496 306.11C582.796 305.69 582.036 305.48 581.216 305.48C580.376 305.48 579.606 305.69 578.906 306.11C578.206 306.53 577.636 307.09 577.196 307.79C576.776 308.49 576.566 309.26 576.566 310.1C576.566 310.94 576.776 311.71 577.196 312.41C577.636 313.11 578.206 313.67 578.906 314.09C579.606 314.51 580.376 314.72 581.216 314.72ZM555.986 297.5C554.006 297.5 552.196 297.02 550.556 296.06C548.916 295.08 547.606 293.78 546.626 292.16C545.666 290.52 545.186 288.7 545.186 286.7C545.186 284.74 545.686 282.94 546.686 281.3C547.686 279.66 549.006 278.35 550.646 277.37C552.286 276.39 554.066 275.9 555.986 275.9C557.966 275.9 559.766 276.39 561.386 277.37C563.026 278.33 564.336 279.63 565.316 281.27C566.296 282.89 566.786 284.7 566.786 286.7C566.786 288.7 566.296 290.52 565.316 292.16C564.336 293.78 563.026 295.08 561.386 296.06C559.766 297.02 557.966 297.5 555.986 297.5ZM555.986 291.32C556.826 291.32 557.596 291.11 558.296 290.69C558.996 290.27 559.556 289.71 559.976 289.01C560.396 288.31 560.606 287.54 560.606 286.7C560.606 285.86 560.396 285.09 559.976 284.39C559.556 283.69 558.996 283.13 558.296 282.71C557.596 282.29 556.826 282.08 555.986 282.08C555.146 282.08 554.376 282.29 553.676 282.71C552.976 283.13 552.416 283.69 551.996 284.39C551.576 285.09 551.366 285.86 551.366 286.7C551.366 287.54 551.576 288.31 551.996 289.01C552.416 289.71 552.976 290.27 553.676 290.69C554.376 291.11 555.146 291.32 555.986 291.32Z" fill="url(#paint1_linear_2372_4220)"/>
<path d="M499.293 349.752H493.725V355.192H489.597V349.752H484.061V345.848H489.597V340.408H493.725V345.848H499.293V349.752ZM509.794 336.6V359H504.61V340.76H500.13V336.6H509.794ZM520.725 345.016C523.882 345.016 526.208 345.645 527.701 346.904C529.216 348.163 529.973 349.848 529.973 351.96C529.973 353.325 529.632 354.573 528.949 355.704C528.266 356.813 527.221 357.709 525.813 358.392C524.426 359.053 522.709 359.384 520.661 359.384C519.082 359.384 517.525 359.181 515.989 358.776C514.474 358.349 513.184 357.752 512.117 356.984L514.165 353.016C515.018 353.656 516 354.157 517.109 354.52C518.218 354.861 519.36 355.032 520.533 355.032C521.834 355.032 522.858 354.776 523.605 354.264C524.352 353.752 524.725 353.037 524.725 352.12C524.725 351.16 524.33 350.435 523.541 349.944C522.773 349.453 521.429 349.208 519.509 349.208H513.781L514.933 336.6H528.597V340.76H519.253L518.901 345.016H520.725ZM547.98 347.448H552.716V356.536C551.5 357.453 550.092 358.157 548.492 358.648C546.892 359.139 545.281 359.384 543.66 359.384C541.335 359.384 539.244 358.893 537.388 357.912C535.532 356.909 534.071 355.533 533.004 353.784C531.959 352.013 531.436 350.019 531.436 347.8C531.436 345.581 531.959 343.597 533.004 341.848C534.071 340.077 535.543 338.701 537.42 337.72C539.297 336.717 541.409 336.216 543.756 336.216C545.719 336.216 547.5 336.547 549.1 337.208C550.7 337.869 552.044 338.829 553.132 340.088L549.804 343.16C548.204 341.475 546.273 340.632 544.012 340.632C542.583 340.632 541.313 340.931 540.204 341.528C539.095 342.125 538.231 342.968 537.612 344.056C536.993 345.144 536.684 346.392 536.684 347.8C536.684 349.187 536.993 350.424 537.612 351.512C538.231 352.6 539.084 353.453 540.172 354.072C541.281 354.669 542.54 354.968 543.948 354.968C545.441 354.968 546.785 354.648 547.98 354.008V347.448ZM572.028 347.448H576.764V356.536C575.548 357.453 574.14 358.157 572.54 358.648C570.94 359.139 569.329 359.384 567.708 359.384C565.382 359.384 563.292 358.893 561.436 357.912C559.58 356.909 558.118 355.533 557.052 353.784C556.006 352.013 555.484 350.019 555.484 347.8C555.484 345.581 556.006 343.597 557.052 341.848C558.118 340.077 559.59 338.701 561.468 337.72C563.345 336.717 565.457 336.216 567.804 336.216C569.766 336.216 571.548 336.547 573.148 337.208C574.748 337.869 576.092 338.829 577.18 340.088L573.852 343.16C572.252 341.475 570.321 340.632 568.06 340.632C566.63 340.632 565.361 340.931 564.252 341.528C563.142 342.125 562.278 342.968 561.66 344.056C561.041 345.144 560.732 346.392 560.732 347.8C560.732 349.187 561.041 350.424 561.66 351.512C562.278 352.6 563.132 353.453 564.22 354.072C565.329 354.669 566.588 354.968 567.996 354.968C569.489 354.968 570.833 354.648 572.028 354.008V347.448Z" fill="url(#paint2_linear_2372_4220)"/>
<g filter="url(#filter1_ii_2372_4220)">
<path d="M23.6813 430C-7.89361 353.771 -7.8936 268.122 23.6813 191.893L311.102 310.947L23.6813 430Z" fill="url(#paint3_linear_2372_4220)"/>
</g>
<path d="M43.0741 320.744C40.8741 320.744 38.8241 320.294 36.9241 319.394C35.0241 318.474 33.3841 317.214 32.0041 315.614C30.6441 314.014 29.6641 312.154 29.0641 310.034L36.0241 308.174C36.3041 309.334 36.8141 310.334 37.5541 311.174C38.3141 312.014 39.1941 312.664 40.1941 313.124C41.2141 313.584 42.2641 313.814 43.3441 313.814C44.7441 313.814 46.0241 313.474 47.1841 312.794C48.3441 312.114 49.2641 311.204 49.9441 310.064C50.6241 308.904 50.9641 307.624 50.9641 306.224C50.9641 304.824 50.6141 303.554 49.9141 302.414C49.2341 301.254 48.3141 300.344 47.1541 299.684C45.9941 299.004 44.7241 298.664 43.3441 298.664C41.6841 298.664 40.3041 298.964 39.2041 299.564C38.1241 300.164 37.2941 300.804 36.7141 301.484L30.5341 299.504L31.8541 276.644H55.3141V283.424H35.7241L38.4241 280.874L37.4641 296.774L36.1441 295.154C37.2641 294.134 38.5641 293.374 40.0441 292.874C41.5241 292.374 42.9541 292.124 44.3341 292.124C47.0341 292.124 49.4241 292.744 51.5041 293.984C53.6041 295.204 55.2441 296.874 56.4241 298.994C57.6241 301.114 58.2241 303.524 58.2241 306.224C58.2241 308.924 57.5241 311.374 56.1241 313.574C54.7241 315.754 52.8741 317.494 50.5741 318.794C48.2941 320.094 45.7941 320.744 43.0741 320.744ZM81.5603 320.744C78.5003 320.744 75.8003 320.094 73.4603 318.794C71.1203 317.474 69.2903 315.644 67.9703 313.304C66.6703 310.964 66.0203 308.264 66.0203 305.204V291.284C66.0203 288.224 66.6703 285.524 67.9703 283.184C69.2903 280.844 71.1203 279.024 73.4603 277.724C75.8003 276.404 78.5003 275.744 81.5603 275.744C84.6203 275.744 87.3103 276.404 89.6303 277.724C91.9703 279.024 93.8003 280.844 95.1203 283.184C96.4403 285.524 97.1003 288.224 97.1003 291.284V305.204C97.1003 308.264 96.4403 310.964 95.1203 313.304C93.8003 315.644 91.9703 317.474 89.6303 318.794C87.3103 320.094 84.6203 320.744 81.5603 320.744ZM81.5603 313.874C83.0803 313.874 84.4603 313.514 85.7003 312.794C86.9403 312.054 87.9203 311.074 88.6403 309.854C89.3603 308.614 89.7203 307.234 89.7203 305.714V290.744C89.7203 289.204 89.3603 287.824 88.6403 286.604C87.9203 285.364 86.9403 284.384 85.7003 283.664C84.4603 282.924 83.0803 282.554 81.5603 282.554C80.0403 282.554 78.6603 282.924 77.4203 283.664C76.1803 284.384 75.2003 285.364 74.4803 286.604C73.7603 287.824 73.4003 289.204 73.4003 290.744V305.714C73.4003 307.234 73.7603 308.614 74.4803 309.854C75.2003 311.074 76.1803 312.054 77.4203 312.794C78.6603 313.514 80.0403 313.874 81.5603 313.874ZM112.112 319.844L107.312 315.044L145.743 276.644L150.543 281.474L112.112 319.844ZM141.543 320.744C139.562 320.744 137.752 320.264 136.113 319.304C134.492 318.324 133.192 317.024 132.212 315.404C131.232 313.764 130.742 311.944 130.742 309.944C130.742 307.984 131.242 306.184 132.242 304.544C133.243 302.904 134.563 301.594 136.202 300.614C137.842 299.634 139.622 299.144 141.543 299.144C143.523 299.144 145.333 299.634 146.973 300.614C148.613 301.574 149.913 302.874 150.873 304.514C151.853 306.134 152.343 307.944 152.343 309.944C152.343 311.944 151.853 313.764 150.873 315.404C149.913 317.024 148.613 318.324 146.973 319.304C145.333 320.264 143.523 320.744 141.543 320.744ZM141.543 314.564C142.363 314.564 143.123 314.354 143.823 313.934C144.543 313.514 145.113 312.954 145.533 312.254C145.953 311.554 146.162 310.784 146.162 309.944C146.162 309.104 145.953 308.334 145.533 307.634C145.113 306.934 144.543 306.374 143.823 305.954C143.123 305.534 142.363 305.324 141.543 305.324C140.703 305.324 139.933 305.534 139.233 305.954C138.533 306.374 137.963 306.934 137.522 307.634C137.102 308.334 136.892 309.104 136.892 309.944C136.892 310.784 137.102 311.554 137.522 312.254C137.963 312.954 138.533 313.514 139.233 313.934C139.933 314.354 140.703 314.564 141.543 314.564ZM116.312 297.344C114.332 297.344 112.522 296.864 110.882 295.904C109.242 294.924 107.932 293.624 106.952 292.004C105.992 290.364 105.512 288.544 105.512 286.544C105.512 284.584 106.012 282.784 107.012 281.144C108.012 279.504 109.332 278.194 110.972 277.214C112.612 276.234 114.392 275.744 116.312 275.744C118.292 275.744 120.092 276.234 121.712 277.214C123.352 278.174 124.662 279.474 125.642 281.114C126.622 282.734 127.112 284.544 127.112 286.544C127.112 288.544 126.622 290.364 125.642 292.004C124.662 293.624 123.352 294.924 121.712 295.904C120.092 296.864 118.292 297.344 116.312 297.344ZM116.312 291.164C117.152 291.164 117.922 290.954 118.622 290.534C119.322 290.114 119.882 289.554 120.302 288.854C120.722 288.154 120.932 287.384 120.932 286.544C120.932 285.704 120.722 284.934 120.302 284.234C119.882 283.534 119.322 282.974 118.622 282.554C117.922 282.134 117.152 281.924 116.312 281.924C115.472 281.924 114.702 282.134 114.002 282.554C113.302 282.974 112.742 283.534 112.322 284.234C111.902 284.934 111.692 285.704 111.692 286.544C111.692 287.384 111.902 288.154 112.322 288.854C112.742 289.554 113.302 290.114 114.002 290.534C114.702 290.954 115.472 291.164 116.312 291.164Z" fill="url(#paint4_linear_2372_4220)"/>
<path d="M60.2929 349.596H54.7249V355.036H50.5969V349.596H45.0609V345.692H50.5969V340.252H54.7249V345.692H60.2929V349.596ZM70.7936 336.444V358.844H65.6096V340.604H61.1296V336.444H70.7936ZM81.7249 344.86C84.8822 344.86 87.2075 345.489 88.7009 346.748C90.2155 348.006 90.9729 349.692 90.9729 351.804C90.9729 353.169 90.6315 354.417 89.9489 355.548C89.2662 356.657 88.2209 357.553 86.8129 358.236C85.4262 358.897 83.7089 359.228 81.6609 359.228C80.0822 359.228 78.5249 359.025 76.9889 358.62C75.4742 358.193 74.1835 357.596 73.1169 356.828L75.1649 352.86C76.0182 353.5 76.9995 354.001 78.1089 354.364C79.2182 354.705 80.3595 354.876 81.5329 354.876C82.8342 354.876 83.8582 354.62 84.6049 354.108C85.3515 353.596 85.7249 352.881 85.7249 351.964C85.7249 351.004 85.3302 350.278 84.5409 349.788C83.7729 349.297 82.4289 349.052 80.5089 349.052H74.7809L75.9329 336.444H89.5969V340.604H80.2529L79.9009 344.86H81.7249ZM108.98 347.292H113.716V356.38C112.5 357.297 111.092 358.001 109.492 358.492C107.892 358.982 106.281 359.228 104.66 359.228C102.335 359.228 100.244 358.737 98.3881 357.756C96.5321 356.753 95.0708 355.377 94.0041 353.628C92.9588 351.857 92.4361 349.862 92.4361 347.644C92.4361 345.425 92.9588 343.441 94.0041 341.692C95.0708 339.921 96.5428 338.545 98.4201 337.564C100.297 336.561 102.409 336.06 104.756 336.06C106.719 336.06 108.5 336.39 110.1 337.052C111.7 337.713 113.044 338.673 114.132 339.932L110.804 343.004C109.204 341.318 107.273 340.476 105.012 340.476C103.583 340.476 102.313 340.774 101.204 341.372C100.095 341.969 99.2308 342.812 98.6121 343.9C97.9935 344.988 97.6841 346.236 97.6841 347.644C97.6841 349.03 97.9935 350.268 98.6121 351.356C99.2308 352.444 100.084 353.297 101.172 353.916C102.281 354.513 103.54 354.812 104.948 354.812C106.441 354.812 107.785 354.492 108.98 353.852V347.292ZM133.028 347.292H137.764V356.38C136.548 357.297 135.14 358.001 133.54 358.492C131.94 358.982 130.329 359.228 128.708 359.228C126.382 359.228 124.292 358.737 122.436 357.756C120.58 356.753 119.118 355.377 118.052 353.628C117.006 351.857 116.484 349.862 116.484 347.644C116.484 345.425 117.006 343.441 118.052 341.692C119.118 339.921 120.59 338.545 122.468 337.564C124.345 336.561 126.457 336.06 128.804 336.06C130.766 336.06 132.548 336.39 134.148 337.052C135.748 337.713 137.092 338.673 138.18 339.932L134.852 343.004C133.252 341.318 131.321 340.476 129.06 340.476C127.63 340.476 126.361 340.774 125.252 341.372C124.142 341.969 123.278 342.812 122.66 343.9C122.041 344.988 121.732 346.236 121.732 347.644C121.732 349.03 122.041 350.268 122.66 351.356C123.278 352.444 124.132 353.297 125.22 353.916C126.329 354.513 127.588 354.812 128.996 354.812C130.489 354.812 131.833 354.492 133.028 353.852V347.292Z" fill="url(#paint5_linear_2372_4220)"/>
<g filter="url(#filter2_ii_2372_4220)">
<path d="M192.047 23.6812C268.276 -7.89374 353.925 -7.89374 430.154 23.6812L311.1 311.101L192.047 23.6812Z" fill="url(#paint6_linear_2372_4220)"/>
</g>
<path d="M320.9 138.926C320.9 141.126 320.45 143.176 319.55 145.076C318.63 146.976 317.37 148.616 315.77 149.996C314.17 151.356 312.31 152.336 310.19 152.936L308.33 145.976C309.49 145.696 310.49 145.186 311.33 144.446C312.17 143.686 312.82 142.806 313.28 141.806C313.74 140.786 313.97 139.736 313.97 138.656C313.97 137.256 313.63 135.976 312.95 134.816C312.27 133.656 311.36 132.736 310.22 132.056C309.06 131.376 307.78 131.036 306.38 131.036C304.98 131.036 303.71 131.386 302.57 132.086C301.41 132.766 300.5 133.686 299.84 134.846C299.16 136.006 298.82 137.276 298.82 138.656C298.82 140.316 299.12 141.696 299.72 142.796C300.32 143.876 300.96 144.706 301.64 145.286L299.66 151.466L276.8 150.146V126.686H283.58V146.276L281.03 143.576L296.93 144.536L295.31 145.856C294.29 144.736 293.53 143.436 293.03 141.956C292.53 140.476 292.28 139.046 292.28 137.666C292.28 134.966 292.9 132.576 294.14 130.496C295.36 128.396 297.03 126.756 299.15 125.576C301.27 124.376 303.68 123.776 306.38 123.776C309.08 123.776 311.53 124.476 313.73 125.876C315.91 127.276 317.65 129.126 318.95 131.426C320.25 133.706 320.9 136.206 320.9 138.926ZM320.9 100.44C320.9 103.5 320.25 106.2 318.95 108.54C317.63 110.88 315.8 112.71 313.46 114.03C311.12 115.33 308.42 115.98 305.36 115.98H291.44C288.38 115.98 285.68 115.33 283.34 114.03C281 112.71 279.18 110.88 277.88 108.54C276.56 106.2 275.9 103.5 275.9 100.44C275.9 97.3796 276.56 94.6896 277.88 92.3696C279.18 90.0296 281 88.1996 283.34 86.8796C285.68 85.5596 288.38 84.8996 291.44 84.8996H305.36C308.42 84.8996 311.12 85.5596 313.46 86.8796C315.8 88.1996 317.63 90.0296 318.95 92.3696C320.25 94.6896 320.9 97.3796 320.9 100.44ZM314.03 100.44C314.03 98.9196 313.67 97.5396 312.95 96.2996C312.21 95.0596 311.23 94.0796 310.01 93.3596C308.77 92.6396 307.39 92.2796 305.87 92.2796H290.9C289.36 92.2796 287.98 92.6396 286.76 93.3596C285.52 94.0796 284.54 95.0596 283.82 96.2996C283.08 97.5396 282.71 98.9196 282.71 100.44C282.71 101.96 283.08 103.34 283.82 104.58C284.54 105.82 285.52 106.8 286.76 107.52C287.98 108.24 289.36 108.6 290.9 108.6H305.87C307.39 108.6 308.77 108.24 310.01 107.52C311.23 106.8 312.21 105.82 312.95 104.58C313.67 103.34 314.03 101.96 314.03 100.44ZM320 69.8874L315.2 74.6874L276.8 36.2574L281.63 31.4574L320 69.8874ZM320.9 40.4574C320.9 42.4374 320.42 44.2474 319.46 45.8874C318.48 47.5074 317.18 48.8074 315.56 49.7874C313.92 50.7674 312.1 51.2574 310.1 51.2574C308.14 51.2574 306.34 50.7574 304.7 49.7574C303.06 48.7574 301.75 47.4374 300.77 45.7974C299.79 44.1574 299.3 42.3774 299.3 40.4574C299.3 38.4774 299.79 36.6674 300.77 35.0274C301.73 33.3874 303.03 32.0874 304.67 31.1274C306.29 30.1474 308.1 29.6574 310.1 29.6574C312.1 29.6574 313.92 30.1474 315.56 31.1274C317.18 32.0874 318.48 33.3874 319.46 35.0274C320.42 36.6674 320.9 38.4774 320.9 40.4574ZM314.72 40.4574C314.72 39.6374 314.51 38.8774 314.09 38.1774C313.67 37.4574 313.11 36.8874 312.41 36.4674C311.71 36.0474 310.94 35.8374 310.1 35.8374C309.26 35.8374 308.49 36.0474 307.79 36.4674C307.09 36.8874 306.53 37.4574 306.11 38.1774C305.69 38.8774 305.48 39.6374 305.48 40.4574C305.48 41.2974 305.69 42.0674 306.11 42.7674C306.53 43.4674 307.09 44.0374 307.79 44.4774C308.49 44.8974 309.26 45.1074 310.1 45.1074C310.94 45.1074 311.71 44.8974 312.41 44.4774C313.11 44.0374 313.67 43.4674 314.09 42.7674C314.51 42.0674 314.72 41.2974 314.72 40.4574ZM297.5 65.6874C297.5 67.6674 297.02 69.4774 296.06 71.1174C295.08 72.7574 293.78 74.0674 292.16 75.0474C290.52 76.0074 288.7 76.4874 286.7 76.4874C284.74 76.4874 282.94 75.9874 281.3 74.9874C279.66 73.9874 278.35 72.6674 277.37 71.0274C276.39 69.3874 275.9 67.6074 275.9 65.6874C275.9 63.7074 276.39 61.9074 277.37 60.2874C278.33 58.6474 279.63 57.3374 281.27 56.3574C282.89 55.3774 284.7 54.8874 286.7 54.8874C288.7 54.8874 290.52 55.3774 292.16 56.3574C293.78 57.3374 295.08 58.6474 296.06 60.2874C297.02 61.9074 297.5 63.7074 297.5 65.6874ZM291.32 65.6874C291.32 64.8474 291.11 64.0774 290.69 63.3774C290.27 62.6774 289.71 62.1174 289.01 61.6974C288.31 61.2774 287.54 61.0674 286.7 61.0674C285.86 61.0674 285.09 61.2774 284.39 61.6974C283.69 62.1174 283.13 62.6774 282.71 63.3774C282.29 64.0774 282.08 64.8474 282.08 65.6874C282.08 66.5274 282.29 67.2974 282.71 67.9974C283.13 68.6974 283.69 69.2574 284.39 69.6774C285.09 70.0974 285.86 70.3074 286.7 70.3074C287.54 70.3074 288.31 70.0974 289.01 69.6774C289.71 69.2574 290.27 68.6974 290.69 67.9974C291.11 67.2974 291.32 66.5274 291.32 65.6874Z" fill="url(#paint7_linear_2372_4220)"/>
<path d="M349.752 123.551V129.119H355.192V133.247H349.752V138.783H345.848V133.247H340.408V129.119H345.848V123.551H349.752ZM336.6 113.05H359V118.234H340.76V122.714H336.6V113.05ZM359.384 100.199C359.384 102.055 358.926 103.708 358.008 105.159C357.091 106.609 355.768 107.751 354.04 108.583C352.291 109.393 350.211 109.799 347.8 109.799C345.39 109.799 343.32 109.393 341.592 108.583C339.843 107.751 338.51 106.609 337.592 105.159C336.675 103.708 336.216 102.055 336.216 100.199C336.216 98.3428 336.675 96.6894 337.592 95.2388C338.51 93.7881 339.843 92.6574 341.592 91.8468C343.32 91.0148 345.39 90.5988 347.8 90.5988C350.211 90.5988 352.291 91.0148 354.04 91.8468C355.768 92.6574 357.091 93.7881 358.008 95.2388C358.926 96.6894 359.384 98.3428 359.384 100.199ZM355 100.199C355 98.8334 354.414 97.7668 353.24 96.9988C352.067 96.2094 350.254 95.8148 347.8 95.8148C345.347 95.8148 343.534 96.2094 342.36 96.9988C341.187 97.7668 340.6 98.8334 340.6 100.199C340.6 101.543 341.187 102.609 342.36 103.399C343.534 104.167 345.347 104.551 347.8 104.551C350.254 104.551 352.067 104.167 353.24 103.399C354.414 102.609 355 101.543 355 100.199ZM347.448 72.176V67.44H356.536C357.454 68.656 358.158 70.064 358.648 71.664C359.139 73.264 359.384 74.8747 359.384 76.496C359.384 78.8213 358.894 80.912 357.912 82.768C356.91 84.624 355.534 86.0853 353.784 87.152C352.014 88.1973 350.019 88.72 347.8 88.72C345.582 88.72 343.598 88.1973 341.848 87.152C340.078 86.0853 338.702 84.6133 337.72 82.736C336.718 80.8587 336.216 78.7467 336.216 76.4C336.216 74.4373 336.547 72.656 337.208 71.056C337.87 69.456 338.83 68.112 340.088 67.024L343.16 70.352C341.475 71.952 340.632 73.8827 340.632 76.144C340.632 77.5733 340.931 78.8427 341.528 79.952C342.126 81.0613 342.968 81.9253 344.056 82.544C345.144 83.1627 346.392 83.472 347.8 83.472C349.187 83.472 350.424 83.1627 351.512 82.544C352.6 81.9253 353.454 81.072 354.072 79.984C354.67 78.8747 354.968 77.616 354.968 76.208C354.968 74.7147 354.648 73.3707 354.008 72.176H347.448ZM347.448 48.1285V43.3925H356.536C357.454 44.6085 358.158 46.0165 358.648 47.6165C359.139 49.2165 359.384 50.8272 359.384 52.4485C359.384 54.7738 358.894 56.8645 357.912 58.7205C356.91 60.5765 355.534 62.0378 353.784 63.1045C352.014 64.1498 350.019 64.6725 347.8 64.6725C345.582 64.6725 343.598 64.1498 341.848 63.1045C340.078 62.0378 338.702 60.5658 337.72 58.6885C336.718 56.8112 336.216 54.6992 336.216 52.3525C336.216 50.3898 336.547 48.6085 337.208 47.0085C337.87 45.4085 338.83 44.0645 340.088 42.9765L343.16 46.3045C341.475 47.9045 340.632 49.8352 340.632 52.0965C340.632 53.5258 340.931 54.7952 341.528 55.9045C342.126 57.0138 342.968 57.8778 344.056 58.4965C345.144 59.1152 346.392 59.4245 347.8 59.4245C349.187 59.4245 350.424 59.1152 351.512 58.4965C352.6 57.8778 353.454 57.0245 354.072 55.9365C354.67 54.8272 354.968 53.5685 354.968 52.1605C354.968 50.6672 354.648 49.3232 354.008 48.1285H347.448Z" fill="url(#paint8_linear_2372_4220)"/>
<g filter="url(#filter3_ii_2372_4220)">
<path d="M430 598.522C353.771 630.097 268.122 630.097 191.893 598.522L310.947 311.102L430 598.522Z" fill="url(#paint9_linear_2372_4220)"/>
</g>
<path d="M302.904 438.268H309.204L325.674 456.748C326.954 458.188 328.164 459.188 329.304 459.748C330.444 460.308 331.544 460.588 332.604 460.588C334.044 460.588 335.324 460.278 336.444 459.658C337.584 459.038 338.484 458.178 339.144 457.078C339.804 455.998 340.134 454.748 340.134 453.328C340.134 451.828 339.784 450.498 339.084 449.338C338.404 448.198 337.494 447.308 336.354 446.668C335.214 446.028 333.984 445.728 332.664 445.768V438.328C335.544 438.328 338.054 438.968 340.194 440.248C342.334 441.548 343.994 443.328 345.174 445.588C346.354 447.868 346.944 450.498 346.944 453.478C346.944 456.238 346.324 458.718 345.084 460.918C343.864 463.118 342.164 464.848 339.984 466.108C337.824 467.368 335.334 467.998 332.514 467.998C330.454 467.998 328.724 467.718 327.324 467.158C325.924 466.598 324.634 465.758 323.454 464.638C322.274 463.538 320.964 462.168 319.524 460.528L307.914 447.418L309.714 446.758V467.998H302.904V438.268ZM302.904 474.61H309.204L325.674 493.09C326.954 494.53 328.164 495.53 329.304 496.09C330.444 496.65 331.544 496.93 332.604 496.93C334.044 496.93 335.324 496.62 336.444 496C337.584 495.38 338.484 494.52 339.144 493.42C339.804 492.34 340.134 491.09 340.134 489.67C340.134 488.17 339.784 486.84 339.084 485.68C338.404 484.54 337.494 483.65 336.354 483.01C335.214 482.37 333.984 482.07 332.664 482.11V474.67C335.544 474.67 338.054 475.31 340.194 476.59C342.334 477.89 343.994 479.67 345.174 481.93C346.354 484.21 346.944 486.84 346.944 489.82C346.944 492.58 346.324 495.06 345.084 497.26C343.864 499.46 342.164 501.19 339.984 502.45C337.824 503.71 335.334 504.34 332.514 504.34C330.454 504.34 328.724 504.06 327.324 503.5C325.924 502.94 324.634 502.1 323.454 500.98C322.274 499.88 320.964 498.51 319.524 496.87L307.914 483.76L309.714 483.1V504.34H302.904V474.61ZM301.944 524.962C301.944 522.762 302.394 520.712 303.294 518.812C304.214 516.912 305.474 515.272 307.074 513.892C308.674 512.532 310.534 511.552 312.654 510.952L314.514 517.912C313.354 518.192 312.354 518.702 311.514 519.442C310.674 520.202 310.024 521.082 309.564 522.082C309.104 523.102 308.874 524.152 308.874 525.232C308.874 526.632 309.214 527.912 309.894 529.072C310.574 530.232 311.484 531.152 312.624 531.832C313.784 532.512 315.064 532.852 316.464 532.852C317.864 532.852 319.134 532.502 320.274 531.802C321.434 531.122 322.344 530.202 323.004 529.042C323.684 527.882 324.024 526.612 324.024 525.232C324.024 523.572 323.724 522.192 323.124 521.092C322.524 520.012 321.884 519.182 321.204 518.602L323.184 512.422L346.044 513.742V537.202H339.264V517.612L341.814 520.312L325.914 519.352L327.534 518.032C328.554 519.152 329.314 520.452 329.814 521.932C330.314 523.412 330.564 524.842 330.564 526.222C330.564 528.922 329.944 531.312 328.704 533.392C327.484 535.492 325.814 537.132 323.694 538.312C321.574 539.512 319.164 540.112 316.464 540.112C313.764 540.112 311.314 539.412 309.114 538.012C306.934 536.612 305.194 534.762 303.894 532.462C302.594 530.182 301.944 527.682 301.944 524.962ZM302.844 553.909L307.644 549.109L346.044 587.539L341.214 592.339L302.844 553.909ZM301.944 583.339C301.944 581.359 302.424 579.549 303.384 577.909C304.364 576.289 305.664 574.989 307.284 574.009C308.924 573.029 310.744 572.539 312.744 572.539C314.704 572.539 316.504 573.039 318.144 574.039C319.784 575.039 321.094 576.359 322.074 577.999C323.054 579.639 323.544 581.419 323.544 583.339C323.544 585.319 323.054 587.129 322.074 588.769C321.114 590.409 319.814 591.709 318.174 592.669C316.554 593.649 314.744 594.139 312.744 594.139C310.744 594.139 308.924 593.649 307.284 592.669C305.664 591.709 304.364 590.409 303.384 588.769C302.424 587.129 301.944 585.319 301.944 583.339ZM308.124 583.339C308.124 584.159 308.334 584.919 308.754 585.619C309.174 586.339 309.734 586.909 310.434 587.329C311.134 587.749 311.904 587.959 312.744 587.959C313.584 587.959 314.354 587.749 315.054 587.329C315.754 586.909 316.314 586.339 316.734 585.619C317.154 584.919 317.364 584.159 317.364 583.339C317.364 582.499 317.154 581.729 316.734 581.029C316.314 580.329 315.754 579.759 315.054 579.319C314.354 578.899 313.584 578.689 312.744 578.689C311.904 578.689 311.134 578.899 310.434 579.319C309.734 579.759 309.174 580.329 308.754 581.029C308.334 581.729 308.124 582.499 308.124 583.339ZM325.344 558.109C325.344 556.129 325.824 554.319 326.784 552.679C327.764 551.039 329.064 549.729 330.684 548.749C332.324 547.789 334.144 547.309 336.144 547.309C338.104 547.309 339.904 547.809 341.544 548.809C343.184 549.809 344.494 551.129 345.474 552.769C346.454 554.409 346.944 556.189 346.944 558.109C346.944 560.089 346.454 561.889 345.474 563.509C344.514 565.149 343.214 566.459 341.574 567.439C339.954 568.419 338.144 568.909 336.144 568.909C334.144 568.909 332.324 568.419 330.684 567.439C329.064 566.459 327.764 565.149 326.784 563.509C325.824 561.889 325.344 560.089 325.344 558.109ZM331.524 558.109C331.524 558.949 331.734 559.719 332.154 560.419C332.574 561.119 333.134 561.679 333.834 562.099C334.534 562.519 335.304 562.729 336.144 562.729C336.984 562.729 337.754 562.519 338.454 562.099C339.154 561.679 339.714 561.119 340.134 560.419C340.554 559.719 340.764 558.949 340.764 558.109C340.764 557.269 340.554 556.499 340.134 555.799C339.714 555.099 339.154 554.539 338.454 554.119C337.754 553.699 336.984 553.489 336.144 553.489C335.304 553.489 334.534 553.699 333.834 554.119C333.134 554.539 332.574 555.099 332.154 555.799C331.734 556.499 331.524 557.269 331.524 558.109Z" fill="url(#paint10_linear_2372_4220)"/>
<path d="M273.092 480.715V475.147H267.652V471.019H273.092V465.483H276.996V471.019H282.436V475.147H276.996V480.715H273.092ZM268.068 499.499H263.844V482.571H267.204L275.364 491.211C276.238 492.128 276.985 492.747 277.604 493.067C278.244 493.387 278.873 493.547 279.492 493.547C280.388 493.547 281.07 493.238 281.54 492.619C282.03 492.022 282.276 491.136 282.276 489.963C282.276 488.982 282.084 488.096 281.7 487.307C281.337 486.518 280.782 485.856 280.036 485.323L282.468 481.547C283.769 482.422 284.782 483.627 285.508 485.163C286.254 486.699 286.628 488.459 286.628 490.443C286.628 492.107 286.35 493.558 285.796 494.795C285.262 496.054 284.494 497.024 283.492 497.707C282.51 498.411 281.348 498.763 280.004 498.763C278.788 498.763 277.646 498.507 276.58 497.995C275.513 497.483 274.297 496.491 272.932 495.019L268.068 489.867V499.499ZM263.46 510.536C263.46 508.68 263.918 507.026 264.836 505.576C265.753 504.125 267.076 502.984 268.804 502.152C270.553 501.341 272.633 500.936 275.044 500.936C277.454 500.936 279.524 501.341 281.252 502.152C283.001 502.984 284.334 504.125 285.252 505.576C286.169 507.026 286.628 508.68 286.628 510.536C286.628 512.392 286.169 514.045 285.252 515.496C284.334 516.946 283.001 518.077 281.252 518.888C279.524 519.72 277.454 520.136 275.044 520.136C272.633 520.136 270.553 519.72 268.804 518.888C267.076 518.077 265.753 516.946 264.836 515.496C263.918 514.045 263.46 512.392 263.46 510.536ZM267.844 510.536C267.844 511.901 268.43 512.968 269.604 513.736C270.777 514.525 272.59 514.92 275.044 514.92C277.497 514.92 279.31 514.525 280.484 513.736C281.657 512.968 282.244 511.901 282.244 510.536C282.244 509.192 281.657 508.125 280.484 507.336C279.31 506.568 277.497 506.184 275.044 506.184C272.59 506.184 270.777 506.568 269.604 507.336C268.43 508.125 267.844 509.192 267.844 510.536ZM275.396 538.558V543.294H266.308C265.39 542.078 264.686 540.67 264.196 539.07C263.705 537.47 263.46 535.86 263.46 534.238C263.46 531.913 263.95 529.822 264.932 527.966C265.934 526.11 267.31 524.649 269.06 523.582C270.83 522.537 272.825 522.014 275.044 522.014C277.262 522.014 279.246 522.537 280.996 523.582C282.766 524.649 284.142 526.121 285.124 527.998C286.126 529.876 286.628 531.988 286.628 534.334C286.628 536.297 286.297 538.078 285.636 539.678C284.974 541.278 284.014 542.622 282.756 543.71L279.684 540.382C281.369 538.782 282.212 536.852 282.212 534.59C282.212 533.161 281.913 531.892 281.316 530.782C280.718 529.673 279.876 528.809 278.788 528.19C277.7 527.572 276.452 527.262 275.044 527.262C273.657 527.262 272.42 527.572 271.332 528.19C270.244 528.809 269.39 529.662 268.772 530.75C268.174 531.86 267.876 533.118 267.876 534.526C267.876 536.02 268.196 537.364 268.836 538.558H275.396ZM275.396 562.606V567.342H266.308C265.39 566.126 264.686 564.718 264.196 563.118C263.705 561.518 263.46 559.907 263.46 558.286C263.46 555.96 263.95 553.87 264.932 552.014C265.934 550.158 267.31 548.696 269.06 547.63C270.83 546.584 272.825 546.062 275.044 546.062C277.262 546.062 279.246 546.584 280.996 547.63C282.766 548.696 284.142 550.168 285.124 552.046C286.126 553.923 286.628 556.035 286.628 558.382C286.628 560.344 286.297 562.126 285.636 563.726C284.974 565.326 284.014 566.67 282.756 567.758L279.684 564.43C281.369 562.83 282.212 560.899 282.212 558.638C282.212 557.208 281.913 555.939 281.316 554.83C280.718 553.72 279.876 552.856 278.788 552.238C277.7 551.619 276.452 551.31 275.044 551.31C273.657 551.31 272.42 551.619 271.332 552.238C270.244 552.856 269.39 553.71 268.772 554.798C268.174 555.907 267.876 557.166 267.876 558.574C267.876 560.067 268.196 561.411 268.836 562.606H275.396Z" fill="url(#paint11_linear_2372_4220)"/>
<g filter="url(#filter4_ii_2372_4220)">
<path d="M191.488 598.483C115.259 566.908 54.6959 506.345 23.1209 430.116L310.541 311.063L191.488 598.483Z" fill="url(#paint12_linear_2372_4220)"/>
<path d="M191.488 598.483C115.259 566.908 54.6959 506.345 23.1209 430.116L310.541 311.063L191.488 598.483Z" fill="url(#paint13_linear_2372_4220)"/>
</g>
<path d="M209.524 399.991L234.492 424.959L236.719 415.731L242.362 421.374L240.071 430.538L234.852 435.756L204.305 405.209L209.524 399.991ZM184.175 424.067C186.339 421.903 188.708 420.454 191.282 419.718C193.87 418.997 196.458 418.997 199.046 419.718C201.619 420.454 203.988 421.903 206.152 424.067L215.995 433.91C218.159 436.074 219.608 438.442 220.344 441.016C221.065 443.604 221.058 446.185 220.322 448.759C219.601 451.347 218.159 453.723 215.995 455.887C213.831 458.05 211.462 459.486 208.888 460.193C206.315 460.928 203.734 460.935 201.146 460.214C198.558 459.493 196.182 458.05 194.018 455.887L184.175 446.044C182.011 443.88 180.569 441.504 179.848 438.916C179.126 436.328 179.126 433.74 179.848 431.152C180.569 428.592 182.011 426.231 184.175 424.067ZM189.033 428.925C187.958 429.999 187.237 431.23 186.869 432.616C186.516 434.016 186.516 435.402 186.869 436.774C187.237 438.16 187.958 439.39 189.033 440.465L199.618 451.05C200.707 452.139 201.938 452.86 203.309 453.214C204.695 453.582 206.081 453.582 207.467 453.214C208.867 452.86 210.105 452.146 211.18 451.071C212.254 449.996 212.968 448.759 213.322 447.359C213.69 445.973 213.69 444.587 213.322 443.201C212.968 441.829 212.247 440.599 211.158 439.51L200.573 428.925C199.498 427.85 198.268 427.129 196.882 426.761C195.51 426.407 194.124 426.407 192.724 426.761C191.338 427.129 190.108 427.85 189.033 428.925ZM155.826 452.416C157.989 450.253 160.358 448.803 162.932 448.068C165.52 447.346 168.108 447.346 170.696 448.068C173.27 448.803 175.639 450.253 177.803 452.416L187.645 462.259C189.809 464.423 191.259 466.792 191.994 469.366C192.715 471.954 192.708 474.535 191.973 477.108C191.252 479.696 189.809 482.072 187.645 484.236C185.482 486.4 183.113 487.835 180.539 488.542C177.965 489.278 175.384 489.285 172.796 488.564C170.208 487.842 167.832 486.4 165.669 484.236L155.826 474.393C153.662 472.229 152.219 469.854 151.498 467.266C150.777 464.678 150.777 462.09 151.498 459.502C152.219 456.942 153.662 454.58 155.826 452.416ZM160.683 457.274C159.609 458.349 158.887 459.579 158.52 460.965C158.166 462.365 158.166 463.751 158.52 465.123C158.887 466.509 159.609 467.739 160.683 468.814L171.269 479.4C172.358 480.488 173.588 481.21 174.96 481.563C176.346 481.931 177.732 481.931 179.118 481.563C180.518 481.21 181.755 480.496 182.83 479.421C183.905 478.346 184.619 477.108 184.973 475.708C185.34 474.322 185.34 472.937 184.973 471.551C184.619 470.179 183.898 468.948 182.809 467.86L172.223 457.274C171.149 456.199 169.918 455.478 168.532 455.11C167.161 454.757 165.775 454.757 164.375 455.11C162.989 455.478 161.758 456.199 160.683 457.274ZM134.858 474.656L141.647 474.656L141.625 528.983L134.816 528.962L134.858 474.656ZM113.412 494.83C114.812 493.43 116.431 492.49 118.27 492.009C120.108 491.556 121.947 491.556 123.785 492.009C125.638 492.475 127.271 493.416 128.685 494.83C130.071 496.216 130.991 497.842 131.443 499.709C131.896 501.576 131.889 503.436 131.422 505.288C130.955 507.141 130.043 508.746 128.685 510.104C127.285 511.504 125.659 512.437 123.806 512.904C121.968 513.385 120.129 513.385 118.291 512.904C116.452 512.451 114.826 511.518 113.412 510.104C111.998 508.689 111.057 507.056 110.59 505.203C110.124 503.379 110.124 501.541 110.59 499.688C111.071 497.849 112.012 496.23 113.412 494.83ZM117.782 499.2C117.202 499.78 116.813 500.466 116.615 501.258C116.403 502.064 116.396 502.863 116.594 503.655C116.792 504.447 117.188 505.14 117.782 505.734C118.376 506.328 119.069 506.724 119.861 506.922C120.653 507.12 121.452 507.113 122.258 506.9C123.05 506.702 123.736 506.314 124.315 505.734C124.909 505.14 125.305 504.447 125.503 503.655C125.701 502.863 125.708 502.064 125.525 501.258C125.327 500.466 124.931 499.773 124.337 499.179C123.743 498.585 123.05 498.189 122.258 497.991C121.452 497.807 120.653 497.814 119.861 498.012C119.069 498.21 118.376 498.606 117.782 499.2ZM147.798 493.536C149.199 492.136 150.818 491.196 152.656 490.715C154.509 490.248 156.354 490.241 158.193 490.694C160.031 491.174 161.658 492.122 163.072 493.536C164.458 494.922 165.377 496.548 165.83 498.415C166.282 500.282 166.275 502.142 165.808 503.994C165.342 505.847 164.43 507.452 163.072 508.81C161.672 510.21 160.053 511.136 158.214 511.589C156.376 512.069 154.53 512.076 152.677 511.61C150.839 511.157 149.213 510.224 147.798 508.81C146.384 507.395 145.444 505.762 144.977 503.909C144.525 502.071 144.532 500.225 144.998 498.373C145.465 496.548 146.398 494.936 147.798 493.536ZM152.168 497.906C151.574 498.5 151.178 499.193 150.98 499.985C150.782 500.777 150.782 501.569 150.98 502.361C151.178 503.153 151.574 503.846 152.168 504.44C152.762 505.034 153.455 505.43 154.247 505.628C155.039 505.826 155.831 505.826 156.623 505.628C157.415 505.43 158.108 505.034 158.702 504.44C159.296 503.846 159.692 503.153 159.89 502.361C160.088 501.569 160.088 500.777 159.89 499.985C159.692 499.193 159.296 498.5 158.702 497.906C158.108 497.312 157.415 496.916 156.623 496.718C155.831 496.52 155.039 496.52 154.247 496.718C153.455 496.916 152.762 497.312 152.168 497.906Z" fill="white"/>
<path d="M162.813 404.626L166.75 400.689L162.903 396.842L165.822 393.923L169.669 397.77L173.583 393.856L176.344 396.616L172.429 400.531L176.276 404.377L173.357 407.296L169.511 403.45L165.573 407.387L162.813 404.626ZM164.688 421.351L148.848 405.512L152.514 401.846L165.412 414.744L168.579 411.576L171.521 414.518L164.688 421.351ZM139.49 414.328C140.802 413.015 142.295 412.171 143.97 411.793C145.644 411.416 147.387 411.545 149.197 412.178C151.007 412.842 152.764 414.026 154.469 415.731C156.174 417.435 157.35 419.185 157.999 420.98C158.648 422.805 158.783 424.555 158.406 426.23C158.029 427.904 157.184 429.398 155.872 430.71C154.56 432.022 153.066 432.867 151.392 433.244C149.717 433.621 147.975 433.478 146.165 432.814C144.355 432.181 142.597 431.012 140.893 429.307C139.188 427.602 138.011 425.837 137.363 424.012C136.714 422.217 136.578 420.482 136.955 418.808C137.332 417.133 138.177 415.64 139.49 414.328ZM142.59 417.428C141.624 418.393 141.285 419.562 141.571 420.935C141.843 422.323 142.846 423.884 144.581 425.619C146.316 427.354 147.877 428.357 149.265 428.628C150.637 428.915 151.807 428.575 152.772 427.61C153.722 426.66 154.062 425.491 153.79 424.103C153.504 422.73 152.493 421.176 150.758 419.441C149.023 417.707 147.47 416.696 146.097 416.409C144.709 416.138 143.54 416.477 142.59 417.428ZM128.115 442.583L124.766 445.932L118.34 439.505C118.551 437.997 119.049 436.504 119.833 435.025C120.617 433.547 121.583 432.235 122.729 431.088C124.374 429.444 126.199 428.312 128.205 427.694C130.226 427.091 132.233 427.03 134.224 427.513C136.215 428.026 137.995 429.067 139.564 430.636C141.133 432.204 142.166 433.977 142.664 435.953C143.162 437.959 143.094 439.973 142.46 441.994C141.842 444.031 140.703 445.879 139.044 447.538C137.656 448.926 136.162 449.952 134.563 450.616C132.964 451.279 131.335 451.551 129.676 451.43L129.857 446.905C132.18 446.965 134.141 446.196 135.74 444.597C136.751 443.586 137.437 442.477 137.799 441.27C138.161 440.064 138.176 438.857 137.844 437.65C137.513 436.443 136.849 435.342 135.853 434.346C134.873 433.366 133.779 432.71 132.572 432.378C131.365 432.046 130.159 432.046 128.952 432.378C127.745 432.74 126.644 433.419 125.648 434.414C124.592 435.47 123.868 436.647 123.476 437.944L128.115 442.583ZM111.11 459.587L107.762 462.936L101.335 456.51C101.547 455.001 102.044 453.508 102.829 452.029C103.613 450.551 104.579 449.239 105.725 448.092C107.369 446.448 109.195 445.317 111.201 444.698C113.222 444.095 115.229 444.034 117.22 444.517C119.211 445.03 120.991 446.071 122.56 447.64C124.129 449.208 125.162 450.981 125.66 452.957C126.158 454.963 126.09 456.977 125.456 458.999C124.838 461.035 123.699 462.883 122.039 464.542C120.652 465.93 119.158 466.956 117.559 467.62C115.96 468.283 114.331 468.555 112.672 468.434L112.853 463.909C115.176 463.969 117.137 463.2 118.736 461.601C119.747 460.59 120.433 459.481 120.795 458.275C121.157 457.068 121.172 455.861 120.84 454.654C120.508 453.447 119.845 452.346 118.849 451.351C117.869 450.37 116.775 449.714 115.568 449.382C114.361 449.05 113.154 449.05 111.948 449.382C110.741 449.744 109.64 450.423 108.644 451.418C107.588 452.474 106.864 453.651 106.472 454.948L111.11 459.587Z" fill="white"/>
<g filter="url(#filter5_ii_2372_4220)">
<path d="M23.7451 192.112C55.32 115.883 115.883 55.32 192.112 23.7451L311.165 311.165L23.7451 192.112Z" fill="url(#paint14_linear_2372_4220)"/>
<path d="M23.7451 192.112C55.32 115.883 115.883 55.32 192.112 23.7451L311.165 311.165L23.7451 192.112Z" fill="url(#paint15_linear_2372_4220)"/>
</g>
<path d="M196.59 183.013C198.118 184.541 199.263 186.28 200.027 188.232C200.791 190.183 201.13 192.206 201.045 194.299C200.946 196.378 200.373 198.379 199.327 200.302L193.048 196.696C193.91 195.126 194.207 193.542 193.939 191.944C193.642 190.346 192.92 188.988 191.775 187.871C190.771 186.867 189.639 186.202 188.381 185.877C187.122 185.552 185.871 185.559 184.626 185.898C183.367 186.252 182.243 186.924 181.253 187.914C179.74 189.427 178.962 191.18 178.92 193.174C178.877 195.169 179.627 196.936 181.168 198.478C181.635 198.944 182.158 199.34 182.738 199.666C183.304 199.977 183.905 200.224 184.541 200.408L182.844 206.772L163.795 205.287L164.58 203.611L179.111 218.142L174.295 222.958L155.564 204.227L160.401 199.39L176.586 199.708L175.123 201.257C173.397 199.277 172.337 197.184 171.941 194.978C171.53 192.757 171.693 190.586 172.429 188.465C173.15 186.33 174.359 184.413 176.056 182.716C177.979 180.793 180.178 179.541 182.653 178.962C185.114 178.368 187.582 178.417 190.057 179.11C192.503 179.803 194.681 181.104 196.59 183.013ZM169.329 155.625C171.493 157.789 172.942 160.157 173.678 162.731C174.399 165.319 174.399 167.907 173.678 170.495C172.942 173.069 171.493 175.438 169.329 177.602L159.486 187.445C157.322 189.608 154.954 191.058 152.38 191.793C149.792 192.515 147.211 192.507 144.637 191.772C142.049 191.051 139.673 189.608 137.509 187.445C135.346 185.281 133.91 182.912 133.203 180.338C132.468 177.764 132.461 175.183 133.182 172.595C133.903 170.007 135.346 167.631 137.509 165.468L147.352 155.625C149.516 153.461 151.892 152.019 154.48 151.297C157.068 150.576 159.656 150.576 162.244 151.297C164.804 152.019 167.165 153.461 169.329 155.625ZM164.471 160.483C163.396 159.408 162.166 158.687 160.78 158.319C159.38 157.965 157.994 157.965 156.622 158.319C155.236 158.687 154.006 159.408 152.931 160.483L142.346 171.068C141.257 172.157 140.536 173.387 140.182 174.759C139.814 176.145 139.814 177.531 140.182 178.917C140.536 180.317 141.25 181.554 142.325 182.629C143.399 183.704 144.637 184.418 146.037 184.772C147.423 185.139 148.809 185.139 150.195 184.772C151.567 184.418 152.797 183.697 153.886 182.608L164.471 172.023C165.546 170.948 166.267 169.717 166.635 168.332C166.989 166.96 166.989 165.574 166.635 164.174C166.267 162.788 165.546 161.557 164.471 160.483ZM147.089 134.658L147.089 141.446L92.762 141.425L92.7832 134.615L147.089 134.658ZM126.915 113.211C128.315 114.611 129.256 116.23 129.737 118.069C130.189 119.907 130.189 121.746 129.737 123.584C129.27 125.437 128.329 127.07 126.915 128.484C125.529 129.87 123.903 130.79 122.036 131.242C120.169 131.695 118.31 131.688 116.457 131.221C114.605 130.754 112.999 129.842 111.642 128.484C110.242 127.084 109.308 125.458 108.842 123.605C108.361 121.767 108.361 119.929 108.842 118.09C109.294 116.252 110.228 114.625 111.642 113.211C113.056 111.797 114.689 110.856 116.542 110.39C118.366 109.923 120.205 109.923 122.057 110.39C123.896 110.87 125.515 111.811 126.915 113.211ZM122.545 117.581C121.966 117.001 121.28 116.612 120.488 116.414C119.682 116.202 118.883 116.195 118.091 116.393C117.299 116.591 116.606 116.987 116.012 117.581C115.418 118.175 115.022 118.868 114.824 119.66C114.626 120.452 114.633 121.251 114.845 122.057C115.043 122.849 115.432 123.535 116.012 124.115C116.606 124.709 117.299 125.105 118.091 125.303C118.883 125.501 119.682 125.508 120.488 125.324C121.28 125.126 121.973 124.73 122.567 124.136C123.161 123.542 123.557 122.849 123.754 122.057C123.938 121.251 123.931 120.452 123.733 119.66C123.535 118.868 123.139 118.175 122.545 117.581ZM128.209 147.598C129.609 148.998 130.55 150.617 131.031 152.455C131.497 154.308 131.504 156.154 131.052 157.992C130.571 159.831 129.623 161.457 128.209 162.871C126.823 164.257 125.197 165.176 123.33 165.629C121.463 166.081 119.604 166.074 117.751 165.608C115.899 165.141 114.293 164.229 112.936 162.871C111.536 161.471 110.609 159.852 110.157 158.013C109.676 156.175 109.669 154.329 110.136 152.477C110.588 150.638 111.522 149.012 112.936 147.598C114.35 146.183 115.983 145.243 117.836 144.776C119.674 144.324 121.52 144.331 123.373 144.797C125.197 145.264 126.809 146.198 128.209 147.598ZM123.839 151.968C123.245 151.374 122.552 150.978 121.76 150.78C120.968 150.582 120.177 150.582 119.385 150.78C118.593 150.978 117.9 151.374 117.306 151.968C116.712 152.561 116.316 153.254 116.118 154.046C115.92 154.838 115.92 155.63 116.118 156.422C116.316 157.214 116.712 157.907 117.306 158.501C117.9 159.095 118.593 159.491 119.385 159.689C120.177 159.887 120.968 159.887 121.76 159.689C122.552 159.491 123.245 159.095 123.839 158.501C124.433 157.907 124.829 157.214 125.027 156.422C125.225 155.63 125.225 154.838 125.027 154.046C124.829 153.254 124.433 152.561 123.839 151.968Z" fill="white"/>
<path d="M204.665 150.158L208.602 154.095L212.449 150.249L215.368 153.168L211.521 157.014L215.436 160.929L212.675 163.689L208.761 159.775L204.914 163.621L201.995 160.703L205.842 156.856L201.905 152.919L204.665 150.158ZM187.94 152.033L203.779 136.194L207.445 139.859L194.547 152.757L197.715 155.925L194.774 158.866L187.94 152.033ZM186.162 138.352C183.929 136.12 182.73 134.03 182.564 132.084C182.383 130.123 183.039 128.396 184.533 126.903C185.498 125.937 186.622 125.296 187.904 124.979C189.171 124.678 190.544 124.783 192.022 125.296C193.47 125.809 194.919 126.79 196.367 128.238C197.483 129.354 198.441 130.599 199.24 131.971C200.01 133.344 200.5 134.679 200.711 135.976L196.457 137.334C196.306 136.278 195.967 135.23 195.439 134.189C194.896 133.163 194.21 132.235 193.38 131.406C192.46 130.485 191.555 129.942 190.665 129.776C189.775 129.611 189.005 129.852 188.357 130.501C187.678 131.179 187.444 131.971 187.655 132.876C187.851 133.766 188.628 134.89 189.986 136.248L194.036 140.298L184.306 148.399L174.644 138.737L177.586 135.795L184.193 142.403L187.451 139.642L186.162 138.352ZM168.609 117.36L165.26 114.011L171.686 107.585C173.195 107.796 174.688 108.294 176.167 109.079C177.645 109.863 178.957 110.828 180.104 111.975C181.748 113.619 182.879 115.444 183.498 117.451C184.101 119.472 184.162 121.478 183.679 123.47C183.166 125.461 182.125 127.241 180.556 128.81C178.987 130.379 177.215 131.412 175.239 131.91C173.233 132.407 171.219 132.34 169.197 131.706C167.161 131.088 165.313 129.949 163.654 128.289C162.266 126.901 161.24 125.408 160.576 123.809C159.913 122.21 159.641 120.581 159.762 118.922L164.287 119.103C164.227 121.426 164.996 123.387 166.595 124.986C167.606 125.996 168.715 126.683 169.921 127.045C171.128 127.407 172.335 127.422 173.542 127.09C174.749 126.758 175.85 126.094 176.845 125.099C177.826 124.118 178.482 123.025 178.814 121.818C179.146 120.611 179.146 119.404 178.814 118.197C178.452 116.991 177.773 115.889 176.778 114.894C175.722 113.838 174.545 113.114 173.248 112.722L168.609 117.36ZM151.605 100.356L148.256 97.0072L154.682 90.581C156.191 90.7922 157.684 91.29 159.162 92.0744C160.641 92.8589 161.953 93.8243 163.1 94.9707C164.744 96.615 165.875 98.4403 166.494 100.447C167.097 102.468 167.157 104.474 166.675 106.465C166.162 108.457 165.121 110.237 163.552 111.806C161.983 113.374 160.211 114.408 158.235 114.906C156.228 115.403 154.215 115.335 152.193 114.702C150.157 114.083 148.309 112.944 146.649 111.285C145.262 109.897 144.236 108.404 143.572 106.805C142.908 105.206 142.637 103.577 142.758 101.917L147.283 102.098C147.223 104.421 147.992 106.383 149.591 107.982C150.602 108.992 151.71 109.679 152.917 110.041C154.124 110.403 155.331 110.418 156.538 110.086C157.744 109.754 158.846 109.09 159.841 108.095C160.822 107.114 161.478 106.02 161.81 104.814C162.142 103.607 162.142 102.4 161.81 101.193C161.448 99.9865 160.769 98.8853 159.773 97.8897C158.717 96.8337 157.541 96.1097 156.243 95.7175L151.605 100.356Z" fill="white"/>
<g filter="url(#filter6_ii_2372_4220)">
<path d="M598.604 430.237C567.029 506.465 506.465 567.029 430.237 598.604L311.183 311.183L598.604 430.237Z" fill="url(#paint16_linear_2372_4220)"/>
<path d="M598.604 430.237C567.029 506.465 506.465 567.029 430.237 598.604L311.183 311.183L598.604 430.237Z" fill="url(#paint17_linear_2372_4220)"/>
</g>
<path d="M416.107 428.675L420.562 424.22L445.275 425.641C447.199 425.754 448.761 425.606 449.963 425.196C451.166 424.786 452.141 424.206 452.891 423.456C453.909 422.438 454.595 421.314 454.949 420.083C455.316 418.839 455.345 417.594 455.033 416.35C454.736 415.119 454.086 414.002 453.082 412.998C452.021 411.937 450.833 411.244 449.518 410.919C448.231 410.594 446.958 410.608 445.7 410.962C444.441 411.315 443.359 411.973 442.454 412.934L437.193 407.674C439.23 405.637 441.457 404.315 443.875 403.707C446.308 403.113 448.74 403.198 451.173 403.961C453.619 404.739 455.896 406.182 458.003 408.289C459.955 410.24 461.27 412.432 461.949 414.865C462.642 417.283 462.663 419.709 462.013 422.141C461.376 424.559 460.061 426.765 458.067 428.76C456.61 430.216 455.189 431.241 453.803 431.835C452.417 432.429 450.911 432.748 449.285 432.79C447.672 432.847 445.777 432.804 443.6 432.663L426.12 431.602L426.926 429.863L441.945 444.882L437.129 449.697L416.107 428.675ZM452.963 466.888C450.799 464.725 449.35 462.356 448.614 459.782C447.893 457.194 447.893 454.606 448.614 452.018C449.35 449.444 450.799 447.075 452.963 444.911L462.806 435.068C464.97 432.905 467.339 431.455 469.912 430.72C472.501 429.998 475.081 430.006 477.655 430.741C480.243 431.462 482.619 432.905 484.783 435.068C486.947 437.232 488.382 439.601 489.089 442.175C489.825 444.749 489.832 447.33 489.11 449.918C488.389 452.506 486.947 454.882 484.783 457.045L474.94 466.888C472.776 469.052 470.4 470.494 467.812 471.216C465.224 471.937 462.636 471.937 460.048 471.216C457.489 470.494 455.127 469.052 452.963 466.888ZM457.821 462.03C458.896 463.105 460.126 463.826 461.512 464.194C462.912 464.548 464.298 464.548 465.67 464.194C467.056 463.826 468.286 463.105 469.361 462.03L479.946 451.445C481.035 450.356 481.757 449.126 482.11 447.754C482.478 446.368 482.478 444.982 482.11 443.596C481.757 442.196 481.042 440.959 479.968 439.884C478.893 438.809 477.655 438.095 476.255 437.741C474.869 437.374 473.483 437.374 472.097 437.741C470.726 438.095 469.495 438.816 468.406 439.905L457.821 450.49C456.746 451.565 456.025 452.796 455.657 454.182C455.304 455.553 455.304 456.939 455.657 458.339C456.025 459.725 456.746 460.956 457.821 462.03ZM475.203 487.856L475.203 481.067L529.53 481.088L529.509 487.898L475.203 487.856ZM495.377 509.302C493.977 507.902 493.036 506.283 492.556 504.444C492.103 502.606 492.103 500.767 492.556 498.929C493.022 497.076 493.963 495.443 495.377 494.029C496.763 492.643 498.389 491.723 500.256 491.271C502.123 490.818 503.982 490.825 505.835 491.292C507.688 491.759 509.293 492.671 510.65 494.029C512.051 495.429 512.984 497.055 513.451 498.908C513.931 500.746 513.931 502.585 513.451 504.423C512.998 506.261 512.065 507.888 510.65 509.302C509.236 510.716 507.603 511.657 505.75 512.123C503.926 512.59 502.087 512.59 500.235 512.123C498.396 511.643 496.777 510.702 495.377 509.302ZM499.747 504.932C500.327 505.512 501.013 505.901 501.805 506.099C502.611 506.311 503.41 506.318 504.202 506.12C504.994 505.922 505.687 505.526 506.281 504.932C506.875 504.338 507.27 503.645 507.468 502.853C507.666 502.061 507.659 501.262 507.447 500.456C507.249 499.664 506.86 498.978 506.281 498.398C505.687 497.805 504.994 497.409 504.202 497.211C503.41 497.013 502.611 497.005 501.805 497.189C501.013 497.387 500.32 497.783 499.726 498.377C499.132 498.971 498.736 499.664 498.538 500.456C498.354 501.262 498.361 502.061 498.559 502.853C498.757 503.645 499.153 504.338 499.747 504.932ZM494.083 474.915C492.683 473.515 491.742 471.896 491.262 470.058C490.795 468.205 490.788 466.359 491.24 464.521C491.721 462.683 492.669 461.056 494.083 459.642C495.469 458.256 497.095 457.337 498.962 456.884C500.829 456.432 502.688 456.439 504.541 456.905C506.394 457.372 507.999 458.284 509.356 459.642C510.757 461.042 511.683 462.661 512.135 464.5C512.616 466.338 512.623 468.184 512.157 470.036C511.704 471.875 510.771 473.501 509.356 474.915C507.942 476.33 506.309 477.27 504.456 477.737C502.618 478.189 500.772 478.182 498.92 477.716C497.095 477.249 495.483 476.316 494.083 474.915ZM498.453 470.546C499.047 471.14 499.74 471.535 500.532 471.733C501.324 471.931 502.116 471.931 502.908 471.733C503.7 471.535 504.393 471.14 504.987 470.546C505.581 469.952 505.976 469.259 506.174 468.467C506.372 467.675 506.372 466.883 506.174 466.091C505.976 465.299 505.581 464.606 504.987 464.012C504.393 463.418 503.7 463.022 502.908 462.824C502.116 462.626 501.324 462.626 500.532 462.824C499.74 463.022 499.047 463.418 498.453 464.012C497.859 464.606 497.463 465.299 497.265 466.091C497.067 466.883 497.067 467.675 497.265 468.467C497.463 469.259 497.859 469.952 498.453 470.546Z" fill="white"/>
<path d="M414.433 469.161L410.495 465.223L406.649 469.07L403.73 466.151L407.576 462.304L403.662 458.39L406.422 455.629L410.337 459.544L414.184 455.697L417.103 458.616L413.256 462.463L417.193 466.4L414.433 469.161ZM426.043 475.069C427.204 476.683 427.747 478.267 427.672 479.82C427.612 481.359 426.986 482.724 425.794 483.916C424.874 484.836 423.78 485.447 422.513 485.749C421.261 486.035 419.903 485.915 418.44 485.387C416.992 484.874 415.551 483.901 414.118 482.468C413.002 481.351 412.044 480.107 411.244 478.734C410.475 477.361 409.985 476.026 409.774 474.729L414.005 473.349C414.156 474.405 414.495 475.453 415.023 476.494C415.581 477.535 416.275 478.47 417.105 479.3C418.025 480.22 418.923 480.771 419.798 480.952C420.688 481.118 421.457 480.876 422.106 480.228C423.403 478.93 423.063 477.294 421.087 475.317L419.413 473.643L421.834 471.222L428.781 470.792L422.038 464.049L424.979 461.107L436.067 472.195L433.691 474.571L426.043 475.069ZM428.708 497.058C427.396 495.745 426.551 494.252 426.174 492.578C425.797 490.903 425.925 489.161 426.559 487.351C427.222 485.54 428.406 483.783 430.111 482.078C431.816 480.374 433.566 479.197 435.361 478.549C437.186 477.9 438.936 477.764 440.61 478.141C442.285 478.518 443.778 479.363 445.09 480.676C446.403 481.988 447.248 483.481 447.625 485.156C448.002 486.83 447.859 488.573 447.195 490.383C446.561 492.193 445.392 493.95 443.688 495.655C441.983 497.36 440.218 498.536 438.393 499.185C436.598 499.833 434.863 499.969 433.188 499.592C431.514 499.215 430.021 498.37 428.708 497.058ZM431.808 493.958C432.774 494.923 433.943 495.263 435.315 494.976C436.703 494.705 438.265 493.701 439.999 491.967C441.734 490.232 442.737 488.671 443.009 487.283C443.295 485.91 442.956 484.741 441.99 483.776C441.04 482.825 439.871 482.486 438.483 482.757C437.111 483.044 435.557 484.055 433.822 485.789C432.087 487.524 431.077 489.078 430.79 490.451C430.518 491.838 430.858 493.008 431.808 493.958ZM456.963 508.433L460.312 511.782L453.886 518.208C452.377 517.997 450.884 517.499 449.406 516.714C447.927 515.93 446.615 514.965 445.469 513.818C443.824 512.174 442.693 510.349 442.074 508.342C441.471 506.321 441.411 504.315 441.893 502.323C442.406 500.332 443.447 498.552 445.016 496.983C446.585 495.415 448.357 494.381 450.333 493.883C452.34 493.386 454.354 493.454 456.375 494.087C458.411 494.706 460.259 495.844 461.919 497.504C463.307 498.892 464.332 500.385 464.996 501.984C465.66 503.583 465.931 505.212 465.811 506.872L461.285 506.691C461.345 504.367 460.576 502.406 458.977 500.807C457.966 499.797 456.858 499.11 455.651 498.748C454.444 498.386 453.237 498.371 452.031 498.703C450.824 499.035 449.723 499.699 448.727 500.694C447.746 501.675 447.09 502.768 446.758 503.975C446.426 505.182 446.426 506.389 446.758 507.596C447.12 508.802 447.799 509.904 448.795 510.899C449.851 511.955 451.027 512.679 452.325 513.071L456.963 508.433ZM473.967 525.437L477.316 528.786L470.89 535.212C469.382 535.001 467.888 534.503 466.41 533.719C464.932 532.934 463.619 531.969 462.473 530.822C460.828 529.178 459.697 527.353 459.079 525.346C458.475 523.325 458.415 521.319 458.898 519.328C459.41 517.336 460.451 515.556 462.02 513.988C463.589 512.419 465.361 511.385 467.338 510.888C469.344 510.39 471.358 510.458 473.379 511.091C475.416 511.71 477.264 512.849 478.923 514.508C480.311 515.896 481.336 517.389 482 518.988C482.664 520.587 482.935 522.216 482.815 523.876L478.289 523.695C478.35 521.372 477.58 519.411 475.981 517.812C474.971 516.801 473.862 516.115 472.655 515.752C471.448 515.39 470.241 515.375 469.035 515.707C467.828 516.039 466.727 516.703 465.731 517.698C464.751 518.679 464.094 519.773 463.762 520.979C463.431 522.186 463.431 523.393 463.762 524.6C464.125 525.807 464.803 526.908 465.799 527.903C466.855 528.959 468.032 529.683 469.329 530.076L473.967 525.437Z" fill="white"/>
<g filter="url(#filter7_ii_2372_4220)">
<path d="M430.237 23.7451C506.465 55.32 567.029 115.883 598.604 192.112L311.183 311.165L430.237 23.7451Z" fill="url(#paint18_linear_2372_4220)"/>
<path d="M430.237 23.7451C506.465 55.32 567.029 115.883 598.604 192.112L311.183 311.165L430.237 23.7451Z" fill="url(#paint19_linear_2372_4220)"/>
</g>
<path d="M433.328 201.502L418.139 165.27L404.796 178.613L399.96 173.776L418.776 154.96L423.612 159.797L438.843 195.987L433.328 201.502ZM466.45 169.652C464.287 171.816 461.918 173.266 459.344 174.001C456.756 174.722 454.168 174.722 451.58 174.001C449.006 173.266 446.637 171.816 444.474 169.652L434.631 159.809C432.467 157.646 431.017 155.277 430.282 152.703C429.561 150.115 429.568 147.534 430.303 144.96C431.024 142.372 432.467 139.996 434.631 137.833C436.794 135.669 439.163 134.233 441.737 133.526C444.311 132.791 446.892 132.784 449.48 133.505C452.068 134.226 454.444 135.669 456.607 137.833L466.45 147.675C468.614 149.839 470.057 152.215 470.778 154.803C471.499 157.391 471.499 159.979 470.778 162.567C470.057 165.127 468.614 167.489 466.45 169.652ZM461.593 164.794C462.667 163.72 463.389 162.489 463.756 161.103C464.11 159.703 464.11 158.317 463.756 156.946C463.389 155.56 462.667 154.329 461.593 153.255L451.007 142.669C449.918 141.58 448.688 140.859 447.316 140.505C445.93 140.138 444.544 140.138 443.158 140.505C441.758 140.859 440.521 141.573 439.446 142.648C438.371 143.723 437.657 144.96 437.303 146.36C436.936 147.746 436.936 149.132 437.303 150.518C437.657 151.89 438.378 153.12 439.467 154.209L450.053 164.794C451.127 165.869 452.358 166.591 453.744 166.958C455.115 167.312 456.501 167.312 457.901 166.958C459.287 166.591 460.518 165.869 461.593 164.794ZM487.418 147.412L480.629 147.412L480.651 93.0852L487.46 93.1065L487.418 147.412ZM508.864 127.239C507.464 128.639 505.845 129.579 504.006 130.06C502.168 130.512 500.329 130.512 498.491 130.06C496.638 129.593 495.005 128.653 493.591 127.239C492.205 125.853 491.286 124.226 490.833 122.359C490.38 120.493 490.388 118.633 490.854 116.78C491.321 114.928 492.233 113.323 493.591 111.965C494.991 110.565 496.617 109.632 498.47 109.165C500.308 108.684 502.147 108.684 503.985 109.165C505.824 109.617 507.45 110.551 508.864 111.965C510.278 113.379 511.219 115.013 511.686 116.865C512.152 118.69 512.152 120.528 511.686 122.381C511.205 124.219 510.264 125.838 508.864 127.239ZM504.494 122.869C505.074 122.289 505.463 121.603 505.661 120.811C505.873 120.005 505.88 119.206 505.682 118.414C505.484 117.622 505.088 116.929 504.494 116.335C503.9 115.741 503.207 115.345 502.415 115.147C501.623 114.949 500.824 114.956 500.018 115.168C499.226 115.366 498.54 115.755 497.961 116.335C497.367 116.929 496.971 117.622 496.773 118.414C496.575 119.206 496.568 120.005 496.751 120.811C496.949 121.603 497.345 122.296 497.939 122.89C498.533 123.484 499.226 123.88 500.018 124.078C500.824 124.262 501.623 124.255 502.415 124.057C503.207 123.859 503.9 123.463 504.494 122.869ZM474.478 128.533C473.078 129.933 471.458 130.873 469.62 131.354C467.767 131.821 465.922 131.828 464.083 131.375C462.245 130.894 460.618 129.947 459.204 128.533C457.818 127.147 456.899 125.52 456.446 123.653C455.994 121.787 456.001 119.927 456.468 118.074C456.934 116.222 457.846 114.617 459.204 113.259C460.604 111.859 462.223 110.933 464.062 110.48C465.9 109.999 467.746 109.992 469.599 110.459C471.437 110.911 473.063 111.845 474.478 113.259C475.892 114.673 476.832 116.307 477.299 118.159C477.752 119.998 477.744 121.843 477.278 123.696C476.811 125.52 475.878 127.132 474.478 128.533ZM470.108 124.163C470.702 123.569 471.098 122.876 471.296 122.084C471.494 121.292 471.494 120.5 471.296 119.708C471.098 118.916 470.702 118.223 470.108 117.629C469.514 117.035 468.821 116.639 468.029 116.441C467.237 116.243 466.445 116.243 465.653 116.441C464.861 116.639 464.168 117.035 463.574 117.629C462.98 118.223 462.584 118.916 462.386 119.708C462.188 120.5 462.188 121.292 462.386 122.084C462.584 122.876 462.98 123.569 463.574 124.163C464.168 124.757 464.861 125.153 465.653 125.351C466.445 125.549 467.237 125.549 468.029 125.351C468.821 125.153 469.514 124.757 470.108 124.163Z" fill="white"/>
<path d="M470.049 206.857L466.111 210.794L469.958 214.641L467.039 217.56L463.192 213.713L459.278 217.628L456.517 214.867L460.432 210.953L456.585 207.106L459.504 204.187L463.351 208.034L467.288 204.097L470.049 206.857ZM486.884 197.127L489.87 200.114L477.9 212.084L475.525 209.708L475.864 197.829C475.894 196.561 475.804 195.596 475.592 194.932C475.366 194.253 475.034 193.695 474.597 193.258C473.963 192.624 473.262 192.36 472.493 192.466C471.723 192.541 470.924 192.994 470.094 193.824C469.4 194.517 468.91 195.279 468.623 196.109C468.322 196.924 468.246 197.783 468.397 198.688L464.007 199.639C463.706 198.1 463.841 196.531 464.415 194.932C464.973 193.318 465.953 191.81 467.356 190.407C468.533 189.23 469.755 188.401 471.022 187.918C472.289 187.405 473.518 187.262 474.71 187.488C475.902 187.684 476.973 188.257 477.923 189.208C478.783 190.067 479.409 191.055 479.801 192.172C480.193 193.288 480.352 194.849 480.276 196.856L480.073 203.938L486.884 197.127ZM497.946 192.582C496.633 193.894 495.14 194.739 493.466 195.116C491.791 195.493 490.049 195.365 488.239 194.731C486.429 194.067 484.671 192.883 482.967 191.179C481.262 189.474 480.085 187.724 479.437 185.929C478.788 184.104 478.652 182.354 479.029 180.679C479.406 179.005 480.251 177.512 481.564 176.199C482.876 174.887 484.369 174.042 486.044 173.665C487.718 173.288 489.461 173.431 491.271 174.095C493.081 174.728 494.838 175.898 496.543 177.602C498.248 179.307 499.424 181.072 500.073 182.897C500.722 184.692 500.857 186.427 500.48 188.101C500.103 189.776 499.258 191.269 497.946 192.582ZM494.846 189.482C495.811 188.516 496.151 187.347 495.864 185.974C495.593 184.586 494.589 183.025 492.855 181.29C491.12 179.556 489.559 178.553 488.171 178.281C486.798 177.994 485.629 178.334 484.664 179.299C483.713 180.25 483.374 181.419 483.645 182.806C483.932 184.179 484.943 185.733 486.677 187.468C488.412 189.202 489.966 190.213 491.339 190.5C492.726 190.771 493.896 190.432 494.846 189.482ZM509.321 164.326L512.67 160.978L519.096 167.404C518.885 168.912 518.387 170.406 517.603 171.884C516.818 173.362 515.853 174.675 514.706 175.821C513.062 177.465 511.237 178.597 509.23 179.215C507.209 179.819 505.203 179.879 503.212 179.396C501.22 178.883 499.44 177.843 497.871 176.274C496.303 174.705 495.269 172.932 494.771 170.956C494.274 168.95 494.342 166.936 494.975 164.915C495.594 162.878 496.733 161.03 498.392 159.371C499.78 157.983 501.273 156.957 502.872 156.294C504.471 155.63 506.1 155.358 507.76 155.479L507.579 160.005C505.256 159.944 503.294 160.714 501.695 162.313C500.685 163.323 499.998 164.432 499.636 165.639C499.274 166.846 499.259 168.052 499.591 169.259C499.923 170.466 500.587 171.567 501.582 172.563C502.563 173.543 503.657 174.2 504.863 174.531C506.07 174.863 507.277 174.863 508.484 174.531C509.691 174.169 510.792 173.491 511.787 172.495C512.843 171.439 513.567 170.262 513.96 168.965L509.321 164.326ZM526.325 147.322L529.674 143.973L536.1 150.4C535.889 151.908 535.391 153.401 534.607 154.88C533.822 156.358 532.857 157.671 531.71 158.817C530.066 160.461 528.241 161.593 526.235 162.211C524.213 162.814 522.207 162.875 520.216 162.392C518.224 161.879 516.444 160.838 514.876 159.27C513.307 157.701 512.273 155.928 511.776 153.952C511.278 151.946 511.346 149.932 511.979 147.911C512.598 145.874 513.737 144.026 515.396 142.367C516.784 140.979 518.277 139.953 519.876 139.29C521.475 138.626 523.104 138.354 524.764 138.475L524.583 143C522.26 142.94 520.299 143.709 518.7 145.308C517.689 146.319 517.003 147.428 516.641 148.635C516.278 149.841 516.263 151.048 516.595 152.255C516.927 153.462 517.591 154.563 518.586 155.559C519.567 156.539 520.661 157.195 521.867 157.527C523.074 157.859 524.281 157.859 525.488 157.527C526.695 157.165 527.796 156.486 528.791 155.491C529.847 154.435 530.571 153.258 530.964 151.961L526.325 147.322Z" fill="white"/>
<defs>
<filter id="filter0_ii_2372_4220" x="305.644" y="192.047" width="318.379" height="238.107" filterUnits="userSpaceOnUse" color-interpolation-filters="sRGB">
<feFlood flood-opacity="0" result="BackgroundImageFix"/>
<feBlend mode="normal" in="SourceGraphic" in2="BackgroundImageFix" result="shape"/>
<feColorMatrix in="SourceAlpha" type="matrix" values="0 0 0 0 0 0 0 0 0 0 0 0 0 0 0 0 0 0 127 0" result="hardAlpha"/>
<feOffset dx="-5.45792"/>
<feGaussianBlur stdDeviation="3.63861"/>
<feComposite in2="hardAlpha" operator="arithmetic" k2="-1" k3="1"/>
<feColorMatrix type="matrix" values="0 0 0 0 1 0 0 0 0 1 0 0 0 0 1 0 0 0 0.25 0"/>
<feBlend mode="normal" in2="shape" result="effect1_innerShadow_2372_4220"/>
<feColorMatrix in="SourceAlpha" type="matrix" values="0 0 0 0 0 0 0 0 0 0 0 0 0 0 0 0 0 0 127 0" result="hardAlpha"/>
<feOffset dx="3.63861"/>
<feGaussianBlur stdDeviation="0.909653"/>
<feComposite in2="hardAlpha" operator="arithmetic" k2="-1" k3="1"/>
<feColorMatrix type="matrix" values="0 0 0 0 0 0 0 0 0 0 0 0 0 0 0 0 0 0 0.16 0"/>
<feBlend mode="normal" in2="effect1_innerShadow_2372_4220" result="effect2_innerShadow_2372_4220"/>
</filter>
<filter id="filter1_ii_2372_4220" x="-5.45792" y="191.893" width="318.379" height="238.107" filterUnits="userSpaceOnUse" color-interpolation-filters="sRGB">
<feFlood flood-opacity="0" result="BackgroundImageFix"/>
<feBlend mode="normal" in="SourceGraphic" in2="BackgroundImageFix" result="shape"/>
<feColorMatrix in="SourceAlpha" type="matrix" values="0 0 0 0 0 0 0 0 0 0 0 0 0 0 0 0 0 0 127 0" result="hardAlpha"/>
<feOffset dx="-5.45792"/>
<feGaussianBlur stdDeviation="3.63861"/>
<feComposite in2="hardAlpha" operator="arithmetic" k2="-1" k3="1"/>
<feColorMatrix type="matrix" values="0 0 0 0 1 0 0 0 0 1 0 0 0 0 1 0 0 0 0.25 0"/>
<feBlend mode="normal" in2="shape" result="effect1_innerShadow_2372_4220"/>
<feColorMatrix in="SourceAlpha" type="matrix" values="0 0 0 0 0 0 0 0 0 0 0 0 0 0 0 0 0 0 127 0" result="hardAlpha"/>
<feOffset dx="3.63861"/>
<feGaussianBlur stdDeviation="0.909653"/>
<feComposite in2="hardAlpha" operator="arithmetic" k2="-1" k3="1"/>
<feColorMatrix type="matrix" values="0 0 0 0 0 0 0 0 0 0 0 0 0 0 0 0 0 0 0.16 0"/>
<feBlend mode="normal" in2="effect1_innerShadow_2372_4220" result="effect2_innerShadow_2372_4220"/>
</filter>
<filter id="filter2_ii_2372_4220" x="186.589" y="0" width="245.384" height="311.101" filterUnits="userSpaceOnUse" color-interpolation-filters="sRGB">
<feFlood flood-opacity="0" result="BackgroundImageFix"/>
<feBlend mode="normal" in="SourceGraphic" in2="BackgroundImageFix" result="shape"/>
<feColorMatrix in="SourceAlpha" type="matrix" values="0 0 0 0 0 0 0 0 0 0 0 0 0 0 0 0 0 0 127 0" result="hardAlpha"/>
<feOffset dx="-5.45792"/>
<feGaussianBlur stdDeviation="3.63861"/>
<feComposite in2="hardAlpha" operator="arithmetic" k2="-1" k3="1"/>
<feColorMatrix type="matrix" values="0 0 0 0 1 0 0 0 0 1 0 0 0 0 1 0 0 0 0.25 0"/>
<feBlend mode="normal" in2="shape" result="effect1_innerShadow_2372_4220"/>
<feColorMatrix in="SourceAlpha" type="matrix" values="0 0 0 0 0 0 0 0 0 0 0 0 0 0 0 0 0 0 127 0" result="hardAlpha"/>
<feOffset dx="3.63861"/>
<feGaussianBlur stdDeviation="0.909653"/>
<feComposite in2="hardAlpha" operator="arithmetic" k2="-1" k3="1"/>
<feColorMatrix type="matrix" values="0 0 0 0 0 0 0 0 0 0 0 0 0 0 0 0 0 0 0.16 0"/>
<feBlend mode="normal" in2="effect1_innerShadow_2372_4220" result="effect2_innerShadow_2372_4220"/>
</filter>
<filter id="filter3_ii_2372_4220" x="186.435" y="311.102" width="245.384" height="311.101" filterUnits="userSpaceOnUse" color-interpolation-filters="sRGB">
<feFlood flood-opacity="0" result="BackgroundImageFix"/>
<feBlend mode="normal" in="SourceGraphic" in2="BackgroundImageFix" result="shape"/>
<feColorMatrix in="SourceAlpha" type="matrix" values="0 0 0 0 0 0 0 0 0 0 0 0 0 0 0 0 0 0 127 0" result="hardAlpha"/>
<feOffset dx="-5.45792"/>
<feGaussianBlur stdDeviation="3.63861"/>
<feComposite in2="hardAlpha" operator="arithmetic" k2="-1" k3="1"/>
<feColorMatrix type="matrix" values="0 0 0 0 1 0 0 0 0 1 0 0 0 0 1 0 0 0 0.25 0"/>
<feBlend mode="normal" in2="shape" result="effect1_innerShadow_2372_4220"/>
<feColorMatrix in="SourceAlpha" type="matrix" values="0 0 0 0 0 0 0 0 0 0 0 0 0 0 0 0 0 0 127 0" result="hardAlpha"/>
<feOffset dx="3.63861"/>
<feGaussianBlur stdDeviation="0.909653"/>
<feComposite in2="hardAlpha" operator="arithmetic" k2="-1" k3="1"/>
<feColorMatrix type="matrix" values="0 0 0 0 0 0 0 0 0 0 0 0 0 0 0 0 0 0 0.16 0"/>
<feBlend mode="normal" in2="effect1_innerShadow_2372_4220" result="effect2_innerShadow_2372_4220"/>
</filter>
<filter id="filter4_ii_2372_4220" x="17.6629" y="311.063" width="294.698" height="287.42" filterUnits="userSpaceOnUse" color-interpolation-filters="sRGB">
<feFlood flood-opacity="0" result="BackgroundImageFix"/>
<feBlend mode="normal" in="SourceGraphic" in2="BackgroundImageFix" result="shape"/>
<feColorMatrix in="SourceAlpha" type="matrix" values="0 0 0 0 0 0 0 0 0 0 0 0 0 0 0 0 0 0 127 0" result="hardAlpha"/>
<feOffset dx="-5.45792"/>
<feGaussianBlur stdDeviation="3.63861"/>
<feComposite in2="hardAlpha" operator="arithmetic" k2="-1" k3="1"/>
<feColorMatrix type="matrix" values="0 0 0 0 1 0 0 0 0 1 0 0 0 0 1 0 0 0 0.25 0"/>
<feBlend mode="normal" in2="shape" result="effect1_innerShadow_2372_4220"/>
<feColorMatrix in="SourceAlpha" type="matrix" values="0 0 0 0 0 0 0 0 0 0 0 0 0 0 0 0 0 0 127 0" result="hardAlpha"/>
<feOffset dx="3.63861"/>
<feGaussianBlur stdDeviation="0.909653"/>
<feComposite in2="hardAlpha" operator="arithmetic" k2="-1" k3="1"/>
<feColorMatrix type="matrix" values="0 0 0 0 0 0 0 0 0 0 0 0 0 0 0 0 0 0 0.16 0"/>
<feBlend mode="normal" in2="effect1_innerShadow_2372_4220" result="effect2_innerShadow_2372_4220"/>
</filter>
<filter id="filter5_ii_2372_4220" x="18.2872" y="23.7451" width="294.697" height="287.42" filterUnits="userSpaceOnUse" color-interpolation-filters="sRGB">
<feFlood flood-opacity="0" result="BackgroundImageFix"/>
<feBlend mode="normal" in="SourceGraphic" in2="BackgroundImageFix" result="shape"/>
<feColorMatrix in="SourceAlpha" type="matrix" values="0 0 0 0 0 0 0 0 0 0 0 0 0 0 0 0 0 0 127 0" result="hardAlpha"/>
<feOffset dx="-5.45792"/>
<feGaussianBlur stdDeviation="3.63861"/>
<feComposite in2="hardAlpha" operator="arithmetic" k2="-1" k3="1"/>
<feColorMatrix type="matrix" values="0 0 0 0 1 0 0 0 0 1 0 0 0 0 1 0 0 0 0.25 0"/>
<feBlend mode="normal" in2="shape" result="effect1_innerShadow_2372_4220"/>
<feColorMatrix in="SourceAlpha" type="matrix" values="0 0 0 0 0 0 0 0 0 0 0 0 0 0 0 0 0 0 127 0" result="hardAlpha"/>
<feOffset dx="3.63861"/>
<feGaussianBlur stdDeviation="0.909653"/>
<feComposite in2="hardAlpha" operator="arithmetic" k2="-1" k3="1"/>
<feColorMatrix type="matrix" values="0 0 0 0 0 0 0 0 0 0 0 0 0 0 0 0 0 0 0.16 0"/>
<feBlend mode="normal" in2="effect1_innerShadow_2372_4220" result="effect2_innerShadow_2372_4220"/>
</filter>
<filter id="filter6_ii_2372_4220" x="305.726" y="311.183" width="294.697" height="287.42" filterUnits="userSpaceOnUse" color-interpolation-filters="sRGB">
<feFlood flood-opacity="0" result="BackgroundImageFix"/>
<feBlend mode="normal" in="SourceGraphic" in2="BackgroundImageFix" result="shape"/>
<feColorMatrix in="SourceAlpha" type="matrix" values="0 0 0 0 0 0 0 0 0 0 0 0 0 0 0 0 0 0 127 0" result="hardAlpha"/>
<feOffset dx="-5.45792"/>
<feGaussianBlur stdDeviation="3.63861"/>
<feComposite in2="hardAlpha" operator="arithmetic" k2="-1" k3="1"/>
<feColorMatrix type="matrix" values="0 0 0 0 1 0 0 0 0 1 0 0 0 0 1 0 0 0 0.25 0"/>
<feBlend mode="normal" in2="shape" result="effect1_innerShadow_2372_4220"/>
<feColorMatrix in="SourceAlpha" type="matrix" values="0 0 0 0 0 0 0 0 0 0 0 0 0 0 0 0 0 0 127 0" result="hardAlpha"/>
<feOffset dx="3.63861"/>
<feGaussianBlur stdDeviation="0.909653"/>
<feComposite in2="hardAlpha" operator="arithmetic" k2="-1" k3="1"/>
<feColorMatrix type="matrix" values="0 0 0 0 0 0 0 0 0 0 0 0 0 0 0 0 0 0 0.16 0"/>
<feBlend mode="normal" in2="effect1_innerShadow_2372_4220" result="effect2_innerShadow_2372_4220"/>
</filter>
<filter id="filter7_ii_2372_4220" x="305.725" y="23.7451" width="294.698" height="287.42" filterUnits="userSpaceOnUse" color-interpolation-filters="sRGB">
<feFlood flood-opacity="0" result="BackgroundImageFix"/>
<feBlend mode="normal" in="SourceGraphic" in2="BackgroundImageFix" result="shape"/>
<feColorMatrix in="SourceAlpha" type="matrix" values="0 0 0 0 0 0 0 0 0 0 0 0 0 0 0 0 0 0 127 0" result="hardAlpha"/>
<feOffset dx="-5.45792"/>
<feGaussianBlur stdDeviation="3.63861"/>
<feComposite in2="hardAlpha" operator="arithmetic" k2="-1" k3="1"/>
<feColorMatrix type="matrix" values="0 0 0 0 1 0 0 0 0 1 0 0 0 0 1 0 0 0 0.25 0"/>
<feBlend mode="normal" in2="shape" result="effect1_innerShadow_2372_4220"/>
<feColorMatrix in="SourceAlpha" type="matrix" values="0 0 0 0 0 0 0 0 0 0 0 0 0 0 0 0 0 0 127 0" result="hardAlpha"/>
<feOffset dx="3.63861"/>
<feGaussianBlur stdDeviation="0.909653"/>
<feComposite in2="hardAlpha" operator="arithmetic" k2="-1" k3="1"/>
<feColorMatrix type="matrix" values="0 0 0 0 0 0 0 0 0 0 0 0 0 0 0 0 0 0 0.16 0"/>
<feBlend mode="normal" in2="effect1_innerShadow_2372_4220" result="effect2_innerShadow_2372_4220"/>
</filter>
<linearGradient id="paint0_linear_2372_4220" x1="622.203" y1="311.1" x2="315.309" y2="275.166" gradientUnits="userSpaceOnUse">
<stop stop-color="#FAFAFA"/>
<stop offset="1" stop-color="#BE9DDD"/>
</linearGradient>
<linearGradient id="paint1_linear_2372_4220" x1="486.5" y1="268.928" x2="529.888" y2="357.614" gradientUnits="userSpaceOnUse">
<stop stop-color="#211BBF"/>
<stop offset="1" stop-color="#6A2EBC"/>
</linearGradient>
<linearGradient id="paint2_linear_2372_4220" x1="498.534" y1="334.149" x2="513.578" y2="381.661" gradientUnits="userSpaceOnUse">
<stop stop-color="#211BBF"/>
<stop offset="1" stop-color="#6A2EBC"/>
</linearGradient>
<linearGradient id="paint3_linear_2372_4220" x1="0.000112892" y1="310.947" x2="306.894" y2="346.881" gradientUnits="userSpaceOnUse">
<stop stop-color="#FAFAFA"/>
<stop offset="1" stop-color="#BE9DDD"/>
</linearGradient>
<linearGradient id="paint4_linear_2372_4220" x1="48.1591" y1="268.772" x2="91.9526" y2="356.93" gradientUnits="userSpaceOnUse">
<stop stop-color="#211BBF"/>
<stop offset="1" stop-color="#6A2EBC"/>
</linearGradient>
<linearGradient id="paint5_linear_2372_4220" x1="59.5341" y1="333.992" x2="74.5784" y2="381.505" gradientUnits="userSpaceOnUse">
<stop stop-color="#211BBF"/>
<stop offset="1" stop-color="#6A2EBC"/>
</linearGradient>
<linearGradient id="paint6_linear_2372_4220" x1="311.101" y1="-1.81666e-05" x2="275.166" y2="306.894" gradientUnits="userSpaceOnUse">
<stop stop-color="#FAFAFA"/>
<stop offset="1" stop-color="#BE9DDD"/>
</linearGradient>
<linearGradient id="paint7_linear_2372_4220" x1="268.928" y1="133.841" x2="357.087" y2="90.0473" gradientUnits="userSpaceOnUse">
<stop stop-color="#211BBF"/>
<stop offset="1" stop-color="#6A2EBC"/>
</linearGradient>
<linearGradient id="paint8_linear_2372_4220" x1="334.149" y1="123.954" x2="381.918" y2="109.282" gradientUnits="userSpaceOnUse">
<stop stop-color="#211BBF"/>
<stop offset="1" stop-color="#6A2EBC"/>
</linearGradient>
<linearGradient id="paint9_linear_2372_4220" x1="310.947" y1="622.203" x2="346.881" y2="315.309" gradientUnits="userSpaceOnUse">
<stop stop-color="#FAFAFA"/>
<stop offset="1" stop-color="#BE9DDD"/>
</linearGradient>
<linearGradient id="paint10_linear_2372_4220" x1="353.916" y1="462.784" x2="258.915" y2="500.422" gradientUnits="userSpaceOnUse">
<stop stop-color="#211BBF"/>
<stop offset="1" stop-color="#6A2EBC"/>
</linearGradient>
<linearGradient id="paint11_linear_2372_4220" x1="288.695" y1="481.239" x2="240.399" y2="495.102" gradientUnits="userSpaceOnUse">
<stop stop-color="#211BBF"/>
<stop offset="1" stop-color="#6A2EBC"/>
</linearGradient>
<linearGradient id="paint12_linear_2372_4220" x1="421.002" y1="563.595" x2="33.5977" y2="556.904" gradientUnits="userSpaceOnUse">
<stop stop-color="#2A214C"/>
<stop offset="1" stop-color="#211D57"/>
</linearGradient>
<linearGradient id="paint13_linear_2372_4220" x1="332.975" y1="363.085" x2="-114.707" y2="567.63" gradientUnits="userSpaceOnUse">
<stop offset="0.175501" stop-color="#3230F2"/>
<stop offset="0.47446" stop-color="#9739F1"/>
<stop offset="0.751453" stop-color="#321F7D"/>
</linearGradient>
<linearGradient id="paint14_linear_2372_4220" x1="58.6331" y1="421.626" x2="65.3236" y2="34.2218" gradientUnits="userSpaceOnUse">
<stop stop-color="#2A214C"/>
<stop offset="1" stop-color="#211D57"/>
</linearGradient>
<linearGradient id="paint15_linear_2372_4220" x1="259.143" y1="333.599" x2="54.5984" y2="-114.083" gradientUnits="userSpaceOnUse">
<stop offset="0.175501" stop-color="#3230F2"/>
<stop offset="0.47446" stop-color="#9739F1"/>
<stop offset="0.751453" stop-color="#321F7D"/>
</linearGradient>
<linearGradient id="paint16_linear_2372_4220" x1="563.716" y1="200.723" x2="557.025" y2="588.127" gradientUnits="userSpaceOnUse">
<stop stop-color="#2A214C"/>
<stop offset="1" stop-color="#211D57"/>
</linearGradient>
<linearGradient id="paint17_linear_2372_4220" x1="363.206" y1="288.749" x2="567.75" y2="736.432" gradientUnits="userSpaceOnUse">
<stop offset="0.175501" stop-color="#3230F2"/>
<stop offset="0.47446" stop-color="#9739F1"/>
<stop offset="0.751453" stop-color="#321F7D"/>
</linearGradient>
<linearGradient id="paint18_linear_2372_4220" x1="200.723" y1="58.6331" x2="588.127" y2="65.3236" gradientUnits="userSpaceOnUse">
<stop stop-color="#2A214C"/>
<stop offset="1" stop-color="#211D57"/>
</linearGradient>
<linearGradient id="paint19_linear_2372_4220" x1="288.749" y1="259.143" x2="736.432" y2="54.5984" gradientUnits="userSpaceOnUse">
<stop offset="0.175501" stop-color="#3230F2"/>
<stop offset="0.47446" stop-color="#9739F1"/>
<stop offset="0.751453" stop-color="#321F7D"/>
</linearGradient>
</defs>
</svg>
