<svg width="36" height="36" viewBox="0 0 36 36" fill="none" xmlns="http://www.w3.org/2000/svg">
<circle cx="17.6049" cy="17.6049" r="16.7666" stroke="url(#paint0_linear_2002_236)" stroke-width="1.67666"/>
<mask id="path-2-outside-1_2002_236" maskUnits="userSpaceOnUse" x="9.22168" y="13.7366" width="19" height="10" fill="black">
<rect fill="white" x="9.22168" y="13.7366" width="19" height="10"/>
<path d="M11.6965 22.7366V16.0803L12.1204 16.3323L10.0467 17.8331V16.0459L11.8454 14.7169H13.3004V22.7366H11.6965ZM17.9325 22.8855C17.2681 22.8855 16.6876 22.79 16.1911 22.5991C15.7023 22.4005 15.3243 22.1217 15.0569 21.7628C14.7896 21.4038 14.6559 20.9875 14.6559 20.514C14.6559 20.0404 14.7896 19.6318 15.0569 19.2881C15.3243 18.9444 15.6909 18.7077 16.1568 18.5778V18.5205C15.7138 18.3678 15.3815 18.1501 15.16 17.8675C14.9462 17.5773 14.8393 17.2221 14.8393 16.802C14.8393 16.3591 14.9615 15.9695 15.2059 15.6335C15.4579 15.2974 15.8169 15.0377 16.2828 14.8544C16.7563 14.6635 17.3062 14.568 17.9325 14.568C18.5665 14.568 19.1164 14.6635 19.5823 14.8544C20.0482 15.0377 20.4072 15.3012 20.6592 15.6449C20.9113 15.981 21.0373 16.3667 21.0373 16.802C21.0373 17.2221 20.9265 17.5773 20.705 17.8675C20.4912 18.1501 20.1628 18.3678 19.7198 18.5205V18.5778C20.1857 18.7077 20.5523 18.9444 20.8196 19.2881C21.0869 19.6318 21.2206 20.0404 21.2206 20.514C21.2206 20.9875 21.0831 21.4038 20.8082 21.7628C20.5408 22.1217 20.1589 22.4005 19.6625 22.5991C19.1737 22.79 18.597 22.8855 17.9325 22.8855ZM17.9325 21.442C18.4672 21.442 18.872 21.3503 19.1469 21.167C19.4219 20.9837 19.5594 20.7164 19.5594 20.3651C19.5594 20.0214 19.4219 19.7579 19.1469 19.5745C18.872 19.3836 18.4672 19.2881 17.9325 19.2881C17.3979 19.2881 16.9931 19.3836 16.7181 19.5745C16.4508 19.7579 16.3172 20.0214 16.3172 20.3651C16.3172 20.7164 16.4508 20.9837 16.7181 21.167C16.9931 21.3503 17.3979 21.442 17.9325 21.442ZM17.9325 17.9363C18.429 17.9363 18.7956 17.8522 19.0324 17.6842C19.2768 17.5162 19.399 17.2756 19.399 16.9624C19.399 16.6417 19.2768 16.3972 19.0324 16.2292C18.7956 16.0612 18.429 15.9772 17.9325 15.9772C17.4361 15.9772 17.0695 16.0612 16.8327 16.2292C16.5959 16.3972 16.4776 16.6417 16.4776 16.9624C16.4776 17.2756 16.5959 17.5162 16.8327 17.6842C17.0695 17.8522 17.4361 17.9363 17.9325 17.9363ZM24.6168 21.2128V16.023H25.8655V21.2128H24.6168ZM22.6462 19.2423V17.9935H27.8361V19.2423H22.6462Z"/>
</mask>
<path d="M11.6965 22.7366V16.0803L12.1204 16.3323L10.0467 17.8331V16.0459L11.8454 14.7169H13.3004V22.7366H11.6965ZM17.9325 22.8855C17.2681 22.8855 16.6876 22.79 16.1911 22.5991C15.7023 22.4005 15.3243 22.1217 15.0569 21.7628C14.7896 21.4038 14.6559 20.9875 14.6559 20.514C14.6559 20.0404 14.7896 19.6318 15.0569 19.2881C15.3243 18.9444 15.6909 18.7077 16.1568 18.5778V18.5205C15.7138 18.3678 15.3815 18.1501 15.16 17.8675C14.9462 17.5773 14.8393 17.2221 14.8393 16.802C14.8393 16.3591 14.9615 15.9695 15.2059 15.6335C15.4579 15.2974 15.8169 15.0377 16.2828 14.8544C16.7563 14.6635 17.3062 14.568 17.9325 14.568C18.5665 14.568 19.1164 14.6635 19.5823 14.8544C20.0482 15.0377 20.4072 15.3012 20.6592 15.6449C20.9113 15.981 21.0373 16.3667 21.0373 16.802C21.0373 17.2221 20.9265 17.5773 20.705 17.8675C20.4912 18.1501 20.1628 18.3678 19.7198 18.5205V18.5778C20.1857 18.7077 20.5523 18.9444 20.8196 19.2881C21.0869 19.6318 21.2206 20.0404 21.2206 20.514C21.2206 20.9875 21.0831 21.4038 20.8082 21.7628C20.5408 22.1217 20.1589 22.4005 19.6625 22.5991C19.1737 22.79 18.597 22.8855 17.9325 22.8855ZM17.9325 21.442C18.4672 21.442 18.872 21.3503 19.1469 21.167C19.4219 20.9837 19.5594 20.7164 19.5594 20.3651C19.5594 20.0214 19.4219 19.7579 19.1469 19.5745C18.872 19.3836 18.4672 19.2881 17.9325 19.2881C17.3979 19.2881 16.9931 19.3836 16.7181 19.5745C16.4508 19.7579 16.3172 20.0214 16.3172 20.3651C16.3172 20.7164 16.4508 20.9837 16.7181 21.167C16.9931 21.3503 17.3979 21.442 17.9325 21.442ZM17.9325 17.9363C18.429 17.9363 18.7956 17.8522 19.0324 17.6842C19.2768 17.5162 19.399 17.2756 19.399 16.9624C19.399 16.6417 19.2768 16.3972 19.0324 16.2292C18.7956 16.0612 18.429 15.9772 17.9325 15.9772C17.4361 15.9772 17.0695 16.0612 16.8327 16.2292C16.5959 16.3972 16.4776 16.6417 16.4776 16.9624C16.4776 17.2756 16.5959 17.5162 16.8327 17.6842C17.0695 17.8522 17.4361 17.9363 17.9325 17.9363ZM24.6168 21.2128V16.023H25.8655V21.2128H24.6168ZM22.6462 19.2423V17.9935H27.8361V19.2423H22.6462Z" fill="url(#paint1_linear_2002_236)"/>
<path d="M11.6965 22.7366H11.4204V23.0127H11.6965V22.7366ZM11.6965 16.0803L11.8376 15.843L11.4204 15.5949V16.0803H11.6965ZM12.1204 16.3323L12.2822 16.556L12.6225 16.3097L12.2615 16.095L12.1204 16.3323ZM10.0467 17.8331H9.77062V18.3738L10.2086 18.0568L10.0467 17.8331ZM10.0467 16.0459L9.88265 15.8238L9.77062 15.9066V16.0459H10.0467ZM11.8454 14.7169V14.4408H11.7545L11.6813 14.4949L11.8454 14.7169ZM13.3004 14.7169H13.5765V14.4408H13.3004V14.7169ZM13.3004 22.7366V23.0127H13.5765V22.7366H13.3004ZM11.9726 22.7366V16.0803H11.4204V22.7366H11.9726ZM11.5554 16.3176L11.9793 16.5696L12.2615 16.095L11.8376 15.843L11.5554 16.3176ZM11.9585 16.1087L9.88484 17.6095L10.2086 18.0568L12.2822 16.556L11.9585 16.1087ZM10.3228 17.8331V16.0459H9.77062V17.8331H10.3228ZM10.2108 16.268L12.0095 14.939L11.6813 14.4949L9.88265 15.8238L10.2108 16.268ZM11.8454 14.993H13.3004V14.4408H11.8454V14.993ZM13.0243 14.7169V22.7366H13.5765V14.7169H13.0243ZM13.3004 22.4605H11.6965V23.0127H13.3004V22.4605ZM16.1911 22.5991L16.0872 22.8549L16.092 22.8568L16.1911 22.5991ZM15.0569 21.7628L15.2784 21.5979L15.2784 21.5979L15.0569 21.7628ZM15.0569 19.2881L14.839 19.1186L14.839 19.1186L15.0569 19.2881ZM16.1568 18.5778L16.2309 18.8438L16.4329 18.7875V18.5778H16.1568ZM16.1568 18.5205H16.4329V18.3237L16.2468 18.2595L16.1568 18.5205ZM15.16 17.8675L14.9377 18.0314L14.9427 18.0378L15.16 17.8675ZM15.2059 15.6335L14.985 15.4678L14.9826 15.4711L15.2059 15.6335ZM16.2828 14.8544L16.3839 15.1114L16.386 15.1105L16.2828 14.8544ZM19.5823 14.8544L19.4776 15.1099L19.4812 15.1114L19.5823 14.8544ZM20.6592 15.6449L20.4366 15.8082L20.4383 15.8106L20.6592 15.6449ZM20.705 17.8675L20.4856 17.7L20.4849 17.7009L20.705 17.8675ZM19.7198 18.5205L19.6298 18.2595L19.4437 18.3237V18.5205H19.7198ZM19.7198 18.5778H19.4437V18.7875L19.6457 18.8438L19.7198 18.5778ZM20.8196 19.2881L21.0376 19.1186L21.0376 19.1186L20.8196 19.2881ZM20.8082 21.7628L20.5889 21.5949L20.5867 21.5979L20.8082 21.7628ZM19.6625 22.5991L19.763 22.8563L19.765 22.8554L19.6625 22.5991ZM19.1469 21.167L18.9938 20.9373L18.9938 20.9373L19.1469 21.167ZM19.1469 19.5745L18.9894 19.8014L18.9938 19.8043L19.1469 19.5745ZM16.7181 19.5745L16.8743 19.8023L16.8756 19.8013L16.7181 19.5745ZM16.7181 21.167L16.562 21.3947L16.565 21.3967L16.7181 21.167ZM19.0324 17.6842L18.8759 17.4567L18.8726 17.459L19.0324 17.6842ZM19.0324 16.2292L18.8726 16.4544L18.876 16.4567L19.0324 16.2292ZM16.8327 16.2292L16.9925 16.4544L16.9925 16.4544L16.8327 16.2292ZM16.8327 17.6842L16.6729 17.9094L16.6729 17.9094L16.8327 17.6842ZM17.9325 22.6094C17.2938 22.6094 16.7483 22.5176 16.2903 22.3414L16.092 22.8568C16.6269 23.0625 17.2423 23.1616 17.9325 23.1616V22.6094ZM16.2951 22.3433C15.8445 22.1603 15.5105 21.9096 15.2784 21.5979L14.8355 21.9277C15.138 22.3338 15.5601 22.6408 16.0872 22.8549L16.2951 22.3433ZM15.2784 21.5979C15.0487 21.2894 14.9321 20.9318 14.9321 20.514H14.3798C14.3798 21.0433 14.5305 21.5182 14.8355 21.9277L15.2784 21.5979ZM14.9321 20.514C14.9321 20.0961 15.0486 19.7485 15.2749 19.4576L14.839 19.1186C14.5306 19.5151 14.3798 19.9848 14.3798 20.514H14.9321ZM15.2749 19.4576C15.5018 19.1658 15.8154 18.9596 16.2309 18.8438L16.0826 18.3119C15.5663 18.4557 15.1467 18.723 14.839 19.1186L15.2749 19.4576ZM16.4329 18.5778V18.5205H15.8807V18.5778H16.4329ZM16.2468 18.2595C15.839 18.1189 15.5574 17.9269 15.3773 17.6972L14.9427 18.0378C15.2057 18.3733 15.5886 18.6167 16.0668 18.7816L16.2468 18.2595ZM15.3823 17.7037C15.209 17.4685 15.1154 17.1733 15.1154 16.802H14.5632C14.5632 17.271 14.6834 17.6861 14.9378 18.0313L15.3823 17.7037ZM15.1154 16.802C15.1154 16.4133 15.2214 16.0815 15.4292 15.7959L14.9826 15.4711C14.7015 15.8575 14.5632 16.3048 14.5632 16.802H15.1154ZM15.4267 15.7991C15.6426 15.5113 15.9564 15.2795 16.3839 15.1114L16.1817 14.5975C15.6774 14.7959 15.2732 15.0836 14.985 15.4678L15.4267 15.7991ZM16.386 15.1105C16.8202 14.9354 17.3338 14.8441 17.9325 14.8441V14.2919C17.2786 14.2919 16.6924 14.3915 16.1795 14.5984L16.386 15.1105ZM17.9325 14.8441C18.5395 14.8441 19.0523 14.9356 19.4776 15.1099L19.687 14.5989C19.1805 14.3914 18.5934 14.2919 17.9325 14.2919V14.8441ZM19.4812 15.1114C19.9072 15.2789 20.2204 15.5135 20.4366 15.8082L20.8819 15.4817C20.5939 15.089 20.1892 14.7965 19.6834 14.5975L19.4812 15.1114ZM20.4383 15.8106C20.6532 16.097 20.7612 16.4241 20.7612 16.802H21.3134C21.3134 16.3093 21.1694 15.865 20.8801 15.4793L20.4383 15.8106ZM20.7612 16.802C20.7612 17.1711 20.6649 17.4649 20.4856 17.7L20.9245 18.035C21.1881 17.6896 21.3134 17.2731 21.3134 16.802H20.7612ZM20.4849 17.7009C20.3132 17.9278 20.0374 18.119 19.6298 18.2595L19.8098 18.7816C20.2881 18.6166 20.6692 18.3725 20.9252 18.0341L20.4849 17.7009ZM19.4437 18.5205V18.5778H19.9959V18.5205H19.4437ZM19.6457 18.8438C20.0612 18.9596 20.3747 19.1658 20.6017 19.4576L21.0376 19.1186C20.7299 18.723 20.3102 18.4557 19.7939 18.3119L19.6457 18.8438ZM20.6017 19.4576C20.8279 19.7485 20.9445 20.0961 20.9445 20.514H21.4967C21.4967 19.9848 21.3459 19.5151 21.0376 19.1186L20.6017 19.4576ZM20.9445 20.514C20.9445 20.9299 20.8252 21.2865 20.589 21.5949L21.0273 21.9307C21.341 21.5211 21.4967 21.0452 21.4967 20.514H20.9445ZM20.5867 21.5979C20.3553 21.9086 20.0184 22.1594 19.5599 22.3427L19.765 22.8554C20.2995 22.6417 20.7264 22.3348 21.0296 21.9277L20.5867 21.5979ZM19.562 22.3419C19.1125 22.5175 18.5714 22.6094 17.9325 22.6094V23.1616C18.6226 23.1616 19.2349 23.0626 19.763 22.8563L19.562 22.3419ZM17.9325 21.7181C18.491 21.7181 18.9597 21.6237 19.3001 21.3967L18.9938 20.9373C18.7843 21.0769 18.4433 21.1659 17.9325 21.1659V21.7181ZM19.3001 21.3967C19.6575 21.1585 19.8355 20.8018 19.8355 20.3651H19.2833C19.2833 20.631 19.1863 20.8089 18.9938 20.9373L19.3001 21.3967ZM19.8355 20.3651C19.8355 19.9335 19.6555 19.5817 19.3001 19.3448L18.9938 19.8043C19.1883 19.934 19.2833 20.1092 19.2833 20.3651H19.8355ZM19.3044 19.3478C18.9631 19.1107 18.4926 19.012 17.9325 19.012V19.5642C18.4418 19.5642 18.7809 19.6565 18.9895 19.8013L19.3044 19.3478ZM17.9325 19.012C17.3725 19.012 16.902 19.1107 16.5607 19.3478L16.8756 19.8013C17.0842 19.6565 17.4233 19.5642 17.9325 19.5642V19.012ZM16.562 19.3468C16.2144 19.5852 16.0411 19.9368 16.0411 20.3651H16.5933C16.5933 20.1059 16.6873 19.9305 16.8743 19.8023L16.562 19.3468ZM16.0411 20.3651C16.0411 20.7984 16.2125 21.155 16.562 21.3947L16.8743 20.9393C16.6892 20.8124 16.5933 20.6344 16.5933 20.3651H16.0411ZM16.565 21.3967C16.9054 21.6237 17.374 21.7181 17.9325 21.7181V21.1659C17.4218 21.1659 17.0808 21.0769 16.8713 20.9373L16.565 21.3967ZM17.9325 18.2124C18.4499 18.2124 18.8859 18.1267 19.1922 17.9094L18.8726 17.459C18.7053 17.5778 18.4081 17.6601 17.9325 17.6601V18.2124ZM19.1888 17.9117C19.513 17.6889 19.6751 17.3605 19.6751 16.9624H19.1229C19.1229 17.1907 19.0406 17.3435 18.876 17.4567L19.1888 17.9117ZM19.6751 16.9624C19.6751 16.5595 19.515 16.226 19.1888 16.0017L18.876 16.4567C19.0385 16.5685 19.1229 16.7238 19.1229 16.9624H19.6751ZM19.1922 16.0041C18.8859 15.7867 18.4499 15.7011 17.9325 15.7011V16.2533C18.4081 16.2533 18.7053 16.3357 18.8726 16.4544L19.1922 16.0041ZM17.9325 15.7011C17.4152 15.7011 16.9792 15.7867 16.6729 16.0041L16.9925 16.4544C17.1598 16.3357 17.457 16.2533 17.9325 16.2533V15.7011ZM16.6729 16.0041C16.3547 16.2299 16.2015 16.5631 16.2015 16.9624H16.7537C16.7537 16.7202 16.8372 16.5646 16.9925 16.4544L16.6729 16.0041ZM16.2015 16.9624C16.2015 17.3568 16.3567 17.685 16.6729 17.9094L16.9925 17.459C16.8352 17.3474 16.7537 17.1944 16.7537 16.9624H16.2015ZM16.6729 17.9094C16.9792 18.1267 17.4152 18.2124 17.9325 18.2124V17.6601C17.457 17.6601 17.1598 17.5778 16.9925 17.459L16.6729 17.9094ZM24.6168 21.2128H24.3407V21.4889H24.6168V21.2128ZM24.6168 16.023V15.7469H24.3407V16.023H24.6168ZM25.8655 16.023H26.1416V15.7469H25.8655V16.023ZM25.8655 21.2128V21.4889H26.1416V21.2128H25.8655ZM22.6462 19.2423H22.3701V19.5184H22.6462V19.2423ZM22.6462 17.9935V17.7174H22.3701V17.9935H22.6462ZM27.8361 17.9935H28.1122V17.7174H27.8361V17.9935ZM27.8361 19.2423V19.5184H28.1122V19.2423H27.8361ZM24.8929 21.2128V16.023H24.3407V21.2128H24.8929ZM24.6168 16.2991H25.8655V15.7469H24.6168V16.2991ZM25.5894 16.023V21.2128H26.1416V16.023H25.5894ZM25.8655 20.9367H24.6168V21.4889H25.8655V20.9367ZM22.9223 19.2423V17.9935H22.3701V19.2423H22.9223ZM22.6462 18.2696H27.8361V17.7174H22.6462V18.2696ZM27.56 17.9935V19.2423H28.1122V17.9935H27.56ZM27.8361 18.9662H22.6462V19.5184H27.8361V18.9662Z" fill="url(#paint2_linear_2002_236)" mask="url(#path-2-outside-1_2002_236)"/>
<defs>
<linearGradient id="paint0_linear_2002_236" x1="35.2098" y1="17.6049" x2="0" y2="17.6049" gradientUnits="userSpaceOnUse">
<stop stop-color="#00EC9E"/>
<stop offset="1" stop-color="#8E6EFA"/>
</linearGradient>
<linearGradient id="paint1_linear_2002_236" x1="29.2217" y1="18.2366" x2="9.22168" y2="18.2366" gradientUnits="userSpaceOnUse">
<stop stop-color="#00EC9E"/>
<stop offset="1" stop-color="#8E6EFA"/>
</linearGradient>
<linearGradient id="paint2_linear_2002_236" x1="29.2217" y1="18.2366" x2="9.22168" y2="18.2366" gradientUnits="userSpaceOnUse">
<stop stop-color="#00EC9E"/>
<stop offset="1" stop-color="#8E6EFA"/>
</linearGradient>
</defs>
</svg>
