<svg width="260" height="51" viewBox="0 0 260 51" fill="none" xmlns="http://www.w3.org/2000/svg">
<path d="M12.9508 0C11.1645 0 9.71631 1.44811 9.71631 3.2345C9.71631 5.02079 11.1645 6.46891 12.9508 6.46891H31.0989C33.1686 6.46891 35.0718 6.61907 36.5023 7.66284C37.7637 8.5833 38.8607 9.97867 38.8607 12.0089C38.8607 14.0235 37.0675 17.095 33.4594 17.095H12.9038C11.1434 17.095 9.71631 18.522 9.71631 20.2824C9.71631 22.0428 11.1434 23.4698 12.9038 23.4698H28.1104C30.1255 23.4698 32.1933 23.5567 33.9854 24.0506C35.7623 24.5404 37.19 25.408 38.0445 26.9217C38.5395 27.7984 38.8607 28.8112 38.8607 29.9502C38.8607 30.7084 38.3851 32.1293 37.3255 33.3363C36.514 34.2606 35.3946 34.7422 34.0545 34.9847C32.7678 35.2175 31.363 35.2169 29.9394 35.2162L12.9508 35.2161C11.1645 35.2161 9.71631 36.6642 9.71631 38.4506C9.71631 40.2369 11.1645 41.685 12.9508 41.685H34.1505C35.918 41.685 38.5786 41.1566 40.8757 39.4152C43.2055 37.6491 45.0867 34.69 45.3286 29.9916L45.3297 29.9709V29.9502C45.3297 28.6974 45.1177 26.8018 44.4784 24.9578C43.9462 23.4224 43.0901 21.8459 41.741 20.7396C43.3395 19.0045 45.3297 15.8396 45.3297 12.0089C45.3297 9.9318 44.7863 6.96143 43.1175 4.48412C41.4191 1.96308 38.5809 0 34.1505 0H12.9508Z" fill="#8A6FF2"/>
<path d="M5.40107 8.50049C2.41814 8.50049 0 10.9187 0 13.9016V44.7845C0 47.7675 2.41814 50.1856 5.40106 50.1856H32.3788C34.1652 50.1856 35.6133 48.7375 35.6133 46.9511C35.6133 45.1647 34.1652 43.7166 32.3788 43.7166H8.7267C7.47978 43.7166 6.46895 42.7058 6.46895 41.4589V34.8353C6.46895 33.5883 7.47978 32.5776 8.7267 32.5776H32.3788C34.1652 32.5776 35.6133 31.1294 35.6133 29.3431C35.6133 27.5567 34.1652 26.1086 32.3788 26.1086H8.7267C7.47978 26.1086 6.46895 25.0977 6.46895 23.8508V17.2272C6.46895 15.9802 7.47978 14.9695 8.7267 14.9695H32.3788C34.1652 14.9695 35.6133 13.5213 35.6133 11.735C35.6133 9.9486 34.1652 8.50049 32.3788 8.50049H5.40107Z" fill="#02E8A4"/>
<path d="M64.8908 38.7995C63.0372 38.7995 61.5882 38.3165 60.5439 37.3504C59.5257 36.3584 59.0166 34.9877 59.0166 33.2385V16.8296C59.0166 15.1325 59.5126 13.801 60.5048 12.835C61.4969 11.869 62.8806 11.386 64.6559 11.386H76.8353C77.5141 11.386 78.0363 11.5426 78.4018 11.856C78.7673 12.1432 78.95 12.5739 78.95 13.1484C78.95 13.6966 78.7673 14.1273 78.4018 14.4407C78.0363 14.7279 77.5141 14.8714 76.8353 14.8714H65.2825C64.7081 14.8714 64.2643 15.0542 63.951 15.4197C63.6377 15.7853 63.481 16.2813 63.481 16.9079V23.0564H73.859C74.5378 23.0564 75.0599 23.213 75.4255 23.5262C75.791 23.8134 75.9737 24.2442 75.9737 24.8186C75.9737 25.3668 75.791 25.7977 75.4255 26.1109C75.0599 26.3981 74.5378 26.5418 73.859 26.5418H63.481V33.2777C63.481 33.9042 63.6377 34.4003 63.951 34.7657C64.2643 35.1313 64.7081 35.3141 65.2825 35.3141H77.6969C78.3757 35.3141 78.8978 35.4707 79.2634 35.784C79.6289 36.0711 79.8117 36.502 79.8117 37.0763C79.8117 37.6246 79.6289 38.0554 79.2634 38.3687C78.8978 38.6559 78.3757 38.7995 77.6969 38.7995H64.8908Z" fill="url(#paint0_linear_2002_278)"/>
<path d="M84.178 16.8687C84.178 15.1717 84.6741 13.8402 85.6661 12.8742C86.6582 11.8821 88.0551 11.386 89.8565 11.386H96.9448C100.731 11.386 103.576 12.1432 105.483 13.6575C107.414 15.1717 108.38 17.4039 108.38 20.3541C108.38 23.1477 107.532 25.3146 105.835 26.855C104.138 28.3954 101.788 29.1656 98.7855 29.1656L105.287 35.7448C105.704 36.1626 105.913 36.6195 105.913 37.1155C105.913 37.6638 105.651 38.1598 105.129 38.6037C104.634 38.9692 104.151 39.1519 103.681 39.1519C103.028 39.1519 102.401 38.8386 101.801 38.2121L93.1852 29.283H88.7599V37.0763C88.7599 37.7291 88.538 38.2512 88.0942 38.6428C87.6764 39.0084 87.1282 39.1911 86.4493 39.1911C85.7445 39.1911 85.1832 39.0084 84.7654 38.6428C84.3737 38.2512 84.178 37.7291 84.178 37.0763V16.8687ZM96.9056 25.6802C99.412 25.6802 101.174 25.2885 102.193 24.5053C103.237 23.696 103.759 22.3123 103.759 20.3541C103.759 18.4483 103.198 17.0776 102.075 16.2422C100.952 15.4066 99.2292 14.989 96.9056 14.989H90.5222C89.974 14.989 89.5432 15.1717 89.2299 15.5372C88.9166 15.8766 88.7599 16.3596 88.7599 16.9862V25.6802H96.9056Z" fill="url(#paint1_linear_2002_278)"/>
<path d="M114.708 39.1519C114.03 39.1519 113.494 38.9691 113.103 38.6037C112.711 38.2381 112.515 37.729 112.515 37.0763V22.8213C112.515 19.114 113.572 16.216 115.687 14.1273C117.802 12.0387 120.74 10.9944 124.499 10.9944C126.952 10.9944 129.081 11.4774 130.883 12.4433C132.684 13.3832 134.055 14.7408 134.994 16.5162C135.96 18.2916 136.443 20.3933 136.443 22.8213V37.0763C136.443 37.729 136.247 38.2381 135.856 38.6037C135.464 38.9691 134.929 39.1519 134.25 39.1519C133.571 39.1519 133.023 38.9691 132.605 38.6037C132.187 38.212 131.978 37.7029 131.978 37.0763V29.8705H116.979V37.0763C116.979 37.7029 116.771 38.212 116.353 38.6037C115.935 38.9691 115.387 39.1519 114.708 39.1519ZM131.978 26.3851V22.7038C131.978 20.0407 131.339 18.0174 130.059 16.6336C128.806 15.2499 126.952 14.5582 124.499 14.5582C122.019 14.5582 120.139 15.2499 118.859 16.6336C117.606 17.9913 116.979 20.0146 116.979 22.7038V26.3851H131.978Z" fill="url(#paint2_linear_2002_278)"/>
<path d="M147.117 38.7995C145.263 38.7995 143.814 38.3165 142.769 37.3504C141.751 36.3584 141.241 34.9877 141.241 33.2385V16.8296C141.241 15.1325 141.737 13.801 142.73 12.835C143.722 11.869 145.106 11.386 146.881 11.386H156.006C158.904 11.386 161.149 12.0387 162.742 13.3441C164.335 14.6234 165.131 16.464 165.131 18.866C165.131 20.1191 164.778 21.2549 164.074 22.2731C163.369 23.2912 162.428 24.0614 161.254 24.5836V24.662C162.559 25.1581 163.604 25.9413 164.387 27.0117C165.196 28.0821 165.6 29.27 165.6 30.5754C165.6 33.134 164.791 35.1444 163.173 36.6065C161.554 38.0684 159.321 38.7995 156.475 38.7995H147.117ZM156.123 23.0171C157.507 23.0171 158.604 22.6516 159.413 21.9206C160.222 21.1896 160.627 20.1845 160.627 18.9052C160.627 16.216 159.086 14.8714 156.006 14.8714H147.469C146.894 14.8714 146.437 15.0542 146.098 15.4197C145.785 15.7853 145.628 16.2813 145.628 16.9079V23.0171H156.123ZM156.123 35.3141C159.439 35.3141 161.097 33.7607 161.097 30.6538C161.097 29.3223 160.653 28.291 159.766 27.56C158.878 26.8028 157.664 26.4242 156.123 26.4242H145.628V33.2777C145.628 33.9042 145.785 34.4003 146.098 34.7657C146.437 35.1313 146.894 35.3141 147.469 35.3141H156.123Z" fill="url(#paint3_linear_2002_278)"/>
<path d="M175.915 38.7995C174.061 38.7995 172.612 38.3165 171.568 37.3504C170.549 36.3584 170.041 34.9877 170.041 33.2385V16.8296C170.041 15.1325 170.537 13.801 171.529 12.835C172.521 11.869 173.905 11.386 175.68 11.386H187.86C188.538 11.386 189.06 11.5426 189.425 11.856C189.791 12.1432 189.974 12.5739 189.974 13.1484C189.974 13.6966 189.791 14.1273 189.425 14.4407C189.06 14.7279 188.538 14.8714 187.86 14.8714H176.306C175.732 14.8714 175.288 15.0542 174.974 15.4197C174.662 15.7853 174.505 16.2813 174.505 16.9079V23.0564H184.883C185.562 23.0564 186.084 23.213 186.449 23.5262C186.815 23.8134 186.998 24.2442 186.998 24.8186C186.998 25.3668 186.815 25.7977 186.449 26.1109C186.084 26.3981 185.562 26.5418 184.883 26.5418H174.505V33.2777C174.505 33.9042 174.662 34.4003 174.974 34.7657C175.288 35.1313 175.732 35.3141 176.306 35.3141H188.721C189.4 35.3141 189.922 35.4707 190.287 35.784C190.653 36.0711 190.836 36.502 190.836 37.0763C190.836 37.6246 190.653 38.0554 190.287 38.3687C189.922 38.6559 189.4 38.7995 188.721 38.7995H175.915Z" fill="url(#paint4_linear_2002_278)"/>
<path d="M206.363 39.1911C205.685 39.1911 205.136 39.0084 204.719 38.6428C204.327 38.2773 204.131 37.7682 204.131 37.1155V14.8714H196.103C195.424 14.8714 194.902 14.7279 194.536 14.4407C194.171 14.1273 193.988 13.6966 193.988 13.1484C193.988 12.5739 194.171 12.1432 194.536 11.856C194.902 11.5426 195.424 11.386 196.103 11.386H216.624C217.302 11.386 217.825 11.5426 218.19 11.856C218.582 12.1432 218.778 12.5739 218.778 13.1484C218.778 13.6966 218.582 14.1273 218.19 14.4407C217.825 14.7279 217.302 14.8714 216.624 14.8714H208.596V37.1155C208.596 37.7421 208.387 38.2512 207.969 38.6428C207.578 39.0084 207.042 39.1911 206.363 39.1911Z" fill="url(#paint5_linear_2002_278)"/>
<path d="M221.26 38.7995C220.451 38.7995 219.76 38.5384 219.185 38.0163C218.636 37.468 218.363 36.8283 218.363 36.0972C218.363 35.3401 218.636 34.6874 219.185 34.1392C219.733 33.5909 220.425 33.3168 221.26 33.3168C222.043 33.3168 222.709 33.5909 223.258 34.1392C223.806 34.6874 224.08 35.3401 224.08 36.0972C224.08 36.8283 223.806 37.468 223.258 38.0163C222.709 38.5384 222.043 38.7995 221.26 38.7995Z" fill="url(#paint6_linear_2002_278)"/>
<path d="M230.753 16.2028C229.917 16.2028 229.225 15.9678 228.677 15.498C228.155 15.0019 227.894 14.3753 227.894 13.6181C227.894 12.861 228.155 12.2475 228.677 11.7775C229.225 11.2814 229.917 11.0334 230.753 11.0334C231.588 11.0334 232.28 11.2814 232.828 11.7775C233.376 12.2475 233.651 12.861 233.651 13.6181C233.651 14.3753 233.376 15.0019 232.828 15.498C232.28 15.9678 231.588 16.2028 230.753 16.2028ZM230.753 39.191C230.074 39.191 229.538 39.0083 229.147 38.6427C228.781 38.2772 228.599 37.7681 228.599 37.1154V21.2939C228.599 20.6412 228.781 20.1321 229.147 19.7666C229.538 19.4011 230.074 19.2184 230.753 19.2184C231.431 19.2184 231.967 19.4011 232.358 19.7666C232.776 20.1321 232.985 20.6412 232.985 21.2939V37.1154C232.985 37.7681 232.776 38.2772 232.358 38.6427C231.967 39.0083 231.431 39.191 230.753 39.191Z" fill="url(#paint7_linear_2002_278)"/>
<path d="M248.642 39.1912C246.371 39.1912 244.374 38.7734 242.651 37.938C240.928 37.0763 239.596 35.8885 238.657 34.3742C237.742 32.8599 237.286 31.1368 237.286 29.2048C237.286 27.2728 237.742 25.5496 238.657 24.0353C239.596 22.5212 240.928 21.3462 242.651 20.5108C244.374 19.6493 246.371 19.2185 248.642 19.2185C250.914 19.2185 252.911 19.6493 254.634 20.5108C256.358 21.3462 257.676 22.5212 258.589 24.0353C259.53 25.5496 260 27.2728 260 29.2048C260 31.1368 259.53 32.8599 258.589 34.3742C257.676 35.8885 256.358 37.0763 254.634 37.938C252.911 38.7734 250.914 39.1912 248.642 39.1912ZM248.642 35.6665C250.757 35.6665 252.442 35.0922 253.695 33.9433C254.948 32.7946 255.575 31.2151 255.575 29.2048C255.575 27.1945 254.948 25.615 253.695 24.4662C252.442 23.3174 250.757 22.7431 248.642 22.7431C246.502 22.7431 244.805 23.3174 243.552 24.4662C242.325 25.615 241.711 27.1945 241.711 29.2048C241.711 31.2151 242.325 32.7946 243.552 33.9433C244.805 35.0922 246.502 35.6665 248.642 35.6665Z" fill="url(#paint8_linear_2002_278)"/>
<defs>
<linearGradient id="paint0_linear_2002_278" x1="255.607" y1="15.7259" x2="2.75959" y2="33.6412" gradientUnits="userSpaceOnUse">
<stop stop-color="#8A6FF2"/>
<stop offset="1" stop-color="#02E8A4"/>
</linearGradient>
<linearGradient id="paint1_linear_2002_278" x1="255.604" y1="15.7259" x2="2.75724" y2="33.6412" gradientUnits="userSpaceOnUse">
<stop stop-color="#8A6FF2"/>
<stop offset="1" stop-color="#02E8A4"/>
</linearGradient>
<linearGradient id="paint2_linear_2002_278" x1="255.606" y1="15.7259" x2="2.75913" y2="33.6412" gradientUnits="userSpaceOnUse">
<stop stop-color="#8A6FF2"/>
<stop offset="1" stop-color="#02E8A4"/>
</linearGradient>
<linearGradient id="paint3_linear_2002_278" x1="255.607" y1="15.7259" x2="2.75989" y2="33.6412" gradientUnits="userSpaceOnUse">
<stop stop-color="#8A6FF2"/>
<stop offset="1" stop-color="#02E8A4"/>
</linearGradient>
<linearGradient id="paint4_linear_2002_278" x1="255.607" y1="15.7259" x2="2.76043" y2="33.6412" gradientUnits="userSpaceOnUse">
<stop stop-color="#8A6FF2"/>
<stop offset="1" stop-color="#02E8A4"/>
</linearGradient>
<linearGradient id="paint5_linear_2002_278" x1="255.606" y1="15.7259" x2="2.75851" y2="33.6412" gradientUnits="userSpaceOnUse">
<stop stop-color="#8A6FF2"/>
<stop offset="1" stop-color="#02E8A4"/>
</linearGradient>
<linearGradient id="paint6_linear_2002_278" x1="255.608" y1="15.7259" x2="2.76117" y2="33.6412" gradientUnits="userSpaceOnUse">
<stop stop-color="#8A6FF2"/>
<stop offset="1" stop-color="#02E8A4"/>
</linearGradient>
<linearGradient id="paint7_linear_2002_278" x1="255.606" y1="15.7258" x2="2.75922" y2="33.6412" gradientUnits="userSpaceOnUse">
<stop stop-color="#8A6FF2"/>
<stop offset="1" stop-color="#02E8A4"/>
</linearGradient>
<linearGradient id="paint8_linear_2002_278" x1="255.604" y1="15.7259" x2="2.75719" y2="33.6412" gradientUnits="userSpaceOnUse">
<stop stop-color="#8A6FF2"/>
<stop offset="1" stop-color="#02E8A4"/>
</linearGradient>
</defs>
</svg>
