<svg width="74" height="25" viewBox="0 0 74 25" fill="none" xmlns="http://www.w3.org/2000/svg">
<g id="spei-1" clip-path="url(#clip0_2372_4786)">
<path id="Vector" fill-rule="evenodd" clip-rule="evenodd" d="M14.5377 7.47262C16.7308 7.36312 18.8143 7.19882 20.9746 7.10457C20.3536 2.62959 18.1497 0.258301 11.4847 0.258301C4.9401 0.258301 2.09833 3.55727 1.72299 6.58826C1.30064 9.99916 3.91898 12.184 8.10517 13.3776C11.7209 14.4165 14.7511 15.1384 14.8455 16.8797C14.9471 18.7523 12.7655 19.8047 11.6848 19.8047C9.75342 19.8047 7.65227 17.7067 7.40086 15.7839C5.2988 15.9474 3.11671 15.9562 1.01465 16.1198C1.01465 21.3433 5.34398 24.1098 11.0842 24.1098C16.4372 24.1098 21.6945 21.9024 21.6945 16.2575C21.6945 9.40384 14.1321 9.40591 9.18236 7.71799C7.45152 6.78099 8.35412 4.73085 9.98316 4.55077C13.2721 4.15931 13.8367 5.99403 14.5376 7.47262H14.5377ZM35.1441 0.813345C39.4336 0.813345 42.4709 3.13101 42.4709 7.82929C42.4709 12.1351 39.449 14.8838 35.0624 14.8838H29.5838V23.129C29.5838 23.6955 29.5838 23.6955 29.0736 23.6955H23.3577C22.6421 23.6955 22.6421 23.6955 22.6421 23.1684V1.79223C22.6421 0.813345 22.6421 0.813345 23.6466 0.813345H35.1441ZM30.1347 10.5268C29.7295 10.5268 29.5838 10.3637 29.5838 10.1171V5.68776C29.5838 5.36293 29.8541 5.18043 30.1012 5.18043H32.5027C34.5697 5.47952 35.3263 6.57777 35.3263 8.00973C35.3263 10.0586 33.4638 10.5268 31.846 10.5268H30.1346H30.1347Z" fill="#535353"/>
<path id="Vector_2" fill-rule="evenodd" clip-rule="evenodd" d="M44.0315 1.4462C44.0315 1.15922 44.2416 0.939584 44.4731 0.939584H62.6932C63.0953 0.921737 63.1391 1.08388 63.1391 1.23733V5.32021C63.1578 5.50971 62.9988 5.59634 62.8575 5.59634H51.3204C51.0793 5.59634 50.9996 5.83866 50.9996 6.10341V8.86015C50.9996 9.15745 51.2158 9.42928 51.5799 9.42928H61.7881L62.021 9.6577V13.486C61.9043 13.6502 61.7876 13.8143 61.6709 13.9786H51.3842C51.1463 13.9786 50.9995 14.1226 50.9995 14.3559V18.0283C50.9995 18.2308 51.2456 18.4563 51.5333 18.4563H62.9061C63.0565 18.4563 63.139 18.5966 63.139 18.6846V23.1449C63.139 23.2498 63.018 23.3644 62.9151 23.3644H44.2175C44.1184 23.3644 44.0315 23.2684 44.0315 23.182V1.44629V1.4462Z" fill="#BDBDBD"/>
<path id="Vector_3" fill-rule="evenodd" clip-rule="evenodd" d="M73.0289 13.5886V23.3644H66.541C66.4419 23.3644 66.355 23.2684 66.355 23.1819V14.4487C66.355 14.2148 66.5198 14.0802 66.6429 14.0802H68.5055C68.6922 14.0802 68.7394 14.2368 68.7394 14.375V18.4562C68.7394 18.9718 69.1802 18.7497 69.416 18.4562C70.6204 16.8337 71.8247 15.2112 73.029 13.5886H73.0289Z" fill="#535353"/>
<path id="Vector_4" fill-rule="evenodd" clip-rule="evenodd" d="M66.0716 1.44607C66.0716 1.15909 66.2816 0.939453 66.5132 0.939453H72.4687C72.8812 0.939453 73.0291 1.18716 73.0291 1.38266V9.73012L69.3827 4.72638C69.304 4.61814 69.1238 4.62513 69.1238 4.84925V8.45313C69.1238 8.65384 69.0226 9.03464 68.7312 9.03464H66.3549C66.2254 9.03464 66.0713 8.7481 66.0713 8.58416V1.44607H66.0716Z" fill="#BDBDBD"/>
</g>
<defs>
<clipPath id="clip0_2372_4786">
<rect width="73" height="23.8515" fill="white" transform="translate(0.521973 0.258301)"/>
</clipPath>
</defs>
</svg>
